<svg xmlns="http://www.w3.org/2000/svg" viewBox="0 0 891.4 1113.84"><defs><style>.cls-1{fill:#b4003a;}.cls-2{fill:#b80a3e;}.cls-3{fill:#bc1342;}.cls-4{fill:#c01a46;}.cls-5{fill:#c4204a;}.cls-6{fill:#c7264f;}.cls-7{fill:#cb2b53;}.cls-8{fill:#cf2f57;}.cls-9{fill:#d3345c;}.cls-10{fill:#d73960;}.cls-11{fill:#da3d64;}.cls-12{fill:#de4169;}.cls-13{fill:#e2456d;}.cls-14{fill:#e54a71;}.cls-15{fill:#e94e76;}.cls-16{fill:#ed527a;}.cls-17{fill:#f1567f;}.cls-18{fill:#f45a83;}.cls-19{fill:#f85e88;}.cls-20{fill:#fb628c;}.cls-21{fill:#ff6691;}</style></defs><title>Asset 1</title><g id="Layer_2" data-name="Layer 2"><g id="Layer_1-2" data-name="Layer 1"><g id="Group_674" data-name="Group 674"><rect id="Rectangle_258" data-name="Rectangle 258" class="cls-1" x="50" y="56.92" width="100" height="1000"/><g id="Group_596" data-name="Group 596"><circle id="Ellipse_423" data-name="Ellipse 423" class="cls-1" cx="100" cy="56.92" r="50"/><g id="Group_586" data-name="Group 586"><circle id="Ellipse_424" data-name="Ellipse 424" class="cls-2" cx="50" cy="106.92" r="50"/><circle id="Ellipse_425" data-name="Ellipse 425" class="cls-2" cx="150" cy="106.92" r="50"/></g><circle id="Ellipse_426" data-name="Ellipse 426" class="cls-3" cx="100" cy="156.92" r="50"/><g id="Group_587" data-name="Group 587"><circle id="Ellipse_427" data-name="Ellipse 427" class="cls-4" cx="50" cy="206.92" r="50"/><circle id="Ellipse_428" data-name="Ellipse 428" class="cls-4" cx="150" cy="206.92" r="50"/></g><circle id="Ellipse_429" data-name="Ellipse 429" class="cls-5" cx="100" cy="256.92" r="50"/><g id="Group_588" data-name="Group 588"><circle id="Ellipse_430" data-name="Ellipse 430" class="cls-6" cx="50" cy="306.92" r="50"/><circle id="Ellipse_431" data-name="Ellipse 431" class="cls-6" cx="150" cy="306.92" r="50"/></g><circle id="Ellipse_432" data-name="Ellipse 432" class="cls-7" cx="100" cy="356.92" r="50"/><g id="Group_589" data-name="Group 589"><circle id="Ellipse_433" data-name="Ellipse 433" class="cls-8" cx="50" cy="406.92" r="50"/><circle id="Ellipse_434" data-name="Ellipse 434" class="cls-8" cx="150" cy="406.92" r="50"/></g><circle id="Ellipse_435" data-name="Ellipse 435" class="cls-9" cx="100" cy="456.92" r="50"/><g id="Group_590" data-name="Group 590"><circle id="Ellipse_436" data-name="Ellipse 436" class="cls-10" cx="50" cy="506.92" r="50"/><circle id="Ellipse_437" data-name="Ellipse 437" class="cls-10" cx="150" cy="506.92" r="50"/></g><circle id="Ellipse_438" data-name="Ellipse 438" class="cls-11" cx="100" cy="556.92" r="50"/><g id="Group_591" data-name="Group 591"><circle id="Ellipse_439" data-name="Ellipse 439" class="cls-12" cx="50" cy="606.92" r="50"/><circle id="Ellipse_440" data-name="Ellipse 440" class="cls-12" cx="150" cy="606.92" r="50"/></g><circle id="Ellipse_441" data-name="Ellipse 441" class="cls-13" cx="100" cy="656.92" r="50"/><g id="Group_592" data-name="Group 592"><circle id="Ellipse_442" data-name="Ellipse 442" class="cls-14" cx="50" cy="706.92" r="50"/><circle id="Ellipse_443" data-name="Ellipse 443" class="cls-14" cx="150" cy="706.92" r="50"/></g><circle id="Ellipse_444" data-name="Ellipse 444" class="cls-15" cx="100" cy="756.92" r="50"/><g id="Group_593" data-name="Group 593"><circle id="Ellipse_445" data-name="Ellipse 445" class="cls-16" cx="50" cy="806.92" r="50"/><circle id="Ellipse_446" data-name="Ellipse 446" class="cls-16" cx="150" cy="806.92" r="50"/></g><circle id="Ellipse_447" data-name="Ellipse 447" class="cls-17" cx="100" cy="856.92" r="50"/><g id="Group_594" data-name="Group 594"><circle id="Ellipse_448" data-name="Ellipse 448" class="cls-18" cx="50" cy="906.92" r="50"/><circle id="Ellipse_449" data-name="Ellipse 449" class="cls-18" cx="150" cy="906.92" r="50"/></g><circle id="Ellipse_450" data-name="Ellipse 450" class="cls-19" cx="100" cy="956.92" r="50"/><g id="Group_595" data-name="Group 595"><circle id="Ellipse_451" data-name="Ellipse 451" class="cls-20" cx="50" cy="1006.92" r="50"/><circle id="Ellipse_452" data-name="Ellipse 452" class="cls-20" cx="150" cy="1006.92" r="50"/></g><circle id="Ellipse_453" data-name="Ellipse 453" class="cls-21" cx="100" cy="1056.92" r="50"/></g><rect id="Rectangle_259" data-name="Rectangle 259" class="cls-1" x="171" y="56.92" width="100" height="1000"/><g id="Group_607" data-name="Group 607"><circle id="Ellipse_454" data-name="Ellipse 454" class="cls-1" cx="208.9" cy="52.32" r="50"/><g id="Group_597" data-name="Group 597"><circle id="Ellipse_455" data-name="Ellipse 455" class="cls-2" cx="158.9" cy="102.32" r="50"/><circle id="Ellipse_456" data-name="Ellipse 456" class="cls-2" cx="258.9" cy="102.32" r="50"/></g><circle id="Ellipse_457" data-name="Ellipse 457" class="cls-3" cx="208.9" cy="152.32" r="50"/><g id="Group_598" data-name="Group 598"><circle id="Ellipse_458" data-name="Ellipse 458" class="cls-4" cx="158.9" cy="202.32" r="50"/><circle id="Ellipse_459" data-name="Ellipse 459" class="cls-4" cx="258.9" cy="202.32" r="50"/></g><circle id="Ellipse_460" data-name="Ellipse 460" class="cls-5" cx="208.9" cy="252.32" r="50"/><g id="Group_599" data-name="Group 599"><circle id="Ellipse_461" data-name="Ellipse 461" class="cls-6" cx="158.9" cy="302.32" r="50"/><circle id="Ellipse_462" data-name="Ellipse 462" class="cls-6" cx="258.9" cy="302.32" r="50"/></g><circle id="Ellipse_463" data-name="Ellipse 463" class="cls-7" cx="208.9" cy="352.32" r="50"/><g id="Group_600" data-name="Group 600"><circle id="Ellipse_464" data-name="Ellipse 464" class="cls-8" cx="158.9" cy="402.32" r="50"/><circle id="Ellipse_465" data-name="Ellipse 465" class="cls-8" cx="258.9" cy="402.32" r="50"/></g><circle id="Ellipse_466" data-name="Ellipse 466" class="cls-9" cx="208.9" cy="452.32" r="50"/><g id="Group_601" data-name="Group 601"><circle id="Ellipse_467" data-name="Ellipse 467" class="cls-10" cx="158.9" cy="502.32" r="50"/><circle id="Ellipse_468" data-name="Ellipse 468" class="cls-10" cx="258.9" cy="502.32" r="50"/></g><circle id="Ellipse_469" data-name="Ellipse 469" class="cls-11" cx="208.9" cy="552.32" r="50"/><g id="Group_602" data-name="Group 602"><circle id="Ellipse_470" data-name="Ellipse 470" class="cls-12" cx="158.9" cy="602.32" r="50"/><circle id="Ellipse_471" data-name="Ellipse 471" class="cls-12" cx="258.9" cy="602.32" r="50"/></g><circle id="Ellipse_472" data-name="Ellipse 472" class="cls-13" cx="208.9" cy="652.32" r="50"/><g id="Group_603" data-name="Group 603"><circle id="Ellipse_473" data-name="Ellipse 473" class="cls-14" cx="158.9" cy="702.32" r="50"/><circle id="Ellipse_474" data-name="Ellipse 474" class="cls-14" cx="258.9" cy="702.32" r="50"/></g><circle id="Ellipse_475" data-name="Ellipse 475" class="cls-15" cx="208.9" cy="752.32" r="50"/><g id="Group_604" data-name="Group 604"><circle id="Ellipse_476" data-name="Ellipse 476" class="cls-16" cx="158.9" cy="802.32" r="50"/><circle id="Ellipse_477" data-name="Ellipse 477" class="cls-16" cx="258.9" cy="802.32" r="50"/></g><circle id="Ellipse_478" data-name="Ellipse 478" class="cls-17" cx="208.9" cy="852.32" r="50"/><g id="Group_605" data-name="Group 605"><circle id="Ellipse_479" data-name="Ellipse 479" class="cls-18" cx="158.9" cy="902.32" r="50"/><circle id="Ellipse_480" data-name="Ellipse 480" class="cls-18" cx="258.9" cy="902.32" r="50"/></g><circle id="Ellipse_481" data-name="Ellipse 481" class="cls-19" cx="208.9" cy="952.32" r="50"/><g id="Group_606" data-name="Group 606"><circle id="Ellipse_482" data-name="Ellipse 482" class="cls-20" cx="158.9" cy="1002.32" r="50"/><circle id="Ellipse_483" data-name="Ellipse 483" class="cls-20" cx="258.9" cy="1002.32" r="50"/></g><circle id="Ellipse_484" data-name="Ellipse 484" class="cls-21" cx="208.9" cy="1052.32" r="50"/></g><rect id="Rectangle_260" data-name="Rectangle 260" class="cls-1" x="281.5" y="56.92" width="100" height="1000"/><g id="Group_618" data-name="Group 618"><circle id="Ellipse_485" data-name="Ellipse 485" class="cls-1" cx="315.3" cy="52.32" r="50"/><g id="Group_608" data-name="Group 608"><circle id="Ellipse_486" data-name="Ellipse 486" class="cls-2" cx="265.3" cy="102.32" r="50"/><circle id="Ellipse_487" data-name="Ellipse 487" class="cls-2" cx="365.3" cy="102.32" r="50"/></g><circle id="Ellipse_488" data-name="Ellipse 488" class="cls-3" cx="315.3" cy="152.32" r="50"/><g id="Group_609" data-name="Group 609"><circle id="Ellipse_489" data-name="Ellipse 489" class="cls-4" cx="265.3" cy="202.32" r="50"/><circle id="Ellipse_490" data-name="Ellipse 490" class="cls-4" cx="365.3" cy="202.32" r="50"/></g><circle id="Ellipse_491" data-name="Ellipse 491" class="cls-5" cx="315.3" cy="252.32" r="50"/><g id="Group_610" data-name="Group 610"><circle id="Ellipse_492" data-name="Ellipse 492" class="cls-6" cx="265.3" cy="302.32" r="50"/><circle id="Ellipse_493" data-name="Ellipse 493" class="cls-6" cx="365.3" cy="302.32" r="50"/></g><circle id="Ellipse_494" data-name="Ellipse 494" class="cls-7" cx="315.3" cy="352.32" r="50"/><g id="Group_611" data-name="Group 611"><circle id="Ellipse_495" data-name="Ellipse 495" class="cls-8" cx="265.3" cy="402.32" r="50"/><circle id="Ellipse_496" data-name="Ellipse 496" class="cls-8" cx="365.3" cy="402.32" r="50"/></g><circle id="Ellipse_497" data-name="Ellipse 497" class="cls-9" cx="315.3" cy="452.32" r="50"/><g id="Group_612" data-name="Group 612"><circle id="Ellipse_498" data-name="Ellipse 498" class="cls-10" cx="265.3" cy="502.32" r="50"/><circle id="Ellipse_499" data-name="Ellipse 499" class="cls-10" cx="365.3" cy="502.32" r="50"/></g><circle id="Ellipse_500" data-name="Ellipse 500" class="cls-11" cx="315.3" cy="552.32" r="50"/><g id="Group_613" data-name="Group 613"><circle id="Ellipse_501" data-name="Ellipse 501" class="cls-12" cx="265.3" cy="602.32" r="50"/><circle id="Ellipse_502" data-name="Ellipse 502" class="cls-12" cx="365.3" cy="602.32" r="50"/></g><circle id="Ellipse_503" data-name="Ellipse 503" class="cls-13" cx="315.3" cy="652.32" r="50"/><g id="Group_614" data-name="Group 614"><circle id="Ellipse_504" data-name="Ellipse 504" class="cls-14" cx="265.3" cy="702.32" r="50"/><circle id="Ellipse_505" data-name="Ellipse 505" class="cls-14" cx="365.3" cy="702.32" r="50"/></g><circle id="Ellipse_506" data-name="Ellipse 506" class="cls-15" cx="315.3" cy="752.32" r="50"/><g id="Group_615" data-name="Group 615"><circle id="Ellipse_507" data-name="Ellipse 507" class="cls-16" cx="265.3" cy="802.32" r="50"/><circle id="Ellipse_508" data-name="Ellipse 508" class="cls-16" cx="365.3" cy="802.32" r="50"/></g><circle id="Ellipse_509" data-name="Ellipse 509" class="cls-17" cx="315.3" cy="852.32" r="50"/><g id="Group_616" data-name="Group 616"><circle id="Ellipse_510" data-name="Ellipse 510" class="cls-18" cx="265.3" cy="902.32" r="50"/><circle id="Ellipse_511" data-name="Ellipse 511" class="cls-18" cx="365.3" cy="902.32" r="50"/></g><circle id="Ellipse_512" data-name="Ellipse 512" class="cls-19" cx="315.3" cy="952.32" r="50"/><g id="Group_617" data-name="Group 617"><circle id="Ellipse_513" data-name="Ellipse 513" class="cls-20" cx="265.3" cy="1002.32" r="50"/><circle id="Ellipse_514" data-name="Ellipse 514" class="cls-20" cx="365.3" cy="1002.32" r="50"/></g><circle id="Ellipse_515" data-name="Ellipse 515" class="cls-21" cx="315.3" cy="1052.32" r="50"/></g><g id="Group_629" data-name="Group 629"><circle id="Ellipse_516" data-name="Ellipse 516" class="cls-1" cx="436.4" cy="63.84" r="50"/><g id="Group_619" data-name="Group 619"><circle id="Ellipse_517" data-name="Ellipse 517" class="cls-2" cx="386.4" cy="113.84" r="50"/><circle id="Ellipse_518" data-name="Ellipse 518" class="cls-2" cx="486.4" cy="113.84" r="50"/></g><circle id="Ellipse_519" data-name="Ellipse 519" class="cls-3" cx="436.4" cy="163.84" r="50"/><g id="Group_620" data-name="Group 620"><circle id="Ellipse_520" data-name="Ellipse 520" class="cls-4" cx="386.4" cy="213.84" r="50"/><circle id="Ellipse_521" data-name="Ellipse 521" class="cls-4" cx="486.4" cy="213.84" r="50"/></g><circle id="Ellipse_522" data-name="Ellipse 522" class="cls-5" cx="436.4" cy="263.84" r="50"/><g id="Group_621" data-name="Group 621"><circle id="Ellipse_523" data-name="Ellipse 523" class="cls-6" cx="386.4" cy="313.84" r="50"/><circle id="Ellipse_524" data-name="Ellipse 524" class="cls-6" cx="486.4" cy="313.84" r="50"/></g><circle id="Ellipse_525" data-name="Ellipse 525" class="cls-7" cx="436.4" cy="363.84" r="50"/><g id="Group_622" data-name="Group 622"><circle id="Ellipse_526" data-name="Ellipse 526" class="cls-8" cx="386.4" cy="413.84" r="50"/><circle id="Ellipse_527" data-name="Ellipse 527" class="cls-8" cx="486.4" cy="413.84" r="50"/></g><circle id="Ellipse_528" data-name="Ellipse 528" class="cls-9" cx="436.4" cy="463.84" r="50"/><g id="Group_623" data-name="Group 623"><circle id="Ellipse_529" data-name="Ellipse 529" class="cls-10" cx="386.4" cy="513.84" r="50"/><circle id="Ellipse_530" data-name="Ellipse 530" class="cls-10" cx="486.4" cy="513.84" r="50"/></g><circle id="Ellipse_531" data-name="Ellipse 531" class="cls-11" cx="436.4" cy="563.84" r="50"/><g id="Group_624" data-name="Group 624"><circle id="Ellipse_532" data-name="Ellipse 532" class="cls-12" cx="386.4" cy="613.84" r="50"/><circle id="Ellipse_533" data-name="Ellipse 533" class="cls-12" cx="486.4" cy="613.84" r="50"/></g><circle id="Ellipse_534" data-name="Ellipse 534" class="cls-13" cx="436.4" cy="663.84" r="50"/><g id="Group_625" data-name="Group 625"><circle id="Ellipse_535" data-name="Ellipse 535" class="cls-14" cx="386.4" cy="713.84" r="50"/><circle id="Ellipse_536" data-name="Ellipse 536" class="cls-14" cx="486.4" cy="713.84" r="50"/></g><circle id="Ellipse_537" data-name="Ellipse 537" class="cls-15" cx="436.4" cy="763.84" r="50"/><g id="Group_626" data-name="Group 626"><circle id="Ellipse_538" data-name="Ellipse 538" class="cls-16" cx="386.4" cy="813.84" r="50"/><circle id="Ellipse_539" data-name="Ellipse 539" class="cls-16" cx="486.4" cy="813.84" r="50"/></g><circle id="Ellipse_540" data-name="Ellipse 540" class="cls-17" cx="436.4" cy="863.84" r="50"/><g id="Group_627" data-name="Group 627"><circle id="Ellipse_541" data-name="Ellipse 541" class="cls-18" cx="386.4" cy="913.84" r="50"/><circle id="Ellipse_542" data-name="Ellipse 542" class="cls-18" cx="486.4" cy="913.84" r="50"/></g><circle id="Ellipse_543" data-name="Ellipse 543" class="cls-19" cx="436.4" cy="963.84" r="50"/><g id="Group_628" data-name="Group 628"><circle id="Ellipse_544" data-name="Ellipse 544" class="cls-20" cx="386.4" cy="1013.84" r="50"/><circle id="Ellipse_545" data-name="Ellipse 545" class="cls-20" cx="486.4" cy="1013.84" r="50"/></g><circle id="Ellipse_546" data-name="Ellipse 546" class="cls-21" cx="436.4" cy="1063.84" r="50"/></g><rect id="Rectangle_261" data-name="Rectangle 261" class="cls-1" x="405" y="47.68" width="100" height="1000"/><g id="Group_640" data-name="Group 640"><circle id="Ellipse_547" data-name="Ellipse 547" class="cls-1" cx="456.9" cy="54.6" r="50"/><g id="Group_630" data-name="Group 630"><circle id="Ellipse_548" data-name="Ellipse 548" class="cls-2" cx="406.9" cy="104.6" r="50"/><circle id="Ellipse_549" data-name="Ellipse 549" class="cls-2" cx="506.9" cy="104.6" r="50"/></g><circle id="Ellipse_550" data-name="Ellipse 550" class="cls-3" cx="456.9" cy="154.6" r="50"/><g id="Group_631" data-name="Group 631"><circle id="Ellipse_551" data-name="Ellipse 551" class="cls-4" cx="406.9" cy="204.6" r="50"/><circle id="Ellipse_552" data-name="Ellipse 552" class="cls-4" cx="506.9" cy="204.6" r="50"/></g><circle id="Ellipse_553" data-name="Ellipse 553" class="cls-5" cx="456.9" cy="254.6" r="50"/><g id="Group_632" data-name="Group 632"><circle id="Ellipse_554" data-name="Ellipse 554" class="cls-6" cx="406.9" cy="304.6" r="50"/><circle id="Ellipse_555" data-name="Ellipse 555" class="cls-6" cx="506.9" cy="304.6" r="50"/></g><circle id="Ellipse_556" data-name="Ellipse 556" class="cls-7" cx="456.9" cy="354.6" r="50"/><g id="Group_633" data-name="Group 633"><circle id="Ellipse_557" data-name="Ellipse 557" class="cls-8" cx="406.9" cy="404.6" r="50"/><circle id="Ellipse_558" data-name="Ellipse 558" class="cls-8" cx="506.9" cy="404.6" r="50"/></g><circle id="Ellipse_559" data-name="Ellipse 559" class="cls-9" cx="456.9" cy="454.6" r="50"/><g id="Group_634" data-name="Group 634"><circle id="Ellipse_560" data-name="Ellipse 560" class="cls-10" cx="406.9" cy="504.6" r="50"/><circle id="Ellipse_561" data-name="Ellipse 561" class="cls-10" cx="506.9" cy="504.6" r="50"/></g><circle id="Ellipse_562" data-name="Ellipse 562" class="cls-11" cx="456.9" cy="554.6" r="50"/><g id="Group_635" data-name="Group 635"><circle id="Ellipse_563" data-name="Ellipse 563" class="cls-12" cx="406.9" cy="604.6" r="50"/><circle id="Ellipse_564" data-name="Ellipse 564" class="cls-12" cx="506.9" cy="604.6" r="50"/></g><circle id="Ellipse_565" data-name="Ellipse 565" class="cls-13" cx="456.9" cy="654.6" r="50"/><g id="Group_636" data-name="Group 636"><circle id="Ellipse_566" data-name="Ellipse 566" class="cls-14" cx="406.9" cy="704.6" r="50"/><circle id="Ellipse_567" data-name="Ellipse 567" class="cls-14" cx="506.9" cy="704.6" r="50"/></g><circle id="Ellipse_568" data-name="Ellipse 568" class="cls-15" cx="456.9" cy="754.6" r="50"/><g id="Group_637" data-name="Group 637"><circle id="Ellipse_569" data-name="Ellipse 569" class="cls-16" cx="406.9" cy="804.6" r="50"/><circle id="Ellipse_570" data-name="Ellipse 570" class="cls-16" cx="506.9" cy="804.6" r="50"/></g><circle id="Ellipse_571" data-name="Ellipse 571" class="cls-17" cx="456.9" cy="854.6" r="50"/><g id="Group_638" data-name="Group 638"><circle id="Ellipse_572" data-name="Ellipse 572" class="cls-18" cx="406.9" cy="904.6" r="50"/><circle id="Ellipse_573" data-name="Ellipse 573" class="cls-18" cx="506.9" cy="904.6" r="50"/></g><circle id="Ellipse_574" data-name="Ellipse 574" class="cls-19" cx="456.9" cy="954.6" r="50"/><g id="Group_639" data-name="Group 639"><circle id="Ellipse_575" data-name="Ellipse 575" class="cls-20" cx="406.9" cy="1004.6" r="50"/><circle id="Ellipse_576" data-name="Ellipse 576" class="cls-20" cx="506.9" cy="1004.6" r="50"/></g><circle id="Ellipse_577" data-name="Ellipse 577" class="cls-21" cx="456.9" cy="1054.6" r="50"/></g><rect id="Rectangle_262" data-name="Rectangle 262" class="cls-1" x="527.9" y="54.6" width="100" height="1000"/><g id="Group_651" data-name="Group 651"><circle id="Ellipse_578" data-name="Ellipse 578" class="cls-1" cx="565.8" cy="50" r="50"/><g id="Group_641" data-name="Group 641"><circle id="Ellipse_579" data-name="Ellipse 579" class="cls-2" cx="515.8" cy="100" r="50"/><circle id="Ellipse_580" data-name="Ellipse 580" class="cls-2" cx="615.8" cy="100" r="50"/></g><circle id="Ellipse_581" data-name="Ellipse 581" class="cls-3" cx="565.8" cy="150" r="50"/><g id="Group_642" data-name="Group 642"><circle id="Ellipse_582" data-name="Ellipse 582" class="cls-4" cx="515.8" cy="200" r="50"/><circle id="Ellipse_583" data-name="Ellipse 583" class="cls-4" cx="615.8" cy="200" r="50"/></g><circle id="Ellipse_584" data-name="Ellipse 584" class="cls-5" cx="565.8" cy="250" r="50"/><g id="Group_643" data-name="Group 643"><circle id="Ellipse_585" data-name="Ellipse 585" class="cls-6" cx="515.8" cy="300" r="50"/><circle id="Ellipse_586" data-name="Ellipse 586" class="cls-6" cx="615.8" cy="300" r="50"/></g><circle id="Ellipse_587" data-name="Ellipse 587" class="cls-7" cx="565.8" cy="350" r="50"/><g id="Group_644" data-name="Group 644"><circle id="Ellipse_588" data-name="Ellipse 588" class="cls-8" cx="515.8" cy="400" r="50"/><circle id="Ellipse_589" data-name="Ellipse 589" class="cls-8" cx="615.8" cy="400" r="50"/></g><circle id="Ellipse_590" data-name="Ellipse 590" class="cls-9" cx="565.8" cy="450" r="50"/><g id="Group_645" data-name="Group 645"><circle id="Ellipse_591" data-name="Ellipse 591" class="cls-10" cx="515.8" cy="500" r="50"/><circle id="Ellipse_592" data-name="Ellipse 592" class="cls-10" cx="615.8" cy="500" r="50"/></g><circle id="Ellipse_593" data-name="Ellipse 593" class="cls-11" cx="565.8" cy="550" r="50"/><g id="Group_646" data-name="Group 646"><circle id="Ellipse_594" data-name="Ellipse 594" class="cls-12" cx="515.8" cy="600" r="50"/><circle id="Ellipse_595" data-name="Ellipse 595" class="cls-12" cx="615.8" cy="600" r="50"/></g><circle id="Ellipse_596" data-name="Ellipse 596" class="cls-13" cx="565.8" cy="650" r="50"/><g id="Group_647" data-name="Group 647"><circle id="Ellipse_597" data-name="Ellipse 597" class="cls-14" cx="515.8" cy="700" r="50"/><circle id="Ellipse_598" data-name="Ellipse 598" class="cls-14" cx="615.8" cy="700" r="50"/></g><circle id="Ellipse_599" data-name="Ellipse 599" class="cls-15" cx="565.8" cy="750" r="50"/><g id="Group_648" data-name="Group 648"><circle id="Ellipse_600" data-name="Ellipse 600" class="cls-16" cx="515.8" cy="800" r="50"/><circle id="Ellipse_601" data-name="Ellipse 601" class="cls-16" cx="615.8" cy="800" r="50"/></g><circle id="Ellipse_602" data-name="Ellipse 602" class="cls-17" cx="565.8" cy="850" r="50"/><g id="Group_649" data-name="Group 649"><circle id="Ellipse_603" data-name="Ellipse 603" class="cls-18" cx="515.8" cy="900" r="50"/><circle id="Ellipse_604" data-name="Ellipse 604" class="cls-18" cx="615.8" cy="900" r="50"/></g><circle id="Ellipse_605" data-name="Ellipse 605" class="cls-19" cx="565.8" cy="950" r="50"/><g id="Group_650" data-name="Group 650"><circle id="Ellipse_606" data-name="Ellipse 606" class="cls-20" cx="515.8" cy="1000" r="50"/><circle id="Ellipse_607" data-name="Ellipse 607" class="cls-20" cx="615.8" cy="1000" r="50"/></g><circle id="Ellipse_608" data-name="Ellipse 608" class="cls-21" cx="565.8" cy="1050" r="50"/></g><rect id="Rectangle_263" data-name="Rectangle 263" class="cls-1" x="638.4" y="54.6" width="100" height="1000"/><g id="Group_662" data-name="Group 662"><circle id="Ellipse_609" data-name="Ellipse 609" class="cls-1" cx="672.2" cy="50" r="50"/><g id="Group_652" data-name="Group 652"><circle id="Ellipse_610" data-name="Ellipse 610" class="cls-2" cx="622.2" cy="100" r="50"/><circle id="Ellipse_611" data-name="Ellipse 611" class="cls-2" cx="722.2" cy="100" r="50"/></g><circle id="Ellipse_612" data-name="Ellipse 612" class="cls-3" cx="672.2" cy="150" r="50"/><g id="Group_653" data-name="Group 653"><circle id="Ellipse_613" data-name="Ellipse 613" class="cls-4" cx="622.2" cy="200" r="50"/><circle id="Ellipse_614" data-name="Ellipse 614" class="cls-4" cx="722.2" cy="200" r="50"/></g><circle id="Ellipse_615" data-name="Ellipse 615" class="cls-5" cx="672.2" cy="250" r="50"/><g id="Group_654" data-name="Group 654"><circle id="Ellipse_616" data-name="Ellipse 616" class="cls-6" cx="622.2" cy="300" r="50"/><circle id="Ellipse_617" data-name="Ellipse 617" class="cls-6" cx="722.2" cy="300" r="50"/></g><circle id="Ellipse_618" data-name="Ellipse 618" class="cls-7" cx="672.2" cy="350" r="50"/><g id="Group_655" data-name="Group 655"><circle id="Ellipse_619" data-name="Ellipse 619" class="cls-8" cx="622.2" cy="400" r="50"/><circle id="Ellipse_620" data-name="Ellipse 620" class="cls-8" cx="722.2" cy="400" r="50"/></g><circle id="Ellipse_621" data-name="Ellipse 621" class="cls-9" cx="672.2" cy="450" r="50"/><g id="Group_656" data-name="Group 656"><circle id="Ellipse_622" data-name="Ellipse 622" class="cls-10" cx="622.2" cy="500" r="50"/><circle id="Ellipse_623" data-name="Ellipse 623" class="cls-10" cx="722.2" cy="500" r="50"/></g><circle id="Ellipse_624" data-name="Ellipse 624" class="cls-11" cx="672.2" cy="550" r="50"/><g id="Group_657" data-name="Group 657"><circle id="Ellipse_625" data-name="Ellipse 625" class="cls-12" cx="622.2" cy="600" r="50"/><circle id="Ellipse_626" data-name="Ellipse 626" class="cls-12" cx="722.2" cy="600" r="50"/></g><circle id="Ellipse_627" data-name="Ellipse 627" class="cls-13" cx="672.2" cy="650" r="50"/><g id="Group_658" data-name="Group 658"><circle id="Ellipse_628" data-name="Ellipse 628" class="cls-14" cx="622.2" cy="700" r="50"/><circle id="Ellipse_629" data-name="Ellipse 629" class="cls-14" cx="722.2" cy="700" r="50"/></g><circle id="Ellipse_630" data-name="Ellipse 630" class="cls-15" cx="672.2" cy="750" r="50"/><g id="Group_659" data-name="Group 659"><circle id="Ellipse_631" data-name="Ellipse 631" class="cls-16" cx="622.2" cy="800" r="50"/><circle id="Ellipse_632" data-name="Ellipse 632" class="cls-16" cx="722.2" cy="800" r="50"/></g><circle id="Ellipse_633" data-name="Ellipse 633" class="cls-17" cx="672.2" cy="850" r="50"/><g id="Group_660" data-name="Group 660"><circle id="Ellipse_634" data-name="Ellipse 634" class="cls-18" cx="622.2" cy="900" r="50"/><circle id="Ellipse_635" data-name="Ellipse 635" class="cls-18" cx="722.2" cy="900" r="50"/></g><circle id="Ellipse_636" data-name="Ellipse 636" class="cls-19" cx="672.2" cy="950" r="50"/><g id="Group_661" data-name="Group 661"><circle id="Ellipse_637" data-name="Ellipse 637" class="cls-20" cx="622.2" cy="1000" r="50"/><circle id="Ellipse_638" data-name="Ellipse 638" class="cls-20" cx="722.2" cy="1000" r="50"/></g><circle id="Ellipse_639" data-name="Ellipse 639" class="cls-21" cx="672.2" cy="1050" r="50"/></g><g id="Group_673" data-name="Group 673"><circle id="Ellipse_640" data-name="Ellipse 640" class="cls-1" cx="791.4" cy="54.6" r="50"/><g id="Group_663" data-name="Group 663"><circle id="Ellipse_641" data-name="Ellipse 641" class="cls-2" cx="741.4" cy="104.6" r="50"/><circle id="Ellipse_642" data-name="Ellipse 642" class="cls-2" cx="841.4" cy="104.6" r="50"/></g><circle id="Ellipse_643" data-name="Ellipse 643" class="cls-3" cx="791.4" cy="154.6" r="50"/><g id="Group_664" data-name="Group 664"><circle id="Ellipse_644" data-name="Ellipse 644" class="cls-4" cx="741.4" cy="204.6" r="50"/><circle id="Ellipse_645" data-name="Ellipse 645" class="cls-4" cx="841.4" cy="204.6" r="50"/></g><circle id="Ellipse_646" data-name="Ellipse 646" class="cls-5" cx="791.4" cy="254.6" r="50"/><g id="Group_665" data-name="Group 665"><circle id="Ellipse_647" data-name="Ellipse 647" class="cls-6" cx="741.4" cy="304.6" r="50"/><circle id="Ellipse_648" data-name="Ellipse 648" class="cls-6" cx="841.4" cy="304.6" r="50"/></g><circle id="Ellipse_649" data-name="Ellipse 649" class="cls-7" cx="791.4" cy="354.6" r="50"/><g id="Group_666" data-name="Group 666"><circle id="Ellipse_650" data-name="Ellipse 650" class="cls-8" cx="741.4" cy="404.6" r="50"/><circle id="Ellipse_651" data-name="Ellipse 651" class="cls-8" cx="841.4" cy="404.6" r="50"/></g><circle id="Ellipse_652" data-name="Ellipse 652" class="cls-9" cx="791.4" cy="454.6" r="50"/><g id="Group_667" data-name="Group 667"><circle id="Ellipse_653" data-name="Ellipse 653" class="cls-10" cx="741.4" cy="504.6" r="50"/><circle id="Ellipse_654" data-name="Ellipse 654" class="cls-10" cx="841.4" cy="504.6" r="50"/></g><circle id="Ellipse_655" data-name="Ellipse 655" class="cls-11" cx="791.4" cy="554.6" r="50"/><g id="Group_668" data-name="Group 668"><circle id="Ellipse_656" data-name="Ellipse 656" class="cls-12" cx="741.4" cy="604.6" r="50"/><circle id="Ellipse_657" data-name="Ellipse 657" class="cls-12" cx="841.4" cy="604.6" r="50"/></g><circle id="Ellipse_658" data-name="Ellipse 658" class="cls-13" cx="791.4" cy="654.6" r="50"/><g id="Group_669" data-name="Group 669"><circle id="Ellipse_659" data-name="Ellipse 659" class="cls-14" cx="741.4" cy="704.6" r="50"/><circle id="Ellipse_660" data-name="Ellipse 660" class="cls-14" cx="841.4" cy="704.6" r="50"/></g><circle id="Ellipse_661" data-name="Ellipse 661" class="cls-15" cx="791.4" cy="754.6" r="50"/><g id="Group_670" data-name="Group 670"><circle id="Ellipse_662" data-name="Ellipse 662" class="cls-16" cx="741.4" cy="804.6" r="50"/><circle id="Ellipse_663" data-name="Ellipse 663" class="cls-16" cx="841.4" cy="804.6" r="50"/></g><circle id="Ellipse_664" data-name="Ellipse 664" class="cls-17" cx="791.4" cy="854.6" r="50"/><g id="Group_671" data-name="Group 671"><circle id="Ellipse_665" data-name="Ellipse 665" class="cls-18" cx="741.4" cy="904.6" r="50"/><circle id="Ellipse_666" data-name="Ellipse 666" class="cls-18" cx="841.4" cy="904.6" r="50"/></g><circle id="Ellipse_667" data-name="Ellipse 667" class="cls-19" cx="791.4" cy="954.6" r="50"/><g id="Group_672" data-name="Group 672"><circle id="Ellipse_668" data-name="Ellipse 668" class="cls-20" cx="741.4" cy="1004.6" r="50"/><circle id="Ellipse_669" data-name="Ellipse 669" class="cls-20" cx="841.4" cy="1004.6" r="50"/></g><circle id="Ellipse_670" data-name="Ellipse 670" class="cls-21" cx="791.4" cy="1054.6" r="50"/></g></g></g></g></svg>