<svg xmlns="http://www.w3.org/2000/svg" viewBox="0 0 2000 1500"><rect width="2000" height="1500" fill="#000"/><defs><circle id="a" r="315" fill="none" stroke="#D60" stroke-width="5" vector-effect="non-scaling-stroke"/><use id="f" stroke-dasharray="100 100 100 9999" href="#a"/><use id="b" stroke-dasharray="250 250 250 250 250 9999" href="#a"/><use id="e" stroke-dasharray="1000 500 1000 500 9999" href="#a"/><use id="g" stroke-dasharray="1500 9999" href="#a"/><use id="h" stroke-dasharray="2000 500 500 9999" href="#a"/><use id="j" stroke-dasharray="800 800 800 800 800 9999" href="#a"/><use id="k" stroke-dasharray="1200 1200 1200 1200 1200 9999" href="#a"/><use id="l" stroke-dasharray="1600 1600 1600 1600 1600 9999" href="#a"/></defs><g><g transform="translate(1000 750) rotate(0 0 0)"><circle r="10" fill="#D60"/><g transform="rotate(0 0 0)"><use href="#f" transform="scale(.1) rotate(50 0 0)"/><use href="#f" transform="scale(.2) rotate(100 0 0)"/><use href="#f" transform="scale(.3) rotate(150 0 0)"/></g><g transform="rotate(0 0 0)"><use href="#b" transform="scale(.4) rotate(200 0 0)"/><use href="#z" transform="scale(.5) rotate(250 0 0)"/></g><g id="z"><g transform="rotate(0 0 0) rotate(0 0 0)"><use href="#b"/><use href="#b" transform="scale(1.2) rotate(90 0 0)"/><use href="#b" transform="scale(1.4) rotate(60 0 0)"/><use href="#e" transform="scale(1.6) rotate(120 0 0)"/><use href="#e" transform="scale(1.8) rotate(30 0 0)"/></g></g><g id="y"><g transform="rotate(0 0 0) rotate(0 0 0)"><use href="#e" transform="scale(1.1) rotate(20 0 0)"/><use href="#g" transform="scale(1.3) rotate(-40 0 0)"/><use href="#g" transform="scale(1.5) rotate(60 0 0)"/><use href="#h" transform="scale(1.7) rotate(-80 0 0)"/><use href="#j" transform="scale(1.9) rotate(100 0 0)"/></g></g><g transform="rotate(0 0 0)"><g transform="rotate(0 0 0)"><g transform="rotate(0 0 0)"><use href="#h" transform="scale(2) rotate(60 0 0)"/><use href="#j" transform="scale(2.1) rotate(120 0 0)"/><use href="#j" transform="scale(2.3) rotate(180 0 0)"/><use href="#h" transform="scale(2.4) rotate(240 0 0)"/><use href="#j" transform="scale(2.5) rotate(300 0 0)"/></g><use href="#y" transform="scale(2) rotate(180 0 0)"/><use href="#j" transform="scale(2.7)"/><use href="#j" transform="scale(2.8) rotate(45 0 0)"/><use href="#j" transform="scale(2.9) rotate(90 0 0)"/><use href="#k" transform="scale(3.1) rotate(135 0 0)"/><use href="#k" transform="scale(3.2) rotate(180 0 0)"/></g><use href="#k" transform="scale(3.3) rotate(225 0 0)"/><use href="#k" transform="scale(3.5) rotate(270 0 0)"/><use href="#k" transform="scale(3.6) rotate(315 0 0)"/><use href="#k" transform="scale(3.7)"/><use href="#k" transform="scale(3.9) rotate(75 0 0)"/></g></g></g></svg>