<?xml version="1.0" encoding="utf-8"?>
<!-- Generator: Adobe Illustrator 23.0.2, SVG Export Plug-In . SVG Version: 6.00 Build 0)  -->
<svg version="1.1" id="Layer_1" xmlns="http://www.w3.org/2000/svg" xmlns:xlink="http://www.w3.org/1999/xlink" x="0px" y="0px"
	 viewBox="0 0 100 1000" style="enable-background:new 0 0 100 1000;" xml:space="preserve">
<style type="text/css">
	.st0{fill:#B4003A;}
	.st1{fill:#B80A3E;}
	.st2{fill:#BC1342;}
	.st3{fill:#C01A46;}
	.st4{fill:#C4204A;}
	.st5{fill:#C7264F;}
	.st6{fill:#CB2B53;}
	.st7{fill:#CF2F57;}
	.st8{fill:#D3345C;}
	.st9{fill:#D73960;}
	.st10{fill:#DA3D64;}
	.st11{fill:#DE4169;}
	.st12{fill:#E2456D;}
	.st13{fill:#E54A71;}
	.st14{fill:#E94E76;}
	.st15{fill:#ED527A;}
	.st16{fill:#F1567F;}
	.st17{fill:#F45A83;}
	.st18{fill:#F85E88;}
	.st19{fill:#FB628C;}
	.st20{fill:#FF6691;}
</style>
<rect class="st0" width="100" height="1000"/>
<g>
	<circle class="st0" cx="50" cy="0" r="50"/>
	<g>
		<circle class="st1" cx="0" cy="50" r="50"/>
		<circle class="st1" cx="100" cy="50" r="50"/>
	</g>
	<circle class="st2" cx="50" cy="100" r="50"/>
	<g>
		<circle class="st3" cx="0" cy="150" r="50"/>
		<circle class="st3" cx="100" cy="150" r="50"/>
	</g>
	<circle class="st4" cx="50" cy="200" r="50"/>
	<g>
		<circle class="st5" cx="0" cy="250" r="50"/>
		<circle class="st5" cx="100" cy="250" r="50"/>
	</g>
	<circle class="st6" cx="50" cy="300" r="50"/>
	<g>
		<circle class="st7" cx="0" cy="350" r="50"/>
		<circle class="st7" cx="100" cy="350" r="50"/>
	</g>
	<circle class="st8" cx="50" cy="400" r="50"/>
	<g>
		<circle class="st9" cx="0" cy="450" r="50"/>
		<circle class="st9" cx="100" cy="450" r="50"/>
	</g>
	<circle class="st10" cx="50" cy="500" r="50"/>
	<g>
		<circle class="st11" cx="0" cy="550" r="50"/>
		<circle class="st11" cx="100" cy="550" r="50"/>
	</g>
	<circle class="st12" cx="50" cy="600" r="50"/>
	<g>
		<circle class="st13" cx="0" cy="650" r="50"/>
		<circle class="st13" cx="100" cy="650" r="50"/>
	</g>
	<circle class="st14" cx="50" cy="700" r="50"/>
	<g>
		<circle class="st15" cx="0" cy="750" r="50"/>
		<circle class="st15" cx="100" cy="750" r="50"/>
	</g>
	<circle class="st16" cx="50" cy="800" r="50"/>
	<g>
		<circle class="st17" cx="0" cy="850" r="50"/>
		<circle class="st17" cx="100" cy="850" r="50"/>
	</g>
	<circle class="st18" cx="50" cy="900" r="50"/>
	<g>
		<circle class="st19" cx="0" cy="950" r="50"/>
		<circle class="st19" cx="100" cy="950" r="50"/>
	</g>
	<circle class="st20" cx="50" cy="1000" r="50"/>
</g>
<rect x="121" class="st0" width="100" height="1000"/>
<g>
	<circle class="st0" cx="158.9" cy="-4.6" r="50"/>
	<g>
		<circle class="st1" cx="108.9" cy="45.4" r="50"/>
		<circle class="st1" cx="208.9" cy="45.4" r="50"/>
	</g>
	<circle class="st2" cx="158.9" cy="95.4" r="50"/>
	<g>
		<circle class="st3" cx="108.9" cy="145.4" r="50"/>
		<circle class="st3" cx="208.9" cy="145.4" r="50"/>
	</g>
	<circle class="st4" cx="158.9" cy="195.4" r="50"/>
	<g>
		<circle class="st5" cx="108.9" cy="245.4" r="50"/>
		<circle class="st5" cx="208.9" cy="245.4" r="50"/>
	</g>
	<circle class="st6" cx="158.9" cy="295.4" r="50"/>
	<g>
		<circle class="st7" cx="108.9" cy="345.4" r="50"/>
		<circle class="st7" cx="208.9" cy="345.4" r="50"/>
	</g>
	<circle class="st8" cx="158.9" cy="395.4" r="50"/>
	<g>
		<circle class="st9" cx="108.9" cy="445.4" r="50"/>
		<circle class="st9" cx="208.9" cy="445.4" r="50"/>
	</g>
	<circle class="st10" cx="158.9" cy="495.4" r="50"/>
	<g>
		<circle class="st11" cx="108.9" cy="545.4" r="50"/>
		<circle class="st11" cx="208.9" cy="545.4" r="50"/>
	</g>
	<circle class="st12" cx="158.9" cy="595.4" r="50"/>
	<g>
		<circle class="st13" cx="108.9" cy="645.4" r="50"/>
		<circle class="st13" cx="208.9" cy="645.4" r="50"/>
	</g>
	<circle class="st14" cx="158.9" cy="695.4" r="50"/>
	<g>
		<circle class="st15" cx="108.9" cy="745.4" r="50"/>
		<circle class="st15" cx="208.9" cy="745.4" r="50"/>
	</g>
	<circle class="st16" cx="158.9" cy="795.4" r="50"/>
	<g>
		<circle class="st17" cx="108.9" cy="845.4" r="50"/>
		<circle class="st17" cx="208.9" cy="845.4" r="50"/>
	</g>
	<circle class="st18" cx="158.9" cy="895.4" r="50"/>
	<g>
		<circle class="st19" cx="108.9" cy="945.4" r="50"/>
		<circle class="st19" cx="208.9" cy="945.4" r="50"/>
	</g>
	<circle class="st20" cx="158.9" cy="995.4" r="50"/>
</g>
<rect x="231.5" class="st0" width="100" height="1000"/>
<g>
	<circle class="st0" cx="265.3" cy="-4.6" r="50"/>
	<g>
		<circle class="st1" cx="215.3" cy="45.4" r="50"/>
		<circle class="st1" cx="315.3" cy="45.4" r="50"/>
	</g>
	<circle class="st2" cx="265.3" cy="95.4" r="50"/>
	<g>
		<circle class="st3" cx="215.3" cy="145.4" r="50"/>
		<circle class="st3" cx="315.3" cy="145.4" r="50"/>
	</g>
	<circle class="st4" cx="265.3" cy="195.4" r="50"/>
	<g>
		<circle class="st5" cx="215.3" cy="245.4" r="50"/>
		<circle class="st5" cx="315.3" cy="245.4" r="50"/>
	</g>
	<circle class="st6" cx="265.3" cy="295.4" r="50"/>
	<g>
		<circle class="st7" cx="215.3" cy="345.4" r="50"/>
		<circle class="st7" cx="315.3" cy="345.4" r="50"/>
	</g>
	<circle class="st8" cx="265.3" cy="395.4" r="50"/>
	<g>
		<circle class="st9" cx="215.3" cy="445.4" r="50"/>
		<circle class="st9" cx="315.3" cy="445.4" r="50"/>
	</g>
	<circle class="st10" cx="265.3" cy="495.4" r="50"/>
	<g>
		<circle class="st11" cx="215.3" cy="545.4" r="50"/>
		<circle class="st11" cx="315.3" cy="545.4" r="50"/>
	</g>
	<circle class="st12" cx="265.3" cy="595.4" r="50"/>
	<g>
		<circle class="st13" cx="215.3" cy="645.4" r="50"/>
		<circle class="st13" cx="315.3" cy="645.4" r="50"/>
	</g>
	<circle class="st14" cx="265.3" cy="695.4" r="50"/>
	<g>
		<circle class="st15" cx="215.3" cy="745.4" r="50"/>
		<circle class="st15" cx="315.3" cy="745.4" r="50"/>
	</g>
	<circle class="st16" cx="265.3" cy="795.4" r="50"/>
	<g>
		<circle class="st17" cx="215.3" cy="845.4" r="50"/>
		<circle class="st17" cx="315.3" cy="845.4" r="50"/>
	</g>
	<circle class="st18" cx="265.3" cy="895.4" r="50"/>
	<g>
		<circle class="st19" cx="215.3" cy="945.4" r="50"/>
		<circle class="st19" cx="315.3" cy="945.4" r="50"/>
	</g>
	<circle class="st20" cx="265.3" cy="995.4" r="50"/>
</g>
<g>
	<circle class="st0" cx="386.4" cy="6.9" r="50"/>
	<g>
		<circle class="st1" cx="336.4" cy="56.9" r="50"/>
		<circle class="st1" cx="436.4" cy="56.9" r="50"/>
	</g>
	<circle class="st2" cx="386.4" cy="106.9" r="50"/>
	<g>
		<circle class="st3" cx="336.4" cy="156.9" r="50"/>
		<circle class="st3" cx="436.4" cy="156.9" r="50"/>
	</g>
	<circle class="st4" cx="386.4" cy="206.9" r="50"/>
	<g>
		<circle class="st5" cx="336.4" cy="256.9" r="50"/>
		<circle class="st5" cx="436.4" cy="256.9" r="50"/>
	</g>
	<circle class="st6" cx="386.4" cy="306.9" r="50"/>
	<g>
		<circle class="st7" cx="336.4" cy="356.9" r="50"/>
		<circle class="st7" cx="436.4" cy="356.9" r="50"/>
	</g>
	<circle class="st8" cx="386.4" cy="406.9" r="50"/>
	<g>
		<circle class="st9" cx="336.4" cy="456.9" r="50"/>
		<circle class="st9" cx="436.4" cy="456.9" r="50"/>
	</g>
	<circle class="st10" cx="386.4" cy="506.9" r="50"/>
	<g>
		<circle class="st11" cx="336.4" cy="556.9" r="50"/>
		<circle class="st11" cx="436.4" cy="556.9" r="50"/>
	</g>
	<circle class="st12" cx="386.4" cy="606.9" r="50"/>
	<g>
		<circle class="st13" cx="336.4" cy="656.9" r="50"/>
		<circle class="st13" cx="436.4" cy="656.9" r="50"/>
	</g>
	<circle class="st14" cx="386.4" cy="706.9" r="50"/>
	<g>
		<circle class="st15" cx="336.4" cy="756.9" r="50"/>
		<circle class="st15" cx="436.4" cy="756.9" r="50"/>
	</g>
	<circle class="st16" cx="386.4" cy="806.9" r="50"/>
	<g>
		<circle class="st17" cx="336.4" cy="856.9" r="50"/>
		<circle class="st17" cx="436.4" cy="856.9" r="50"/>
	</g>
	<circle class="st18" cx="386.4" cy="906.9" r="50"/>
	<g>
		<circle class="st19" cx="336.4" cy="956.9" r="50"/>
		<circle class="st19" cx="436.4" cy="956.9" r="50"/>
	</g>
	<circle class="st20" cx="386.4" cy="1006.9" r="50"/>
</g>
<rect x="355" y="-9.2" class="st0" width="100" height="1000"/>
<g>
	<circle class="st0" cx="406.9" cy="-2.3" r="50"/>
	<g>
		<circle class="st1" cx="356.9" cy="47.7" r="50"/>
		<circle class="st1" cx="456.9" cy="47.7" r="50"/>
	</g>
	<circle class="st2" cx="406.9" cy="97.7" r="50"/>
	<g>
		<circle class="st3" cx="356.9" cy="147.7" r="50"/>
		<circle class="st3" cx="456.9" cy="147.7" r="50"/>
	</g>
	<circle class="st4" cx="406.9" cy="197.7" r="50"/>
	<g>
		<circle class="st5" cx="356.9" cy="247.7" r="50"/>
		<circle class="st5" cx="456.9" cy="247.7" r="50"/>
	</g>
	<circle class="st6" cx="406.9" cy="297.7" r="50"/>
	<g>
		<circle class="st7" cx="356.9" cy="347.7" r="50"/>
		<circle class="st7" cx="456.9" cy="347.7" r="50"/>
	</g>
	<circle class="st8" cx="406.9" cy="397.7" r="50"/>
	<g>
		<circle class="st9" cx="356.9" cy="447.7" r="50"/>
		<circle class="st9" cx="456.9" cy="447.7" r="50"/>
	</g>
	<circle class="st10" cx="406.9" cy="497.7" r="50"/>
	<g>
		<circle class="st11" cx="356.9" cy="547.7" r="50"/>
		<circle class="st11" cx="456.9" cy="547.7" r="50"/>
	</g>
	<circle class="st12" cx="406.9" cy="597.7" r="50"/>
	<g>
		<circle class="st13" cx="356.9" cy="647.7" r="50"/>
		<circle class="st13" cx="456.9" cy="647.7" r="50"/>
	</g>
	<circle class="st14" cx="406.9" cy="697.7" r="50"/>
	<g>
		<circle class="st15" cx="356.9" cy="747.7" r="50"/>
		<circle class="st15" cx="456.9" cy="747.7" r="50"/>
	</g>
	<circle class="st16" cx="406.9" cy="797.7" r="50"/>
	<g>
		<circle class="st17" cx="356.9" cy="847.7" r="50"/>
		<circle class="st17" cx="456.9" cy="847.7" r="50"/>
	</g>
	<circle class="st18" cx="406.9" cy="897.7" r="50"/>
	<g>
		<circle class="st19" cx="356.9" cy="947.7" r="50"/>
		<circle class="st19" cx="456.9" cy="947.7" r="50"/>
	</g>
	<circle class="st20" cx="406.9" cy="997.7" r="50"/>
</g>
<rect x="477.9" y="-2.3" class="st0" width="100" height="1000"/>
<g>
	<circle class="st0" cx="515.8" cy="-6.9" r="50"/>
	<g>
		<circle class="st1" cx="465.8" cy="43.1" r="50"/>
		<circle class="st1" cx="565.8" cy="43.1" r="50"/>
	</g>
	<circle class="st2" cx="515.8" cy="93.1" r="50"/>
	<g>
		<circle class="st3" cx="465.8" cy="143.1" r="50"/>
		<circle class="st3" cx="565.8" cy="143.1" r="50"/>
	</g>
	<circle class="st4" cx="515.8" cy="193.1" r="50"/>
	<g>
		<circle class="st5" cx="465.8" cy="243.1" r="50"/>
		<circle class="st5" cx="565.8" cy="243.1" r="50"/>
	</g>
	<circle class="st6" cx="515.8" cy="293.1" r="50"/>
	<g>
		<circle class="st7" cx="465.8" cy="343.1" r="50"/>
		<circle class="st7" cx="565.8" cy="343.1" r="50"/>
	</g>
	<circle class="st8" cx="515.8" cy="393.1" r="50"/>
	<g>
		<circle class="st9" cx="465.8" cy="443.1" r="50"/>
		<circle class="st9" cx="565.8" cy="443.1" r="50"/>
	</g>
	<circle class="st10" cx="515.8" cy="493.1" r="50"/>
	<g>
		<circle class="st11" cx="465.8" cy="543.1" r="50"/>
		<circle class="st11" cx="565.8" cy="543.1" r="50"/>
	</g>
	<circle class="st12" cx="515.8" cy="593.1" r="50"/>
	<g>
		<circle class="st13" cx="465.8" cy="643.1" r="50"/>
		<circle class="st13" cx="565.8" cy="643.1" r="50"/>
	</g>
	<circle class="st14" cx="515.8" cy="693.1" r="50"/>
	<g>
		<circle class="st15" cx="465.8" cy="743.1" r="50"/>
		<circle class="st15" cx="565.8" cy="743.1" r="50"/>
	</g>
	<circle class="st16" cx="515.8" cy="793.1" r="50"/>
	<g>
		<circle class="st17" cx="465.8" cy="843.1" r="50"/>
		<circle class="st17" cx="565.8" cy="843.1" r="50"/>
	</g>
	<circle class="st18" cx="515.8" cy="893.1" r="50"/>
	<g>
		<circle class="st19" cx="465.8" cy="943.1" r="50"/>
		<circle class="st19" cx="565.8" cy="943.1" r="50"/>
	</g>
	<circle class="st20" cx="515.8" cy="993.1" r="50"/>
</g>
<rect x="588.4" y="-2.3" class="st0" width="100" height="1000"/>
<g>
	<circle class="st0" cx="622.2" cy="-6.9" r="50"/>
	<g>
		<circle class="st1" cx="572.2" cy="43.1" r="50"/>
		<circle class="st1" cx="672.2" cy="43.1" r="50"/>
	</g>
	<circle class="st2" cx="622.2" cy="93.1" r="50"/>
	<g>
		<circle class="st3" cx="572.2" cy="143.1" r="50"/>
		<circle class="st3" cx="672.2" cy="143.1" r="50"/>
	</g>
	<circle class="st4" cx="622.2" cy="193.1" r="50"/>
	<g>
		<circle class="st5" cx="572.2" cy="243.1" r="50"/>
		<circle class="st5" cx="672.2" cy="243.1" r="50"/>
	</g>
	<circle class="st6" cx="622.2" cy="293.1" r="50"/>
	<g>
		<circle class="st7" cx="572.2" cy="343.1" r="50"/>
		<circle class="st7" cx="672.2" cy="343.1" r="50"/>
	</g>
	<circle class="st8" cx="622.2" cy="393.1" r="50"/>
	<g>
		<circle class="st9" cx="572.2" cy="443.1" r="50"/>
		<circle class="st9" cx="672.2" cy="443.1" r="50"/>
	</g>
	<circle class="st10" cx="622.2" cy="493.1" r="50"/>
	<g>
		<circle class="st11" cx="572.2" cy="543.1" r="50"/>
		<circle class="st11" cx="672.2" cy="543.1" r="50"/>
	</g>
	<circle class="st12" cx="622.2" cy="593.1" r="50"/>
	<g>
		<circle class="st13" cx="572.2" cy="643.1" r="50"/>
		<circle class="st13" cx="672.2" cy="643.1" r="50"/>
	</g>
	<circle class="st14" cx="622.2" cy="693.1" r="50"/>
	<g>
		<circle class="st15" cx="572.2" cy="743.1" r="50"/>
		<circle class="st15" cx="672.2" cy="743.1" r="50"/>
	</g>
	<circle class="st16" cx="622.2" cy="793.1" r="50"/>
	<g>
		<circle class="st17" cx="572.2" cy="843.1" r="50"/>
		<circle class="st17" cx="672.2" cy="843.1" r="50"/>
	</g>
	<circle class="st18" cx="622.2" cy="893.1" r="50"/>
	<g>
		<circle class="st19" cx="572.2" cy="943.1" r="50"/>
		<circle class="st19" cx="672.2" cy="943.1" r="50"/>
	</g>
	<circle class="st20" cx="622.2" cy="993.1" r="50"/>
</g>
<g>
	<circle class="st0" cx="741.4" cy="-2.3" r="50"/>
	<g>
		<circle class="st1" cx="691.4" cy="47.7" r="50"/>
		<circle class="st1" cx="791.4" cy="47.7" r="50"/>
	</g>
	<circle class="st2" cx="741.4" cy="97.7" r="50"/>
	<g>
		<circle class="st3" cx="691.4" cy="147.7" r="50"/>
		<circle class="st3" cx="791.4" cy="147.7" r="50"/>
	</g>
	<circle class="st4" cx="741.4" cy="197.7" r="50"/>
	<g>
		<circle class="st5" cx="691.4" cy="247.7" r="50"/>
		<circle class="st5" cx="791.4" cy="247.7" r="50"/>
	</g>
	<circle class="st6" cx="741.4" cy="297.7" r="50"/>
	<g>
		<circle class="st7" cx="691.4" cy="347.7" r="50"/>
		<circle class="st7" cx="791.4" cy="347.7" r="50"/>
	</g>
	<circle class="st8" cx="741.4" cy="397.7" r="50"/>
	<g>
		<circle class="st9" cx="691.4" cy="447.7" r="50"/>
		<circle class="st9" cx="791.4" cy="447.7" r="50"/>
	</g>
	<circle class="st10" cx="741.4" cy="497.7" r="50"/>
	<g>
		<circle class="st11" cx="691.4" cy="547.7" r="50"/>
		<circle class="st11" cx="791.4" cy="547.7" r="50"/>
	</g>
	<circle class="st12" cx="741.4" cy="597.7" r="50"/>
	<g>
		<circle class="st13" cx="691.4" cy="647.7" r="50"/>
		<circle class="st13" cx="791.4" cy="647.7" r="50"/>
	</g>
	<circle class="st14" cx="741.4" cy="697.7" r="50"/>
	<g>
		<circle class="st15" cx="691.4" cy="747.7" r="50"/>
		<circle class="st15" cx="791.4" cy="747.7" r="50"/>
	</g>
	<circle class="st16" cx="741.4" cy="797.7" r="50"/>
	<g>
		<circle class="st17" cx="691.4" cy="847.7" r="50"/>
		<circle class="st17" cx="791.4" cy="847.7" r="50"/>
	</g>
	<circle class="st18" cx="741.4" cy="897.7" r="50"/>
	<g>
		<circle class="st19" cx="691.4" cy="947.7" r="50"/>
		<circle class="st19" cx="791.4" cy="947.7" r="50"/>
	</g>
	<circle class="st20" cx="741.4" cy="997.7" r="50"/>
</g>
<polygon class="st0" points="-406.4,-126.2 -572.8,-126.2 -656,17.9 -572.8,162.1 -406.4,162.1 -323.2,17.9 "/>
</svg>
