<?xml version="1.0" encoding="utf-8"?>
<!-- Generator: Adobe Illustrator 23.0.2, SVG Export Plug-In . SVG Version: 6.00 Build 0)  -->
<svg version="1.1" id="Layer_1" xmlns="http://www.w3.org/2000/svg" xmlns:xlink="http://www.w3.org/1999/xlink" x="0px" y="0px"
	 viewBox="0 0 100 1000" style="enable-background:new 0 0 100 1000;" xml:space="preserve">
<style type="text/css">
	.st0{fill:#B4003A;}
	.st1{fill:#BD003C;}
	.st2{fill:#C6003F;}
	.st3{fill:#CF0041;}
	.st4{fill:#D70044;}
	.st5{fill:#E00046;}
	.st6{fill:#E90048;}
	.st7{fill:#F2004A;}
	.st8{fill:#FB004D;}
	.st9{fill:#FF0551;}
	.st10{fill:#FF0E56;}
	.st11{fill:#FF165C;}
	.st12{fill:#FF1F62;}
	.st13{fill:#FF2868;}
	.st14{fill:#FF316D;}
	.st15{fill:#FF3A73;}
	.st16{fill:#FF4379;}
	.st17{fill:#FF4B7F;}
	.st18{fill:#FF5485;}
	.st19{fill:#FF5D8B;}
	.st20{fill:#FF6691;}
</style>
<rect class="st0" width="100" height="1000"/>
<g>
	<circle class="st0" cx="50" cy="0" r="50"/>
	<g>
		<circle class="st1" cx="0" cy="50" r="50"/>
		<circle class="st1" cx="100" cy="50" r="50"/>
	</g>
	<circle class="st2" cx="50" cy="100" r="50"/>
	<g>
		<circle class="st3" cx="0" cy="150" r="50"/>
		<circle class="st3" cx="100" cy="150" r="50"/>
	</g>
	<circle class="st4" cx="50" cy="200" r="50"/>
	<g>
		<circle class="st5" cx="0" cy="250" r="50"/>
		<circle class="st5" cx="100" cy="250" r="50"/>
	</g>
	<circle class="st6" cx="50" cy="300" r="50"/>
	<g>
		<circle class="st7" cx="0" cy="350" r="50"/>
		<circle class="st7" cx="100" cy="350" r="50"/>
	</g>
	<circle class="st8" cx="50" cy="400" r="50"/>
	<g>
		<circle class="st9" cx="0" cy="450" r="50"/>
		<circle class="st9" cx="100" cy="450" r="50"/>
	</g>
	<circle class="st10" cx="50" cy="500" r="50"/>
	<g>
		<circle class="st11" cx="0" cy="550" r="50"/>
		<circle class="st11" cx="100" cy="550" r="50"/>
	</g>
	<circle class="st12" cx="50" cy="600" r="50"/>
	<g>
		<circle class="st13" cx="0" cy="650" r="50"/>
		<circle class="st13" cx="100" cy="650" r="50"/>
	</g>
	<circle class="st14" cx="50" cy="700" r="50"/>
	<g>
		<circle class="st15" cx="0" cy="750" r="50"/>
		<circle class="st15" cx="100" cy="750" r="50"/>
	</g>
	<circle class="st16" cx="50" cy="800" r="50"/>
	<g>
		<circle class="st17" cx="0" cy="850" r="50"/>
		<circle class="st17" cx="100" cy="850" r="50"/>
	</g>
	<circle class="st18" cx="50" cy="900" r="50"/>
	<g>
		<circle class="st19" cx="0" cy="950" r="50"/>
		<circle class="st19" cx="100" cy="950" r="50"/>
	</g>
	<circle class="st20" cx="50" cy="1000" r="50"/>
</g>
<rect x="81.3" class="st0" width="100" height="1000"/>
<g>
	<circle class="st0" cx="131.3" cy="0" r="50"/>
	<g>
		<circle class="st1" cx="81.3" cy="50" r="50"/>
		<circle class="st1" cx="181.3" cy="50" r="50"/>
	</g>
	<circle class="st2" cx="131.3" cy="100" r="50"/>
	<g>
		<circle class="st3" cx="81.3" cy="150" r="50"/>
		<circle class="st3" cx="181.3" cy="150" r="50"/>
	</g>
	<circle class="st4" cx="131.3" cy="200" r="50"/>
	<g>
		<circle class="st5" cx="81.3" cy="250" r="50"/>
		<circle class="st5" cx="181.3" cy="250" r="50"/>
	</g>
	<circle class="st6" cx="131.3" cy="300" r="50"/>
	<g>
		<circle class="st7" cx="81.3" cy="350" r="50"/>
		<circle class="st7" cx="181.3" cy="350" r="50"/>
	</g>
	<circle class="st8" cx="131.3" cy="400" r="50"/>
	<g>
		<circle class="st9" cx="81.3" cy="450" r="50"/>
		<circle class="st9" cx="181.3" cy="450" r="50"/>
	</g>
	<circle class="st10" cx="131.3" cy="500" r="50"/>
	<g>
		<circle class="st11" cx="81.3" cy="550" r="50"/>
		<circle class="st11" cx="181.3" cy="550" r="50"/>
	</g>
	<circle class="st12" cx="131.3" cy="600" r="50"/>
	<g>
		<circle class="st13" cx="81.3" cy="650" r="50"/>
		<circle class="st13" cx="181.3" cy="650" r="50"/>
	</g>
	<circle class="st14" cx="131.3" cy="700" r="50"/>
	<g>
		<circle class="st15" cx="81.3" cy="750" r="50"/>
		<circle class="st15" cx="181.3" cy="750" r="50"/>
	</g>
	<circle class="st16" cx="131.3" cy="800" r="50"/>
	<g>
		<circle class="st17" cx="81.3" cy="850" r="50"/>
		<circle class="st17" cx="181.3" cy="850" r="50"/>
	</g>
	<circle class="st18" cx="131.3" cy="900" r="50"/>
	<g>
		<circle class="st19" cx="81.3" cy="950" r="50"/>
		<circle class="st19" cx="181.3" cy="950" r="50"/>
	</g>
	<circle class="st20" cx="131.3" cy="1000" r="50"/>
</g>
<rect x="140.6" class="st0" width="100" height="1000"/>
<g>
	<circle class="st0" cx="190.6" cy="0" r="50"/>
	<g>
		<circle class="st1" cx="140.6" cy="50" r="50"/>
		<circle class="st1" cx="240.6" cy="50" r="50"/>
	</g>
	<circle class="st2" cx="190.6" cy="100" r="50"/>
	<g>
		<circle class="st3" cx="140.6" cy="150" r="50"/>
		<circle class="st3" cx="240.6" cy="150" r="50"/>
	</g>
	<circle class="st4" cx="190.6" cy="200" r="50"/>
	<g>
		<circle class="st5" cx="140.6" cy="250" r="50"/>
		<circle class="st5" cx="240.6" cy="250" r="50"/>
	</g>
	<circle class="st6" cx="190.6" cy="300" r="50"/>
	<g>
		<circle class="st7" cx="140.6" cy="350" r="50"/>
		<circle class="st7" cx="240.6" cy="350" r="50"/>
	</g>
	<circle class="st8" cx="190.6" cy="400" r="50"/>
	<g>
		<circle class="st9" cx="140.6" cy="450" r="50"/>
		<circle class="st9" cx="240.6" cy="450" r="50"/>
	</g>
	<circle class="st10" cx="190.6" cy="500" r="50"/>
	<g>
		<circle class="st11" cx="140.6" cy="550" r="50"/>
		<circle class="st11" cx="240.6" cy="550" r="50"/>
	</g>
	<circle class="st12" cx="190.6" cy="600" r="50"/>
	<g>
		<circle class="st13" cx="140.6" cy="650" r="50"/>
		<circle class="st13" cx="240.6" cy="650" r="50"/>
	</g>
	<circle class="st14" cx="190.6" cy="700" r="50"/>
	<g>
		<circle class="st15" cx="140.6" cy="750" r="50"/>
		<circle class="st15" cx="240.6" cy="750" r="50"/>
	</g>
	<circle class="st16" cx="190.6" cy="800" r="50"/>
	<g>
		<circle class="st17" cx="140.6" cy="850" r="50"/>
		<circle class="st17" cx="240.6" cy="850" r="50"/>
	</g>
	<circle class="st18" cx="190.6" cy="900" r="50"/>
	<g>
		<circle class="st19" cx="140.6" cy="950" r="50"/>
		<circle class="st19" cx="240.6" cy="950" r="50"/>
	</g>
	<circle class="st20" cx="190.6" cy="1000" r="50"/>
</g>
<rect x="221.9" class="st0" width="100" height="1000"/>
<g>
	<circle class="st0" cx="271.9" cy="0" r="50"/>
	<g>
		<circle class="st1" cx="221.9" cy="50" r="50"/>
		<circle class="st1" cx="321.9" cy="50" r="50"/>
	</g>
	<circle class="st2" cx="271.9" cy="100" r="50"/>
	<g>
		<circle class="st3" cx="221.9" cy="150" r="50"/>
		<circle class="st3" cx="321.9" cy="150" r="50"/>
	</g>
	<circle class="st4" cx="271.9" cy="200" r="50"/>
	<g>
		<circle class="st5" cx="221.9" cy="250" r="50"/>
		<circle class="st5" cx="321.9" cy="250" r="50"/>
	</g>
	<circle class="st6" cx="271.9" cy="300" r="50"/>
	<g>
		<circle class="st7" cx="221.9" cy="350" r="50"/>
		<circle class="st7" cx="321.9" cy="350" r="50"/>
	</g>
	<circle class="st8" cx="271.9" cy="400" r="50"/>
	<g>
		<circle class="st9" cx="221.9" cy="450" r="50"/>
		<circle class="st9" cx="321.9" cy="450" r="50"/>
	</g>
	<circle class="st10" cx="271.9" cy="500" r="50"/>
	<g>
		<circle class="st11" cx="221.9" cy="550" r="50"/>
		<circle class="st11" cx="321.9" cy="550" r="50"/>
	</g>
	<circle class="st12" cx="271.9" cy="600" r="50"/>
	<g>
		<circle class="st13" cx="221.9" cy="650" r="50"/>
		<circle class="st13" cx="321.9" cy="650" r="50"/>
	</g>
	<circle class="st14" cx="271.9" cy="700" r="50"/>
	<g>
		<circle class="st15" cx="221.9" cy="750" r="50"/>
		<circle class="st15" cx="321.9" cy="750" r="50"/>
	</g>
	<circle class="st16" cx="271.9" cy="800" r="50"/>
	<g>
		<circle class="st17" cx="221.9" cy="850" r="50"/>
		<circle class="st17" cx="321.9" cy="850" r="50"/>
	</g>
	<circle class="st18" cx="271.9" cy="900" r="50"/>
	<g>
		<circle class="st19" cx="221.9" cy="950" r="50"/>
		<circle class="st19" cx="321.9" cy="950" r="50"/>
	</g>
	<circle class="st20" cx="271.9" cy="1000" r="50"/>
</g>
<rect x="190.6" class="st0" width="100" height="1000"/>
<g>
	<circle class="st0" cx="240.6" cy="0" r="50"/>
	<g>
		<circle class="st1" cx="190.6" cy="50" r="50"/>
		<circle class="st1" cx="290.6" cy="50" r="50"/>
	</g>
	<circle class="st2" cx="240.6" cy="100" r="50"/>
	<g>
		<circle class="st3" cx="190.6" cy="150" r="50"/>
		<circle class="st3" cx="290.6" cy="150" r="50"/>
	</g>
	<circle class="st4" cx="240.6" cy="200" r="50"/>
	<g>
		<circle class="st5" cx="190.6" cy="250" r="50"/>
		<circle class="st5" cx="290.6" cy="250" r="50"/>
	</g>
	<circle class="st6" cx="240.6" cy="300" r="50"/>
	<g>
		<circle class="st7" cx="190.6" cy="350" r="50"/>
		<circle class="st7" cx="290.6" cy="350" r="50"/>
	</g>
	<circle class="st8" cx="240.6" cy="400" r="50"/>
	<g>
		<circle class="st9" cx="190.6" cy="450" r="50"/>
		<circle class="st9" cx="290.6" cy="450" r="50"/>
	</g>
	<circle class="st10" cx="240.6" cy="500" r="50"/>
	<g>
		<circle class="st11" cx="190.6" cy="550" r="50"/>
		<circle class="st11" cx="290.6" cy="550" r="50"/>
	</g>
	<circle class="st12" cx="240.6" cy="600" r="50"/>
	<g>
		<circle class="st13" cx="190.6" cy="650" r="50"/>
		<circle class="st13" cx="290.6" cy="650" r="50"/>
	</g>
	<circle class="st14" cx="240.6" cy="700" r="50"/>
	<g>
		<circle class="st15" cx="190.6" cy="750" r="50"/>
		<circle class="st15" cx="290.6" cy="750" r="50"/>
	</g>
	<circle class="st16" cx="240.6" cy="800" r="50"/>
	<g>
		<circle class="st17" cx="190.6" cy="850" r="50"/>
		<circle class="st17" cx="290.6" cy="850" r="50"/>
	</g>
	<circle class="st18" cx="240.6" cy="900" r="50"/>
	<g>
		<circle class="st19" cx="190.6" cy="950" r="50"/>
		<circle class="st19" cx="290.6" cy="950" r="50"/>
	</g>
	<circle class="st20" cx="240.6" cy="1000" r="50"/>
</g>
<rect x="271.9" class="st0" width="100" height="1000"/>
<g>
	<circle class="st0" cx="321.9" cy="0" r="50"/>
	<g>
		<circle class="st1" cx="271.9" cy="50" r="50"/>
		<circle class="st1" cx="371.9" cy="50" r="50"/>
	</g>
	<circle class="st2" cx="321.9" cy="100" r="50"/>
	<g>
		<circle class="st3" cx="271.9" cy="150" r="50"/>
		<circle class="st3" cx="371.9" cy="150" r="50"/>
	</g>
	<circle class="st4" cx="321.9" cy="200" r="50"/>
	<g>
		<circle class="st5" cx="271.9" cy="250" r="50"/>
		<circle class="st5" cx="371.9" cy="250" r="50"/>
	</g>
	<circle class="st6" cx="321.9" cy="300" r="50"/>
	<g>
		<circle class="st7" cx="271.9" cy="350" r="50"/>
		<circle class="st7" cx="371.9" cy="350" r="50"/>
	</g>
	<circle class="st8" cx="321.9" cy="400" r="50"/>
	<g>
		<circle class="st9" cx="271.9" cy="450" r="50"/>
		<circle class="st9" cx="371.9" cy="450" r="50"/>
	</g>
	<circle class="st10" cx="321.9" cy="500" r="50"/>
	<g>
		<circle class="st11" cx="271.9" cy="550" r="50"/>
		<circle class="st11" cx="371.9" cy="550" r="50"/>
	</g>
	<circle class="st12" cx="321.9" cy="600" r="50"/>
	<g>
		<circle class="st13" cx="271.9" cy="650" r="50"/>
		<circle class="st13" cx="371.9" cy="650" r="50"/>
	</g>
	<circle class="st14" cx="321.9" cy="700" r="50"/>
	<g>
		<circle class="st15" cx="271.9" cy="750" r="50"/>
		<circle class="st15" cx="371.9" cy="750" r="50"/>
	</g>
	<circle class="st16" cx="321.9" cy="800" r="50"/>
	<g>
		<circle class="st17" cx="271.9" cy="850" r="50"/>
		<circle class="st17" cx="371.9" cy="850" r="50"/>
	</g>
	<circle class="st18" cx="321.9" cy="900" r="50"/>
	<g>
		<circle class="st19" cx="271.9" cy="950" r="50"/>
		<circle class="st19" cx="371.9" cy="950" r="50"/>
	</g>
	<circle class="st20" cx="321.9" cy="1000" r="50"/>
</g>
<rect x="331.3" class="st0" width="100" height="1000"/>
<g>
	<circle class="st0" cx="381.3" cy="0" r="50"/>
	<g>
		<circle class="st1" cx="331.3" cy="50" r="50"/>
		<circle class="st1" cx="431.3" cy="50" r="50"/>
	</g>
	<circle class="st2" cx="381.3" cy="100" r="50"/>
	<g>
		<circle class="st3" cx="331.3" cy="150" r="50"/>
		<circle class="st3" cx="431.3" cy="150" r="50"/>
	</g>
	<circle class="st4" cx="381.3" cy="200" r="50"/>
	<g>
		<circle class="st5" cx="331.3" cy="250" r="50"/>
		<circle class="st5" cx="431.3" cy="250" r="50"/>
	</g>
	<circle class="st6" cx="381.3" cy="300" r="50"/>
	<g>
		<circle class="st7" cx="331.3" cy="350" r="50"/>
		<circle class="st7" cx="431.3" cy="350" r="50"/>
	</g>
	<circle class="st8" cx="381.3" cy="400" r="50"/>
	<g>
		<circle class="st9" cx="331.3" cy="450" r="50"/>
		<circle class="st9" cx="431.3" cy="450" r="50"/>
	</g>
	<circle class="st10" cx="381.3" cy="500" r="50"/>
	<g>
		<circle class="st11" cx="331.3" cy="550" r="50"/>
		<circle class="st11" cx="431.3" cy="550" r="50"/>
	</g>
	<circle class="st12" cx="381.3" cy="600" r="50"/>
	<g>
		<circle class="st13" cx="331.3" cy="650" r="50"/>
		<circle class="st13" cx="431.3" cy="650" r="50"/>
	</g>
	<circle class="st14" cx="381.3" cy="700" r="50"/>
	<g>
		<circle class="st15" cx="331.3" cy="750" r="50"/>
		<circle class="st15" cx="431.3" cy="750" r="50"/>
	</g>
	<circle class="st16" cx="381.3" cy="800" r="50"/>
	<g>
		<circle class="st17" cx="331.3" cy="850" r="50"/>
		<circle class="st17" cx="431.3" cy="850" r="50"/>
	</g>
	<circle class="st18" cx="381.3" cy="900" r="50"/>
	<g>
		<circle class="st19" cx="331.3" cy="950" r="50"/>
		<circle class="st19" cx="431.3" cy="950" r="50"/>
	</g>
	<circle class="st20" cx="381.3" cy="1000" r="50"/>
</g>
<rect x="412.6" class="st0" width="100" height="1000"/>
<g>
	<circle class="st0" cx="462.6" cy="0" r="50"/>
	<g>
		<circle class="st1" cx="412.6" cy="50" r="50"/>
		<circle class="st1" cx="512.6" cy="50" r="50"/>
	</g>
	<circle class="st2" cx="462.6" cy="100" r="50"/>
	<g>
		<circle class="st3" cx="412.6" cy="150" r="50"/>
		<circle class="st3" cx="512.6" cy="150" r="50"/>
	</g>
	<circle class="st4" cx="462.6" cy="200" r="50"/>
	<g>
		<circle class="st5" cx="412.6" cy="250" r="50"/>
		<circle class="st5" cx="512.6" cy="250" r="50"/>
	</g>
	<circle class="st6" cx="462.6" cy="300" r="50"/>
	<g>
		<circle class="st7" cx="412.6" cy="350" r="50"/>
		<circle class="st7" cx="512.6" cy="350" r="50"/>
	</g>
	<circle class="st8" cx="462.6" cy="400" r="50"/>
	<g>
		<circle class="st9" cx="412.6" cy="450" r="50"/>
		<circle class="st9" cx="512.6" cy="450" r="50"/>
	</g>
	<circle class="st10" cx="462.6" cy="500" r="50"/>
	<g>
		<circle class="st11" cx="412.6" cy="550" r="50"/>
		<circle class="st11" cx="512.6" cy="550" r="50"/>
	</g>
	<circle class="st12" cx="462.6" cy="600" r="50"/>
	<g>
		<circle class="st13" cx="412.6" cy="650" r="50"/>
		<circle class="st13" cx="512.6" cy="650" r="50"/>
	</g>
	<circle class="st14" cx="462.6" cy="700" r="50"/>
	<g>
		<circle class="st15" cx="412.6" cy="750" r="50"/>
		<circle class="st15" cx="512.6" cy="750" r="50"/>
	</g>
	<circle class="st16" cx="462.6" cy="800" r="50"/>
	<g>
		<circle class="st17" cx="412.6" cy="850" r="50"/>
		<circle class="st17" cx="512.6" cy="850" r="50"/>
	</g>
	<circle class="st18" cx="462.6" cy="900" r="50"/>
	<g>
		<circle class="st19" cx="412.6" cy="950" r="50"/>
		<circle class="st19" cx="512.6" cy="950" r="50"/>
	</g>
	<circle class="st20" cx="462.6" cy="1000" r="50"/>
</g>
</svg>
