<svg xmlns="http://www.w3.org/2000/svg" xmlns:xlink="http://www.w3.org/1999/xlink" id="Layer_1" x="0" y="0" enable-background="new 0 0 100 1000" version="1.1" viewBox="0 0 100 1000" xml:space="preserve"><style type="text/css">.st0{fill:#b4003a}.st1{fill:#b80a3e}.st2{fill:#bc1342}.st3{fill:#c01a46}.st4{fill:#c4204a}.st5{fill:#c7264f}.st6{fill:#cb2b53}.st7{fill:#cf2f57}.st8{fill:#d3345c}.st9{fill:#d73960}.st10{fill:#da3d64}.st11{fill:#de4169}.st12{fill:#e2456d}.st13{fill:#e54a71}.st14{fill:#e94e76}.st15{fill:#ed527a}.st16{fill:#f1567f}.st17{fill:#f45a83}.st18{fill:#f85e88}.st19{fill:#fb628c}.st20{fill:#ff6691}</style><rect width="100" height="1000" class="st0"/><g><circle cx="50" cy="0" r="50" class="st0"/><g><circle cx="0" cy="50" r="50" class="st1"/><circle cx="100" cy="50" r="50" class="st1"/></g><circle cx="50" cy="100" r="50" class="st2"/><g><circle cx="0" cy="150" r="50" class="st3"/><circle cx="100" cy="150" r="50" class="st3"/></g><circle cx="50" cy="200" r="50" class="st4"/><g><circle cx="0" cy="250" r="50" class="st5"/><circle cx="100" cy="250" r="50" class="st5"/></g><circle cx="50" cy="300" r="50" class="st6"/><g><circle cx="0" cy="350" r="50" class="st7"/><circle cx="100" cy="350" r="50" class="st7"/></g><circle cx="50" cy="400" r="50" class="st8"/><g><circle cx="0" cy="450" r="50" class="st9"/><circle cx="100" cy="450" r="50" class="st9"/></g><circle cx="50" cy="500" r="50" class="st10"/><g><circle cx="0" cy="550" r="50" class="st11"/><circle cx="100" cy="550" r="50" class="st11"/></g><circle cx="50" cy="600" r="50" class="st12"/><g><circle cx="0" cy="650" r="50" class="st13"/><circle cx="100" cy="650" r="50" class="st13"/></g><circle cx="50" cy="700" r="50" class="st14"/><g><circle cx="0" cy="750" r="50" class="st15"/><circle cx="100" cy="750" r="50" class="st15"/></g><circle cx="50" cy="800" r="50" class="st16"/><g><circle cx="0" cy="850" r="50" class="st17"/><circle cx="100" cy="850" r="50" class="st17"/></g><circle cx="50" cy="900" r="50" class="st18"/><g><circle cx="0" cy="950" r="50" class="st19"/><circle cx="100" cy="950" r="50" class="st19"/></g><circle cx="50" cy="1000" r="50" class="st20"/></g><rect width="100" height="1000" x="121" class="st0"/><g><circle cx="158.9" cy="-4.6" r="50" class="st0"/><g><circle cx="108.9" cy="45.4" r="50" class="st1"/><circle cx="208.9" cy="45.4" r="50" class="st1"/></g><circle cx="158.9" cy="95.4" r="50" class="st2"/><g><circle cx="108.9" cy="145.4" r="50" class="st3"/><circle cx="208.9" cy="145.4" r="50" class="st3"/></g><circle cx="158.9" cy="195.4" r="50" class="st4"/><g><circle cx="108.9" cy="245.4" r="50" class="st5"/><circle cx="208.9" cy="245.4" r="50" class="st5"/></g><circle cx="158.9" cy="295.4" r="50" class="st6"/><g><circle cx="108.9" cy="345.4" r="50" class="st7"/><circle cx="208.9" cy="345.4" r="50" class="st7"/></g><circle cx="158.9" cy="395.4" r="50" class="st8"/><g><circle cx="108.9" cy="445.4" r="50" class="st9"/><circle cx="208.9" cy="445.4" r="50" class="st9"/></g><circle cx="158.9" cy="495.4" r="50" class="st10"/><g><circle cx="108.9" cy="545.4" r="50" class="st11"/><circle cx="208.9" cy="545.4" r="50" class="st11"/></g><circle cx="158.9" cy="595.4" r="50" class="st12"/><g><circle cx="108.9" cy="645.4" r="50" class="st13"/><circle cx="208.9" cy="645.4" r="50" class="st13"/></g><circle cx="158.9" cy="695.4" r="50" class="st14"/><g><circle cx="108.9" cy="745.4" r="50" class="st15"/><circle cx="208.9" cy="745.4" r="50" class="st15"/></g><circle cx="158.9" cy="795.4" r="50" class="st16"/><g><circle cx="108.9" cy="845.4" r="50" class="st17"/><circle cx="208.9" cy="845.4" r="50" class="st17"/></g><circle cx="158.9" cy="895.4" r="50" class="st18"/><g><circle cx="108.9" cy="945.4" r="50" class="st19"/><circle cx="208.9" cy="945.4" r="50" class="st19"/></g><circle cx="158.9" cy="995.4" r="50" class="st20"/></g><rect width="100" height="1000" x="231.5" class="st0"/><g><circle cx="265.3" cy="-4.6" r="50" class="st0"/><g><circle cx="215.3" cy="45.4" r="50" class="st1"/><circle cx="315.3" cy="45.4" r="50" class="st1"/></g><circle cx="265.3" cy="95.4" r="50" class="st2"/><g><circle cx="215.3" cy="145.4" r="50" class="st3"/><circle cx="315.3" cy="145.4" r="50" class="st3"/></g><circle cx="265.3" cy="195.4" r="50" class="st4"/><g><circle cx="215.3" cy="245.4" r="50" class="st5"/><circle cx="315.3" cy="245.4" r="50" class="st5"/></g><circle cx="265.3" cy="295.4" r="50" class="st6"/><g><circle cx="215.3" cy="345.4" r="50" class="st7"/><circle cx="315.3" cy="345.4" r="50" class="st7"/></g><circle cx="265.3" cy="395.4" r="50" class="st8"/><g><circle cx="215.3" cy="445.4" r="50" class="st9"/><circle cx="315.3" cy="445.4" r="50" class="st9"/></g><circle cx="265.3" cy="495.4" r="50" class="st10"/><g><circle cx="215.3" cy="545.4" r="50" class="st11"/><circle cx="315.3" cy="545.4" r="50" class="st11"/></g><circle cx="265.3" cy="595.4" r="50" class="st12"/><g><circle cx="215.3" cy="645.4" r="50" class="st13"/><circle cx="315.3" cy="645.4" r="50" class="st13"/></g><circle cx="265.3" cy="695.4" r="50" class="st14"/><g><circle cx="215.3" cy="745.4" r="50" class="st15"/><circle cx="315.3" cy="745.4" r="50" class="st15"/></g><circle cx="265.3" cy="795.4" r="50" class="st16"/><g><circle cx="215.3" cy="845.4" r="50" class="st17"/><circle cx="315.3" cy="845.4" r="50" class="st17"/></g><circle cx="265.3" cy="895.4" r="50" class="st18"/><g><circle cx="215.3" cy="945.4" r="50" class="st19"/><circle cx="315.3" cy="945.4" r="50" class="st19"/></g><circle cx="265.3" cy="995.4" r="50" class="st20"/></g><g><circle cx="386.4" cy="6.9" r="50" class="st0"/><g><circle cx="336.4" cy="56.9" r="50" class="st1"/><circle cx="436.4" cy="56.9" r="50" class="st1"/></g><circle cx="386.4" cy="106.9" r="50" class="st2"/><g><circle cx="336.4" cy="156.9" r="50" class="st3"/><circle cx="436.4" cy="156.9" r="50" class="st3"/></g><circle cx="386.4" cy="206.9" r="50" class="st4"/><g><circle cx="336.4" cy="256.9" r="50" class="st5"/><circle cx="436.4" cy="256.9" r="50" class="st5"/></g><circle cx="386.4" cy="306.9" r="50" class="st6"/><g><circle cx="336.4" cy="356.9" r="50" class="st7"/><circle cx="436.4" cy="356.9" r="50" class="st7"/></g><circle cx="386.4" cy="406.9" r="50" class="st8"/><g><circle cx="336.4" cy="456.9" r="50" class="st9"/><circle cx="436.4" cy="456.9" r="50" class="st9"/></g><circle cx="386.4" cy="506.9" r="50" class="st10"/><g><circle cx="336.4" cy="556.9" r="50" class="st11"/><circle cx="436.4" cy="556.9" r="50" class="st11"/></g><circle cx="386.4" cy="606.9" r="50" class="st12"/><g><circle cx="336.4" cy="656.9" r="50" class="st13"/><circle cx="436.4" cy="656.9" r="50" class="st13"/></g><circle cx="386.4" cy="706.9" r="50" class="st14"/><g><circle cx="336.4" cy="756.9" r="50" class="st15"/><circle cx="436.4" cy="756.9" r="50" class="st15"/></g><circle cx="386.4" cy="806.9" r="50" class="st16"/><g><circle cx="336.4" cy="856.9" r="50" class="st17"/><circle cx="436.4" cy="856.9" r="50" class="st17"/></g><circle cx="386.4" cy="906.9" r="50" class="st18"/><g><circle cx="336.4" cy="956.9" r="50" class="st19"/><circle cx="436.4" cy="956.9" r="50" class="st19"/></g><circle cx="386.4" cy="1006.9" r="50" class="st20"/></g><rect width="100" height="1000" x="355" y="-9.2" class="st0"/><g><circle cx="406.9" cy="-2.3" r="50" class="st0"/><g><circle cx="356.9" cy="47.7" r="50" class="st1"/><circle cx="456.9" cy="47.7" r="50" class="st1"/></g><circle cx="406.9" cy="97.7" r="50" class="st2"/><g><circle cx="356.9" cy="147.7" r="50" class="st3"/><circle cx="456.9" cy="147.7" r="50" class="st3"/></g><circle cx="406.9" cy="197.7" r="50" class="st4"/><g><circle cx="356.9" cy="247.7" r="50" class="st5"/><circle cx="456.9" cy="247.7" r="50" class="st5"/></g><circle cx="406.9" cy="297.7" r="50" class="st6"/><g><circle cx="356.9" cy="347.7" r="50" class="st7"/><circle cx="456.9" cy="347.7" r="50" class="st7"/></g><circle cx="406.9" cy="397.7" r="50" class="st8"/><g><circle cx="356.9" cy="447.7" r="50" class="st9"/><circle cx="456.9" cy="447.7" r="50" class="st9"/></g><circle cx="406.9" cy="497.7" r="50" class="st10"/><g><circle cx="356.9" cy="547.7" r="50" class="st11"/><circle cx="456.9" cy="547.7" r="50" class="st11"/></g><circle cx="406.9" cy="597.7" r="50" class="st12"/><g><circle cx="356.9" cy="647.7" r="50" class="st13"/><circle cx="456.9" cy="647.7" r="50" class="st13"/></g><circle cx="406.9" cy="697.7" r="50" class="st14"/><g><circle cx="356.9" cy="747.7" r="50" class="st15"/><circle cx="456.9" cy="747.7" r="50" class="st15"/></g><circle cx="406.9" cy="797.7" r="50" class="st16"/><g><circle cx="356.9" cy="847.7" r="50" class="st17"/><circle cx="456.9" cy="847.7" r="50" class="st17"/></g><circle cx="406.9" cy="897.7" r="50" class="st18"/><g><circle cx="356.9" cy="947.7" r="50" class="st19"/><circle cx="456.9" cy="947.7" r="50" class="st19"/></g><circle cx="406.9" cy="997.7" r="50" class="st20"/></g><rect width="100" height="1000" x="477.9" y="-2.3" class="st0"/><g><circle cx="515.8" cy="-6.9" r="50" class="st0"/><g><circle cx="465.8" cy="43.1" r="50" class="st1"/><circle cx="565.8" cy="43.1" r="50" class="st1"/></g><circle cx="515.8" cy="93.1" r="50" class="st2"/><g><circle cx="465.8" cy="143.1" r="50" class="st3"/><circle cx="565.8" cy="143.1" r="50" class="st3"/></g><circle cx="515.8" cy="193.1" r="50" class="st4"/><g><circle cx="465.8" cy="243.1" r="50" class="st5"/><circle cx="565.8" cy="243.1" r="50" class="st5"/></g><circle cx="515.8" cy="293.1" r="50" class="st6"/><g><circle cx="465.8" cy="343.1" r="50" class="st7"/><circle cx="565.8" cy="343.1" r="50" class="st7"/></g><circle cx="515.8" cy="393.1" r="50" class="st8"/><g><circle cx="465.8" cy="443.1" r="50" class="st9"/><circle cx="565.8" cy="443.1" r="50" class="st9"/></g><circle cx="515.8" cy="493.1" r="50" class="st10"/><g><circle cx="465.8" cy="543.1" r="50" class="st11"/><circle cx="565.8" cy="543.1" r="50" class="st11"/></g><circle cx="515.8" cy="593.1" r="50" class="st12"/><g><circle cx="465.8" cy="643.1" r="50" class="st13"/><circle cx="565.8" cy="643.1" r="50" class="st13"/></g><circle cx="515.8" cy="693.1" r="50" class="st14"/><g><circle cx="465.8" cy="743.1" r="50" class="st15"/><circle cx="565.8" cy="743.1" r="50" class="st15"/></g><circle cx="515.8" cy="793.1" r="50" class="st16"/><g><circle cx="465.8" cy="843.1" r="50" class="st17"/><circle cx="565.8" cy="843.1" r="50" class="st17"/></g><circle cx="515.8" cy="893.1" r="50" class="st18"/><g><circle cx="465.8" cy="943.1" r="50" class="st19"/><circle cx="565.8" cy="943.1" r="50" class="st19"/></g><circle cx="515.8" cy="993.1" r="50" class="st20"/></g><rect width="100" height="1000" x="588.4" y="-2.3" class="st0"/><g><circle cx="622.2" cy="-6.9" r="50" class="st0"/><g><circle cx="572.2" cy="43.1" r="50" class="st1"/><circle cx="672.2" cy="43.1" r="50" class="st1"/></g><circle cx="622.2" cy="93.1" r="50" class="st2"/><g><circle cx="572.2" cy="143.1" r="50" class="st3"/><circle cx="672.2" cy="143.1" r="50" class="st3"/></g><circle cx="622.2" cy="193.1" r="50" class="st4"/><g><circle cx="572.2" cy="243.1" r="50" class="st5"/><circle cx="672.2" cy="243.1" r="50" class="st5"/></g><circle cx="622.2" cy="293.1" r="50" class="st6"/><g><circle cx="572.2" cy="343.1" r="50" class="st7"/><circle cx="672.2" cy="343.1" r="50" class="st7"/></g><circle cx="622.2" cy="393.1" r="50" class="st8"/><g><circle cx="572.2" cy="443.1" r="50" class="st9"/><circle cx="672.2" cy="443.1" r="50" class="st9"/></g><circle cx="622.2" cy="493.1" r="50" class="st10"/><g><circle cx="572.2" cy="543.1" r="50" class="st11"/><circle cx="672.2" cy="543.1" r="50" class="st11"/></g><circle cx="622.2" cy="593.1" r="50" class="st12"/><g><circle cx="572.2" cy="643.1" r="50" class="st13"/><circle cx="672.2" cy="643.1" r="50" class="st13"/></g><circle cx="622.2" cy="693.1" r="50" class="st14"/><g><circle cx="572.2" cy="743.1" r="50" class="st15"/><circle cx="672.2" cy="743.1" r="50" class="st15"/></g><circle cx="622.2" cy="793.1" r="50" class="st16"/><g><circle cx="572.2" cy="843.1" r="50" class="st17"/><circle cx="672.2" cy="843.1" r="50" class="st17"/></g><circle cx="622.2" cy="893.1" r="50" class="st18"/><g><circle cx="572.2" cy="943.1" r="50" class="st19"/><circle cx="672.2" cy="943.1" r="50" class="st19"/></g><circle cx="622.2" cy="993.1" r="50" class="st20"/></g><g><circle cx="741.4" cy="-2.3" r="50" class="st0"/><g><circle cx="691.4" cy="47.7" r="50" class="st1"/><circle cx="791.4" cy="47.7" r="50" class="st1"/></g><circle cx="741.4" cy="97.7" r="50" class="st2"/><g><circle cx="691.4" cy="147.7" r="50" class="st3"/><circle cx="791.4" cy="147.7" r="50" class="st3"/></g><circle cx="741.4" cy="197.7" r="50" class="st4"/><g><circle cx="691.4" cy="247.7" r="50" class="st5"/><circle cx="791.4" cy="247.7" r="50" class="st5"/></g><circle cx="741.4" cy="297.7" r="50" class="st6"/><g><circle cx="691.4" cy="347.7" r="50" class="st7"/><circle cx="791.4" cy="347.7" r="50" class="st7"/></g><circle cx="741.4" cy="397.7" r="50" class="st8"/><g><circle cx="691.4" cy="447.7" r="50" class="st9"/><circle cx="791.4" cy="447.7" r="50" class="st9"/></g><circle cx="741.4" cy="497.7" r="50" class="st10"/><g><circle cx="691.4" cy="547.7" r="50" class="st11"/><circle cx="791.4" cy="547.7" r="50" class="st11"/></g><circle cx="741.4" cy="597.7" r="50" class="st12"/><g><circle cx="691.4" cy="647.7" r="50" class="st13"/><circle cx="791.4" cy="647.7" r="50" class="st13"/></g><circle cx="741.4" cy="697.7" r="50" class="st14"/><g><circle cx="691.4" cy="747.7" r="50" class="st15"/><circle cx="791.4" cy="747.7" r="50" class="st15"/></g><circle cx="741.4" cy="797.7" r="50" class="st16"/><g><circle cx="691.4" cy="847.7" r="50" class="st17"/><circle cx="791.4" cy="847.7" r="50" class="st17"/></g><circle cx="741.4" cy="897.7" r="50" class="st18"/><g><circle cx="691.4" cy="947.7" r="50" class="st19"/><circle cx="791.4" cy="947.7" r="50" class="st19"/></g><circle cx="741.4" cy="997.7" r="50" class="st20"/></g><polygon points="-406.4 -126.2 -572.8 -126.2 -656 17.9 -572.8 162.1 -406.4 162.1 -323.2 17.9" class="st0"/></svg>