<svg xmlns="http://www.w3.org/2000/svg" xmlns:xlink="http://www.w3.org/1999/xlink" id="Layer_1" x="0" y="0" enable-background="new 0 0 100 1000" version="1.1" viewBox="0 0 100 1000" xml:space="preserve"><style type="text/css">.st0{fill:#b4003a}.st1{fill:#bd003c}.st2{fill:#c6003f}.st3{fill:#cf0041}.st4{fill:#d70044}.st5{fill:#e00046}.st6{fill:#e90048}.st7{fill:#f2004a}.st8{fill:#fb004d}.st9{fill:#ff0551}.st10{fill:#ff0e56}.st11{fill:#ff165c}.st12{fill:#ff1f62}.st13{fill:#ff2868}.st14{fill:#ff316d}.st15{fill:#ff3a73}.st16{fill:#ff4379}.st17{fill:#ff4b7f}.st18{fill:#ff5485}.st19{fill:#ff5d8b}.st20{fill:#ff6691}</style><rect width="100" height="1000" class="st0"/><g><circle cx="50" cy="0" r="50" class="st0"/><g><circle cx="0" cy="50" r="50" class="st1"/><circle cx="100" cy="50" r="50" class="st1"/></g><circle cx="50" cy="100" r="50" class="st2"/><g><circle cx="0" cy="150" r="50" class="st3"/><circle cx="100" cy="150" r="50" class="st3"/></g><circle cx="50" cy="200" r="50" class="st4"/><g><circle cx="0" cy="250" r="50" class="st5"/><circle cx="100" cy="250" r="50" class="st5"/></g><circle cx="50" cy="300" r="50" class="st6"/><g><circle cx="0" cy="350" r="50" class="st7"/><circle cx="100" cy="350" r="50" class="st7"/></g><circle cx="50" cy="400" r="50" class="st8"/><g><circle cx="0" cy="450" r="50" class="st9"/><circle cx="100" cy="450" r="50" class="st9"/></g><circle cx="50" cy="500" r="50" class="st10"/><g><circle cx="0" cy="550" r="50" class="st11"/><circle cx="100" cy="550" r="50" class="st11"/></g><circle cx="50" cy="600" r="50" class="st12"/><g><circle cx="0" cy="650" r="50" class="st13"/><circle cx="100" cy="650" r="50" class="st13"/></g><circle cx="50" cy="700" r="50" class="st14"/><g><circle cx="0" cy="750" r="50" class="st15"/><circle cx="100" cy="750" r="50" class="st15"/></g><circle cx="50" cy="800" r="50" class="st16"/><g><circle cx="0" cy="850" r="50" class="st17"/><circle cx="100" cy="850" r="50" class="st17"/></g><circle cx="50" cy="900" r="50" class="st18"/><g><circle cx="0" cy="950" r="50" class="st19"/><circle cx="100" cy="950" r="50" class="st19"/></g><circle cx="50" cy="1000" r="50" class="st20"/></g><rect width="100" height="1000" x="81.3" class="st0"/><g><circle cx="131.3" cy="0" r="50" class="st0"/><g><circle cx="81.3" cy="50" r="50" class="st1"/><circle cx="181.3" cy="50" r="50" class="st1"/></g><circle cx="131.3" cy="100" r="50" class="st2"/><g><circle cx="81.3" cy="150" r="50" class="st3"/><circle cx="181.3" cy="150" r="50" class="st3"/></g><circle cx="131.3" cy="200" r="50" class="st4"/><g><circle cx="81.3" cy="250" r="50" class="st5"/><circle cx="181.3" cy="250" r="50" class="st5"/></g><circle cx="131.3" cy="300" r="50" class="st6"/><g><circle cx="81.3" cy="350" r="50" class="st7"/><circle cx="181.3" cy="350" r="50" class="st7"/></g><circle cx="131.3" cy="400" r="50" class="st8"/><g><circle cx="81.3" cy="450" r="50" class="st9"/><circle cx="181.3" cy="450" r="50" class="st9"/></g><circle cx="131.3" cy="500" r="50" class="st10"/><g><circle cx="81.3" cy="550" r="50" class="st11"/><circle cx="181.3" cy="550" r="50" class="st11"/></g><circle cx="131.3" cy="600" r="50" class="st12"/><g><circle cx="81.3" cy="650" r="50" class="st13"/><circle cx="181.3" cy="650" r="50" class="st13"/></g><circle cx="131.3" cy="700" r="50" class="st14"/><g><circle cx="81.3" cy="750" r="50" class="st15"/><circle cx="181.3" cy="750" r="50" class="st15"/></g><circle cx="131.3" cy="800" r="50" class="st16"/><g><circle cx="81.3" cy="850" r="50" class="st17"/><circle cx="181.3" cy="850" r="50" class="st17"/></g><circle cx="131.3" cy="900" r="50" class="st18"/><g><circle cx="81.3" cy="950" r="50" class="st19"/><circle cx="181.3" cy="950" r="50" class="st19"/></g><circle cx="131.3" cy="1000" r="50" class="st20"/></g><rect width="100" height="1000" x="140.6" class="st0"/><g><circle cx="190.6" cy="0" r="50" class="st0"/><g><circle cx="140.6" cy="50" r="50" class="st1"/><circle cx="240.6" cy="50" r="50" class="st1"/></g><circle cx="190.6" cy="100" r="50" class="st2"/><g><circle cx="140.6" cy="150" r="50" class="st3"/><circle cx="240.6" cy="150" r="50" class="st3"/></g><circle cx="190.6" cy="200" r="50" class="st4"/><g><circle cx="140.6" cy="250" r="50" class="st5"/><circle cx="240.6" cy="250" r="50" class="st5"/></g><circle cx="190.6" cy="300" r="50" class="st6"/><g><circle cx="140.6" cy="350" r="50" class="st7"/><circle cx="240.6" cy="350" r="50" class="st7"/></g><circle cx="190.6" cy="400" r="50" class="st8"/><g><circle cx="140.6" cy="450" r="50" class="st9"/><circle cx="240.6" cy="450" r="50" class="st9"/></g><circle cx="190.6" cy="500" r="50" class="st10"/><g><circle cx="140.6" cy="550" r="50" class="st11"/><circle cx="240.6" cy="550" r="50" class="st11"/></g><circle cx="190.6" cy="600" r="50" class="st12"/><g><circle cx="140.6" cy="650" r="50" class="st13"/><circle cx="240.6" cy="650" r="50" class="st13"/></g><circle cx="190.6" cy="700" r="50" class="st14"/><g><circle cx="140.6" cy="750" r="50" class="st15"/><circle cx="240.6" cy="750" r="50" class="st15"/></g><circle cx="190.6" cy="800" r="50" class="st16"/><g><circle cx="140.6" cy="850" r="50" class="st17"/><circle cx="240.6" cy="850" r="50" class="st17"/></g><circle cx="190.6" cy="900" r="50" class="st18"/><g><circle cx="140.6" cy="950" r="50" class="st19"/><circle cx="240.6" cy="950" r="50" class="st19"/></g><circle cx="190.6" cy="1000" r="50" class="st20"/></g><rect width="100" height="1000" x="221.9" class="st0"/><g><circle cx="271.9" cy="0" r="50" class="st0"/><g><circle cx="221.9" cy="50" r="50" class="st1"/><circle cx="321.9" cy="50" r="50" class="st1"/></g><circle cx="271.9" cy="100" r="50" class="st2"/><g><circle cx="221.9" cy="150" r="50" class="st3"/><circle cx="321.9" cy="150" r="50" class="st3"/></g><circle cx="271.9" cy="200" r="50" class="st4"/><g><circle cx="221.9" cy="250" r="50" class="st5"/><circle cx="321.9" cy="250" r="50" class="st5"/></g><circle cx="271.9" cy="300" r="50" class="st6"/><g><circle cx="221.9" cy="350" r="50" class="st7"/><circle cx="321.9" cy="350" r="50" class="st7"/></g><circle cx="271.9" cy="400" r="50" class="st8"/><g><circle cx="221.9" cy="450" r="50" class="st9"/><circle cx="321.9" cy="450" r="50" class="st9"/></g><circle cx="271.9" cy="500" r="50" class="st10"/><g><circle cx="221.9" cy="550" r="50" class="st11"/><circle cx="321.9" cy="550" r="50" class="st11"/></g><circle cx="271.9" cy="600" r="50" class="st12"/><g><circle cx="221.9" cy="650" r="50" class="st13"/><circle cx="321.9" cy="650" r="50" class="st13"/></g><circle cx="271.9" cy="700" r="50" class="st14"/><g><circle cx="221.9" cy="750" r="50" class="st15"/><circle cx="321.9" cy="750" r="50" class="st15"/></g><circle cx="271.9" cy="800" r="50" class="st16"/><g><circle cx="221.9" cy="850" r="50" class="st17"/><circle cx="321.9" cy="850" r="50" class="st17"/></g><circle cx="271.9" cy="900" r="50" class="st18"/><g><circle cx="221.9" cy="950" r="50" class="st19"/><circle cx="321.9" cy="950" r="50" class="st19"/></g><circle cx="271.9" cy="1000" r="50" class="st20"/></g><rect width="100" height="1000" x="190.6" class="st0"/><g><circle cx="240.6" cy="0" r="50" class="st0"/><g><circle cx="190.6" cy="50" r="50" class="st1"/><circle cx="290.6" cy="50" r="50" class="st1"/></g><circle cx="240.6" cy="100" r="50" class="st2"/><g><circle cx="190.6" cy="150" r="50" class="st3"/><circle cx="290.6" cy="150" r="50" class="st3"/></g><circle cx="240.6" cy="200" r="50" class="st4"/><g><circle cx="190.6" cy="250" r="50" class="st5"/><circle cx="290.6" cy="250" r="50" class="st5"/></g><circle cx="240.6" cy="300" r="50" class="st6"/><g><circle cx="190.6" cy="350" r="50" class="st7"/><circle cx="290.6" cy="350" r="50" class="st7"/></g><circle cx="240.6" cy="400" r="50" class="st8"/><g><circle cx="190.6" cy="450" r="50" class="st9"/><circle cx="290.6" cy="450" r="50" class="st9"/></g><circle cx="240.6" cy="500" r="50" class="st10"/><g><circle cx="190.6" cy="550" r="50" class="st11"/><circle cx="290.6" cy="550" r="50" class="st11"/></g><circle cx="240.6" cy="600" r="50" class="st12"/><g><circle cx="190.6" cy="650" r="50" class="st13"/><circle cx="290.6" cy="650" r="50" class="st13"/></g><circle cx="240.6" cy="700" r="50" class="st14"/><g><circle cx="190.6" cy="750" r="50" class="st15"/><circle cx="290.6" cy="750" r="50" class="st15"/></g><circle cx="240.6" cy="800" r="50" class="st16"/><g><circle cx="190.6" cy="850" r="50" class="st17"/><circle cx="290.6" cy="850" r="50" class="st17"/></g><circle cx="240.6" cy="900" r="50" class="st18"/><g><circle cx="190.6" cy="950" r="50" class="st19"/><circle cx="290.6" cy="950" r="50" class="st19"/></g><circle cx="240.6" cy="1000" r="50" class="st20"/></g><rect width="100" height="1000" x="271.9" class="st0"/><g><circle cx="321.9" cy="0" r="50" class="st0"/><g><circle cx="271.9" cy="50" r="50" class="st1"/><circle cx="371.9" cy="50" r="50" class="st1"/></g><circle cx="321.9" cy="100" r="50" class="st2"/><g><circle cx="271.9" cy="150" r="50" class="st3"/><circle cx="371.9" cy="150" r="50" class="st3"/></g><circle cx="321.9" cy="200" r="50" class="st4"/><g><circle cx="271.9" cy="250" r="50" class="st5"/><circle cx="371.9" cy="250" r="50" class="st5"/></g><circle cx="321.9" cy="300" r="50" class="st6"/><g><circle cx="271.9" cy="350" r="50" class="st7"/><circle cx="371.9" cy="350" r="50" class="st7"/></g><circle cx="321.9" cy="400" r="50" class="st8"/><g><circle cx="271.9" cy="450" r="50" class="st9"/><circle cx="371.9" cy="450" r="50" class="st9"/></g><circle cx="321.9" cy="500" r="50" class="st10"/><g><circle cx="271.9" cy="550" r="50" class="st11"/><circle cx="371.9" cy="550" r="50" class="st11"/></g><circle cx="321.9" cy="600" r="50" class="st12"/><g><circle cx="271.9" cy="650" r="50" class="st13"/><circle cx="371.9" cy="650" r="50" class="st13"/></g><circle cx="321.9" cy="700" r="50" class="st14"/><g><circle cx="271.9" cy="750" r="50" class="st15"/><circle cx="371.9" cy="750" r="50" class="st15"/></g><circle cx="321.9" cy="800" r="50" class="st16"/><g><circle cx="271.9" cy="850" r="50" class="st17"/><circle cx="371.9" cy="850" r="50" class="st17"/></g><circle cx="321.9" cy="900" r="50" class="st18"/><g><circle cx="271.9" cy="950" r="50" class="st19"/><circle cx="371.9" cy="950" r="50" class="st19"/></g><circle cx="321.9" cy="1000" r="50" class="st20"/></g><rect width="100" height="1000" x="331.3" class="st0"/><g><circle cx="381.3" cy="0" r="50" class="st0"/><g><circle cx="331.3" cy="50" r="50" class="st1"/><circle cx="431.3" cy="50" r="50" class="st1"/></g><circle cx="381.3" cy="100" r="50" class="st2"/><g><circle cx="331.3" cy="150" r="50" class="st3"/><circle cx="431.3" cy="150" r="50" class="st3"/></g><circle cx="381.3" cy="200" r="50" class="st4"/><g><circle cx="331.3" cy="250" r="50" class="st5"/><circle cx="431.3" cy="250" r="50" class="st5"/></g><circle cx="381.3" cy="300" r="50" class="st6"/><g><circle cx="331.3" cy="350" r="50" class="st7"/><circle cx="431.3" cy="350" r="50" class="st7"/></g><circle cx="381.3" cy="400" r="50" class="st8"/><g><circle cx="331.3" cy="450" r="50" class="st9"/><circle cx="431.3" cy="450" r="50" class="st9"/></g><circle cx="381.3" cy="500" r="50" class="st10"/><g><circle cx="331.3" cy="550" r="50" class="st11"/><circle cx="431.3" cy="550" r="50" class="st11"/></g><circle cx="381.3" cy="600" r="50" class="st12"/><g><circle cx="331.3" cy="650" r="50" class="st13"/><circle cx="431.3" cy="650" r="50" class="st13"/></g><circle cx="381.3" cy="700" r="50" class="st14"/><g><circle cx="331.3" cy="750" r="50" class="st15"/><circle cx="431.3" cy="750" r="50" class="st15"/></g><circle cx="381.3" cy="800" r="50" class="st16"/><g><circle cx="331.3" cy="850" r="50" class="st17"/><circle cx="431.3" cy="850" r="50" class="st17"/></g><circle cx="381.3" cy="900" r="50" class="st18"/><g><circle cx="331.3" cy="950" r="50" class="st19"/><circle cx="431.3" cy="950" r="50" class="st19"/></g><circle cx="381.3" cy="1000" r="50" class="st20"/></g><rect width="100" height="1000" x="412.6" class="st0"/><g><circle cx="462.6" cy="0" r="50" class="st0"/><g><circle cx="412.6" cy="50" r="50" class="st1"/><circle cx="512.6" cy="50" r="50" class="st1"/></g><circle cx="462.6" cy="100" r="50" class="st2"/><g><circle cx="412.6" cy="150" r="50" class="st3"/><circle cx="512.6" cy="150" r="50" class="st3"/></g><circle cx="462.6" cy="200" r="50" class="st4"/><g><circle cx="412.6" cy="250" r="50" class="st5"/><circle cx="512.6" cy="250" r="50" class="st5"/></g><circle cx="462.6" cy="300" r="50" class="st6"/><g><circle cx="412.6" cy="350" r="50" class="st7"/><circle cx="512.6" cy="350" r="50" class="st7"/></g><circle cx="462.6" cy="400" r="50" class="st8"/><g><circle cx="412.6" cy="450" r="50" class="st9"/><circle cx="512.6" cy="450" r="50" class="st9"/></g><circle cx="462.6" cy="500" r="50" class="st10"/><g><circle cx="412.6" cy="550" r="50" class="st11"/><circle cx="512.6" cy="550" r="50" class="st11"/></g><circle cx="462.6" cy="600" r="50" class="st12"/><g><circle cx="412.6" cy="650" r="50" class="st13"/><circle cx="512.6" cy="650" r="50" class="st13"/></g><circle cx="462.6" cy="700" r="50" class="st14"/><g><circle cx="412.6" cy="750" r="50" class="st15"/><circle cx="512.6" cy="750" r="50" class="st15"/></g><circle cx="462.6" cy="800" r="50" class="st16"/><g><circle cx="412.6" cy="850" r="50" class="st17"/><circle cx="512.6" cy="850" r="50" class="st17"/></g><circle cx="462.6" cy="900" r="50" class="st18"/><g><circle cx="412.6" cy="950" r="50" class="st19"/><circle cx="512.6" cy="950" r="50" class="st19"/></g><circle cx="462.6" cy="1000" r="50" class="st20"/></g></svg>