<svg enable-background="new 0 0 24 24" height="512" viewBox="0 0 24 24" width="512" xmlns="http://www.w3.org/2000/svg"><path d="m21.759 12.527c-.153-.335-.153-.719 0-1.055l.804-1.771c.3-.659.313-1.422.036-2.091-.278-.67-.825-1.199-1.504-1.454l-1.822-.684c-.345-.129-.617-.401-.746-.747l-.684-1.822c-.253-.677-.783-1.225-1.452-1.503-.67-.276-1.432-.264-2.092.036l-1.772.805c-.336.152-.721.152-1.055 0l-1.771-.805c-.66-.301-1.422-.313-2.092-.036-.669.278-1.199.826-1.453 1.504l-.684 1.822c-.129.345-.401.617-.746.746l-1.822.684c-.678.255-1.226.784-1.504 1.454-.276.669-.263 1.432.036 2.09l.805 1.772c.152.335.152.72 0 1.056l-.805 1.771c-.3.659-.313 1.422-.036 2.091.278.67.825 1.199 1.504 1.454l1.822.684c.345.129.617.401.746.747l.684 1.822c.254.677.784 1.225 1.453 1.503.671.277 1.432.265 2.092-.036l1.772-.805c.336-.152.721-.152 1.055 0l1.772.805c.344.156.715.235 1.087.235.342 0 .684-.066 1.005-.199.669-.277 1.199-.825 1.453-1.503l.684-1.822c.129-.345.402-.617.746-.746l1.822-.684c.679-.254 1.226-.784 1.504-1.454.277-.669.264-1.432-.036-2.09z" fill="#2196f3"/><path d="m18.108 11.145-2.575 2.639.609 3.734c.041.255-.066.512-.278.66-.116.082-.252.123-.388.123-.113 0-.225-.028-.327-.084l-3.149-1.741-3.149 1.741c-.226.125-.504.111-.715-.039-.212-.149-.319-.406-.278-.66l.609-3.734-2.575-2.639c-.177-.181-.237-.446-.156-.686.08-.24.287-.414.538-.453l3.531-.54 1.586-3.377c.221-.474 1-.474 1.222 0l1.586 3.377 3.531.54c.25.038.458.213.538.453.078.24.017.505-.16.686z" fill="#eceff1"/><path d="m18.363 9.783-3.923-.6-1.762-3.752c-.246-.526-1.111-.526-1.357 0l-1.761 3.753-3.923.6c-.278.042-.509.236-.598.503-.09.267-.022.561.174.762l2.861 2.932-.677 4.149c-.046.283.073.568.309.734.235.166.544.182.795.043l3.499-1.935 3.499 1.935c.113.062.238.093.363.093.151 0 .303-.046.432-.137.235-.166.354-.451.309-.734l-.677-4.149 2.861-2.932c.196-.201.264-.496.174-.762-.089-.266-.319-.46-.598-.503zm-3.775 3.421c-.166.17-.241.41-.203.645l.489 2.998-2.511-1.388c-.113-.062-.238-.094-.363-.094s-.25.031-.363.094l-2.511 1.388.489-2.998c.038-.235-.037-.474-.203-.645l-2.106-2.158 2.876-.439c.247-.038.459-.196.565-.422l1.253-2.67 1.253 2.668c.106.226.318.385.565.422l2.876.439z"/><path d="m23.777 7.122c-.713-1.72-2.355-1.73-3.695-2.375-1.514-.568-.91-3.574-3.203-4.524-1.725-.712-2.892.444-4.293.934-1.48.67-3.167-1.885-5.465-.934-1.717.711-1.758 2.415-2.374 3.695-.564 1.506-3.575.916-4.524 3.204-.71 1.717.465 2.951.935 4.292.677 1.493-1.893 3.148-.935 5.464.713 1.72 2.355 1.73 3.695 2.375 1.514.568.91 3.574 3.203 4.524 1.721.712 2.949-.464 4.293-.934 1.251-.566 2.673 1.155 4.349 1.155 2.666 0 2.95-2.795 3.49-3.917.564-1.506 3.575-.916 4.524-3.204.71-1.717-.465-2.951-.934-4.292-.67-1.468 1.883-3.171.934-5.463zm-2.298 6.085c.454 1.166 1.921 3.199.101 3.882-1.264.617-3.052.658-3.73 2.466-.707 1.611-.638 2.461-1.544 2.836-1.462.61-3.169-1.978-5.512-.914-1.167.456-3.199 1.923-3.883.103l-.76-2.024c-.911-2.428-3.907-1.721-4.543-3.251-.373-.904.275-1.458.914-3.098 1.074-2.362-1.548-3.976-.914-5.511.374-.901 1.223-.837 2.837-1.544 2.394-.897 1.761-3.926 3.25-4.543 1.508-.622 3.133 1.994 5.512.914 1.166-.455 3.198-1.922 3.882-.102.614 1.258.661 3.054 2.466 3.731 1.146.503 3.621.903 2.817 2.673-.459 1.336-1.693 2.628-.893 4.382z"/></svg>