<?xml version="1.0" encoding="utf-8"?>
<!-- Generator: Adobe Illustrator 23.0.2, SVG Export Plug-In . SVG Version: 6.00 Build 0)  -->
<svg version="1.1" id="Layer_1" xmlns="http://www.w3.org/2000/svg" xmlns:xlink="http://www.w3.org/1999/xlink" x="0px" y="0px"
	 viewBox="0 0 1125 2436" style="enable-background:new 0 0 1125 2436;" xml:space="preserve">
<style type="text/css">
	.st0{fill:#B4003A;}
	.st1{fill:#A51C45;}
	.st2{fill:#C92254;}
	.st3{fill:#EC2863;}
	.st4{fill:#B34766;}
	.st5{fill:#D9577B;}
	.st6{fill:#FF6691;}
</style>
<g>
	<rect x="78" y="0" class="st0" width="78" height="78"/>
	<g>
		<polygon class="st1" points="117,22.3 103,36.3 105.9,39.2 117,28.1 		"/>
		<polygon class="st2" points="117,22.3 117,28.1 128.2,39.2 131.1,36.3 		"/>
		<polygon class="st1" points="117,63.6 117,69.5 144.6,41.9 144.6,36 		"/>
		<polygon class="st2" points="117,63.6 89.4,36.1 89.4,41.9 117,69.5 		"/>
		<path class="st3" d="M117,8.5L89.4,36.1L117,63.6l27.6-27.6L117,8.5z M117,49.9l-13.8-13.8L117,22.3l13.8,13.8L117,49.9z"/>
		<polygon class="st4" points="78,61.3 78,67.1 89.2,78.2 92.1,75.3 		"/>
		<polygon class="st5" points="105.6,78 105.6,75 102.6,78 		"/>
		<polygon class="st6" points="88.8,78 102.6,78 105.6,75.1 78,47.5 78,61.3 91.8,75.1 		"/>
		<polygon class="st5" points="156,61.3 142,75.3 144.9,78.2 156,67.1 		"/>
		<polygon class="st4" points="131.3,78 128.4,75.1 128.4,78 		"/>
		<polygon class="st6" points="145.1,78 142.2,75.1 156,61.3 156,61.3 156,47.5 156,47.5 128.4,75.1 131.3,78 		"/>
		<polygon class="st4" points="128.4,0 128.4,2.9 156,30.5 156,24.6 131.3,0 		"/>
		<polygon class="st6" points="156,10.8 156,10.9 145.1,0 131.3,0 156,24.6 156,24.6 		"/>
		<polygon class="st5" points="102.6,0 78,24.6 78,30.5 105.6,2.9 105.6,0 		"/>
		<polygon class="st6" points="78,24.6 102.6,0 88.8,0 78,10.8 		"/>
	</g>
</g>
<g>
	<rect y="78" class="st0" width="78" height="78"/>
	<g>
		<polygon class="st1" points="39,100.3 25,114.3 27.9,117.2 39,106.1 		"/>
		<polygon class="st2" points="39,100.3 39,106.1 50.2,117.2 53.1,114.3 		"/>
		<polygon class="st1" points="39,141.6 39,147.5 66.6,119.9 66.6,114 		"/>
		<polygon class="st2" points="39,141.6 11.4,114.1 11.4,119.9 39,147.5 		"/>
		<path class="st3" d="M39,86.5l-27.6,27.6L39,141.6l27.6-27.6L39,86.5z M39,127.9l-13.8-13.8L39,100.3l13.8,13.8L39,127.9z"/>
		<polygon class="st4" points="0,139.3 0,145.1 11.2,156.2 14.1,153.3 		"/>
		<polygon class="st5" points="27.6,156 27.6,153 24.6,156 		"/>
		<polygon class="st6" points="10.8,156 24.6,156 27.6,153.1 0,125.5 0,139.3 13.8,153.1 		"/>
		<polygon class="st5" points="78,139.3 64,153.3 66.9,156.2 78,145.1 		"/>
		<polygon class="st4" points="53.3,156 50.4,153.1 50.4,156 		"/>
		<polygon class="st6" points="67.1,156 64.2,153.1 78,139.3 78,139.3 78,125.5 78,125.5 50.4,153.1 53.3,156 		"/>
		<polygon class="st4" points="50.4,78 50.4,80.9 78,108.5 78,102.6 53.3,78 		"/>
		<polygon class="st6" points="78,88.8 78,88.9 67.1,78 53.3,78 78,102.6 78,102.6 		"/>
		<polygon class="st5" points="24.6,78 0,102.6 0,108.5 27.6,80.9 27.6,78 		"/>
		<polygon class="st6" points="0,102.6 24.6,78 10.8,78 0,88.8 		"/>
	</g>
</g>
</svg>
