<svg id="Capa_1" enable-background="new 0 0 510 510" height="512" viewBox="0 0 510 510" width="512" xmlns="http://www.w3.org/2000/svg" xmlns:xlink="http://www.w3.org/1999/xlink"><linearGradient id="lg1"><stop offset="0" stop-color="#ffda45"/><stop offset="1" stop-color="#ffa425"/></linearGradient><linearGradient id="SVGID_1_" gradientUnits="userSpaceOnUse" x1="209.541" x2="281.996" xlink:href="#lg1" y1="366.981" y2="373.881"/><linearGradient id="lg2"><stop offset="0" stop-color="#ffda45" stop-opacity="0"/><stop offset="1" stop-color="#fcee21"/></linearGradient><linearGradient id="SVGID_2_" gradientUnits="userSpaceOnUse" x1="285.998" x2="219.457" xlink:href="#lg2" y1="370.376" y2="452.196"/><linearGradient id="SVGID_3_" gradientUnits="userSpaceOnUse" x1="7.707" x2="233.797" xlink:href="#lg1" y1="159.668" y2="159.668"/><linearGradient id="SVGID_4_" gradientUnits="userSpaceOnUse" x1="276.203" x2="502.293" xlink:href="#lg1" y1="159.668" y2="159.668"/><linearGradient id="SVGID_5_" gradientUnits="userSpaceOnUse" x1="175.122" x2="471.571" xlink:href="#lg1" y1="91.761" y2="247.712"/><linearGradient id="SVGID_6_" gradientUnits="userSpaceOnUse" x1="265.162" x2="513.538" y1="162.024" y2="185.841"><stop offset="0" stop-color="#ffda45" stop-opacity="0"/><stop offset="1" stop-color="#b53759"/></linearGradient><linearGradient id="SVGID_7_" gradientUnits="userSpaceOnUse" x1="294.292" x2="74.036" xlink:href="#lg2" y1="160.294" y2="51.609"/><radialGradient id="SVGID_8_" cx="253.901" cy="52.814" gradientTransform="matrix(1 0 0 .19 0 42.8)" gradientUnits="userSpaceOnUse" r="209.573"><stop offset="0" stop-color="#ffa425"/><stop offset=".3664" stop-color="#ffa727"/><stop offset=".5929" stop-color="#ffaf2c"/><stop offset=".7815" stop-color="#ffbe34"/><stop offset=".9483" stop-color="#ffd240"/><stop offset="1" stop-color="#ffda45"/></radialGradient><linearGradient id="SVGID_9_" gradientUnits="userSpaceOnUse" x1="255" x2="255" xlink:href="#lg1" y1="64.697" y2="27.335"/><linearGradient id="SVGID_10_" gradientUnits="userSpaceOnUse" x1="255.462" x2="258.982" xlink:href="#lg1" y1="36.367" y2="112.401"/><linearGradient id="SVGID_11_" gradientUnits="userSpaceOnUse" x1="228.323" x2="288.962" y1="408.603" y2="530.787"><stop offset="0" stop-color="#7e8595"/><stop offset="1" stop-color="#555a66"/></linearGradient><linearGradient id="SVGID_12_" gradientUnits="userSpaceOnUse" x1="254.076" x2="116.791" y1="462.913" y2="359.834"><stop offset="0" stop-color="#bec3d2" stop-opacity="0"/><stop offset=".221" stop-color="#c5c9d7" stop-opacity=".221"/><stop offset=".5343" stop-color="#d7dae3" stop-opacity=".534"/><stop offset=".9014" stop-color="#f6f6f8" stop-opacity=".901"/><stop offset="1" stop-color="#fff"/></linearGradient><linearGradient id="SVGID_13_" gradientUnits="userSpaceOnUse" x1="313.967" x2="348.912" y1="429.408" y2="499.82"><stop offset="0" stop-color="#7e8595"/><stop offset="1" stop-color="#555a66" stop-opacity="0"/></linearGradient><linearGradient id="SVGID_14_" gradientUnits="userSpaceOnUse" x1="291.886" x2="255.956" y1="537.445" y2="432.076"><stop offset="0" stop-color="#555a66" stop-opacity="0"/><stop offset="1" stop-color="#555a66"/></linearGradient><linearGradient id="lg3"><stop offset="0" stop-color="#f9f7fc"/><stop offset="1" stop-color="#f0ddfc"/></linearGradient><linearGradient id="SVGID_15_" gradientUnits="userSpaceOnUse" x1="244.11" x2="265.375" xlink:href="#lg3" y1="435.658" y2="475.245"/><linearGradient id="SVGID_16_" gradientTransform="matrix(-1 0 0 -1 425.063 836.519)" gradientUnits="userSpaceOnUse" x1="225.777" x2="226.913" xlink:href="#lg3" y1="397.02" y2="399.134"/><linearGradient id="SVGID_17_" gradientTransform="matrix(-1 0 0 -1 425.063 836.519)" gradientUnits="userSpaceOnUse" x1="113.186" x2="114.322" xlink:href="#lg3" y1="397.02" y2="399.134"/><linearGradient id="SVGID_18_" gradientTransform="matrix(-1 0 0 -1 425.063 836.519)" gradientUnits="userSpaceOnUse" x1="225.777" x2="226.913" xlink:href="#lg3" y1="361.99" y2="364.104"/><linearGradient id="SVGID_19_" gradientTransform="matrix(-1 0 0 -1 425.063 836.519)" gradientUnits="userSpaceOnUse" x1="113.186" x2="114.322" xlink:href="#lg3" y1="361.99" y2="364.104"/><linearGradient id="SVGID_20_" gradientTransform="matrix(-.379 -.925 .925 -.379 28.175 656.013)" gradientUnits="userSpaceOnUse" x1="369.628" x2="333.504" y1="360.485" y2="207.468"><stop offset="0" stop-color="#ffda45" stop-opacity="0"/><stop offset="1" stop-color="#fff"/></linearGradient><path d="m276.416 341.968-4.721-26.864h-33.39l-4.721 26.864c-4.987 28.379-20.195 52.955-41.812 67.57-5.651 3.821-3.308 13.827 3.238 13.827h119.979c6.546 0 8.89-10.006 3.238-13.827-21.616-14.616-36.824-39.192-41.811-67.57z" fill="url(#SVGID_1_)"/><path d="m318.228 409.538c-21.617-14.615-36.824-39.191-41.812-67.57l-4.721-26.864h-15.646l-4.721 26.864c-4.987 28.379-20.195 52.955-41.812 67.57-5.651 3.821-3.308 13.827 3.238 13.827h102.234c6.548 0 8.891-10.006 3.24-13.827z" fill="url(#SVGID_2_)"/><path d="m120.752 272.713c-62.333 0-113.045-50.712-113.045-113.045s50.712-113.045 113.045-113.045 113.045 50.712 113.045 113.045-50.712 113.045-113.045 113.045zm0-199.687c-47.774 0-86.642 38.868-86.642 86.642s38.867 86.642 86.642 86.642 86.642-38.868 86.642-86.642-38.868-86.642-86.642-86.642z" fill="url(#SVGID_3_)"/><path d="m389.248 272.713c-62.333 0-113.045-50.712-113.045-113.045s50.712-113.045 113.045-113.045 113.045 50.712 113.045 113.045-50.712 113.045-113.045 113.045zm0-199.687c-47.774 0-86.642 38.868-86.642 86.642s38.868 86.642 86.642 86.642 86.642-38.868 86.642-86.642-38.868-86.642-86.642-86.642z" fill="url(#SVGID_4_)"/><path d="m439.221 25.889v.053l-.118.871c0 .026-.012.053-.012.079l-13.844 108.611c-9.549 74.946-50.88 140.163-111.013 175.214-37.107 21.638-81.361 21.638-118.467 0-30.066-17.532-55.436-42.589-74.474-72.649-19.05-30.047-31.759-65.098-36.539-102.564l-13.845-108.612c0-.026-.012-.053-.012-.079l-.118-.871v-.053c0-14.298 82.473-25.889 184.221-25.889s184.221 11.591 184.221 25.889z" fill="url(#SVGID_5_)"/><path d="m369.425 5.6-12.553 98.481c-9.549 74.946-50.88 140.163-111.013 175.214-22.981 13.401-48.703 18.493-73.771 15.295 7.52 5.903 15.414 11.309 23.678 16.128 37.107 21.638 81.361 21.638 118.468 0 60.133-35.051 101.464-100.267 111.013-175.214l13.844-108.611c0-.026.012-.053.012-.079l.118-.871v-.053c0-8.223-27.274-15.548-69.796-20.29z" fill="url(#SVGID_6_)"/><path d="m409.467 25.889v.053l-.099.871c0 .026-.01.053-.01.079l-11.608 108.611c-8.007 74.946-42.662 140.163-93.083 175.214-31.114 21.638-68.22 21.638-99.334 0-25.21-17.532-46.482-42.589-62.446-72.649-15.974-30.047-26.629-65.098-30.637-102.564l-11.608-108.612c0-.026-.01-.053-.01-.079l-.099-.871v-.053c0-14.298 69.152-25.889 154.467-25.889s154.467 11.591 154.467 25.889z" fill="url(#SVGID_7_)"/><path d="m442.412 25.889v.053c0 .29-.048.581-.12.871 0 .026-.012.053-.012.079-3.816 13.849-86.201 24.899-187.28 24.899s-183.464-11.05-187.28-24.899c0-.026-.012-.053-.012-.079-.072-.29-.12-.581-.12-.871v-.053c0-14.298 83.901-25.889 187.412-25.889s187.412 11.591 187.412 25.889z" fill="url(#SVGID_8_)"/><path d="m417.345 38.842c-32.401-7.739-92.966-12.947-162.345-12.947s-129.944 5.208-162.345 12.947c32.404 7.743 92.97 12.948 162.345 12.948s129.941-5.205 162.345-12.948z" fill="url(#SVGID_9_)"/><path d="m255 45.399c-86.714 0-159.767-9.543-181.902-22.56-2.678-1.575-5.869.783-5.51 4.061l2.165 19.756c.599 5.463 3.857 10.154 8.544 12.274 34.85 15.757 100.926 26.393 176.703 26.393s141.853-10.636 176.703-26.393c4.687-2.119 7.946-6.81 8.544-12.274l2.165-19.756c.359-3.278-2.832-5.636-5.51-4.061-22.135 13.017-95.188 22.56-181.902 22.56z" fill="url(#SVGID_10_)"/><path d="m334.564 510h-159.128c-6.739 0-12.202-5.463-12.202-12.202v-70.884c0-6.739 5.463-12.202 12.202-12.202h159.128c6.739 0 12.202 5.463 12.202 12.202v70.884c0 6.739-5.463 12.202-12.202 12.202z" fill="url(#SVGID_11_)"/><path d="m180.999 424.751c-4.267 0-7.726 3.459-7.726 7.726v68.514c0 2.656.545 5.184 1.527 7.481 2.297.982 4.825 1.527 7.481 1.527h145.438c10.52 0 19.047-8.528 19.047-19.047v-57.192c0-2.656-.545-5.184-1.527-7.481-2.297-.982-4.825-1.527-7.481-1.527h-156.759z" fill="url(#SVGID_12_)"/><path d="m334.466 414.712h-15.924c10.52 0 19.047 8.528 19.047 19.047v57.193c0 10.52-8.528 19.047-19.047 19.047h9.177c10.52 0 19.047-8.528 19.047-19.047v-63.94c0-6.793-5.507-12.3-12.3-12.3z" fill="url(#SVGID_13_)"/><path d="m346.766 497.798v-37.861l-27.858-27.858c-.677-.938-1.772-1.555-3.017-1.555h-121.782c-2.058 0-3.726 1.668-3.726 3.726v43.362c0 1.245.617 2.341 1.555 3.017l29.37 29.371h113.256c6.739 0 12.202-5.463 12.202-12.202z" fill="url(#SVGID_14_)"/><path d="m361.039 510h-212.078c-3.536 0-6.402-2.866-6.402-6.402 0-6.233 5.053-11.285 11.285-11.285h202.312c6.233 0 11.285 5.053 11.285 11.285 0 3.536-2.866 6.402-6.402 6.402z" fill="#555a66"/><path d="m315.891 481.338h-121.782c-2.058 0-3.726-1.668-3.726-3.726v-43.362c0-2.058 1.668-3.726 3.726-3.726h121.782c2.058 0 3.726 1.668 3.726 3.726v43.362c0 2.058-1.668 3.726-3.726 3.726z" fill="url(#SVGID_15_)"/><circle cx="198.705" cy="438.416" fill="url(#SVGID_16_)" r="2.757"/><circle cx="311.295" cy="438.416" fill="url(#SVGID_17_)" r="2.757"/><circle cx="198.705" cy="473.446" fill="url(#SVGID_18_)" r="2.757"/><circle cx="311.295" cy="473.446" fill="url(#SVGID_19_)" r="2.757"/><path d="m150.21 83.988c35.803-14.683 85.304 23.348 110.564 84.943s16.713 123.431-19.09 138.113c-35.803 14.683-85.304-23.348-110.564-84.943s-16.713-123.43 19.09-138.113z" fill="url(#SVGID_20_)"/></svg>