<?xml version="1.0" encoding="utf-8"?>
<!-- Generator: Adobe Illustrator 23.0.2, SVG Export Plug-In . SVG Version: 6.00 Build 0)  -->
<svg version="1.1" xmlns="http://www.w3.org/2000/svg" xmlns:xlink="http://www.w3.org/1999/xlink" x="0px" y="0px"
	 viewBox="0 0 56 56" style="enable-background:new 0 0 56 56;" xml:space="preserve">
<style type="text/css">
	.st0{fill:#FFD949;}
	.st1{fill:#F4BF1A;}
	.st2{fill:#DCA815;}
	.st3{fill:#FFFFFF;stroke:#231F20;stroke-width:0.4394;stroke-miterlimit:10;}
	.st4{fill:none;stroke:#FFD949;stroke-width:0.5;stroke-miterlimit:10;}
	.st5{fill:none;stroke:#FFD949;stroke-miterlimit:10;}
	.st6{fill:none;}
	.st7{font-family:'MyriadPro-Regular';}
	.st8{font-size:12px;}
</style>
<g id="Capa_1">
	<g id="XMLID_100_">
		<path id="XMLID_99_" class="st0" d="M-45,56c-13.5,0-24.5-12.5-24.5-28S-58.5,0-45,0s24.5,12.5,24.5,28S-31.5,56-45,56"/>
		<path id="XMLID_132_" class="st1" d="M-69.5,28c0-14.3,9.4-26.1,21.5-27.8C-49,0.1-50,0-51,0c-13.5,0-24.5,12.5-24.5,28
			s11,28,24.5,28c1,0,2-0.1,3-0.2C-60.1,54.1-69.5,42.3-69.5,28"/>
		<path id="XMLID_115_" class="st1" d="M-44.9,50.5L-44.9,50.5c-0.8,0-1.5,0-2.2-0.1c-0.5-0.1-0.9-0.6-0.9-1.1
			c0.1-0.5,0.6-0.9,1.1-0.9c0.6,0.1,1.2,0.1,1.9,0.1c0.6,0,1,0.4,1,1C-44,50.1-44.4,50.5-44.9,50.5 M-39.1,49.4
			c-0.4,0-0.8-0.2-0.9-0.6c-0.2-0.5,0.1-1.1,0.6-1.3c0.6-0.2,1.2-0.5,1.7-0.8c0.5-0.3,1.1-0.1,1.3,0.4c0.3,0.5,0.1,1.1-0.4,1.3
			c-0.6,0.3-1.3,0.6-1.9,0.8C-38.9,49.4-39,49.4-39.1,49.4 M-52.6,48.7c-0.2,0-0.3,0-0.5-0.1c-0.6-0.3-1.2-0.7-1.8-1
			c-0.5-0.3-0.6-0.9-0.3-1.4c0.3-0.5,0.9-0.6,1.4-0.3c0.5,0.3,1.1,0.7,1.6,0.9c0.5,0.3,0.7,0.9,0.4,1.3
			C-51.9,48.5-52.3,48.7-52.6,48.7 M-32.5,45.1c-0.3,0-0.5-0.1-0.7-0.3c-0.4-0.4-0.4-1,0-1.4c0.4-0.4,0.9-0.9,1.3-1.4
			c0.3-0.4,1-0.5,1.4-0.1s0.5,1,0.1,1.4c-0.4,0.5-0.9,1.1-1.4,1.5C-32,45-32.3,45.1-32.5,45.1 M-58.7,43.7c-0.3,0-0.6-0.1-0.8-0.4
			c-0.4-0.5-0.9-1.1-1.2-1.7c-0.3-0.5-0.2-1.1,0.3-1.4c0.5-0.3,1.1-0.2,1.4,0.3c0.4,0.5,0.7,1,1.1,1.5c0.4,0.4,0.3,1.1-0.1,1.4
			C-58.3,43.6-58.5,43.7-58.7,43.7 M-28.1,38.6c-0.1,0-0.3,0-0.4-0.1c-0.5-0.2-0.7-0.8-0.5-1.3c0.3-0.6,0.5-1.2,0.7-1.8
			c0.2-0.5,0.7-0.8,1.3-0.6c0.5,0.2,0.8,0.7,0.6,1.3c-0.2,0.7-0.5,1.3-0.7,1.9C-27.4,38.4-27.7,38.6-28.1,38.6 M-62.6,36.8
			c-0.4,0-0.8-0.3-0.9-0.7c-0.2-0.6-0.4-1.3-0.6-2c-0.1-0.5,0.2-1.1,0.7-1.2c0.5-0.1,1.1,0.2,1.2,0.7c0.2,0.6,0.3,1.2,0.5,1.8
			c0.2,0.5-0.1,1.1-0.6,1.3C-62.3,36.8-62.4,36.8-62.6,36.8 M-26.2,30.9C-26.3,30.9-26.3,30.9-26.2,30.9c-0.6,0-1-0.5-1-1.1
			c0-0.6,0.1-1.2,0.1-1.8c0-0.6,0.4-1,1-1s1,0.4,1,1V28c0,0.7,0,1.3-0.1,2C-25.3,30.5-25.7,30.9-26.2,30.9 M-63.8,29
			c-0.6,0-1-0.4-1-1v0c0-0.7,0-1.4,0.1-2c0-0.5,0.5-1,1.1-0.9c0.6,0,1,0.5,0.9,1.1c0,0.6-0.1,1.3-0.1,1.9
			C-62.8,28.6-63.3,29-63.8,29 M-26.9,23c-0.4,0-0.9-0.3-1-0.8c-0.2-0.6-0.3-1.2-0.5-1.8c-0.2-0.5,0.1-1.1,0.6-1.3
			c0.5-0.2,1.1,0.1,1.3,0.6c0.2,0.6,0.4,1.3,0.6,2c0.1,0.5-0.2,1.1-0.7,1.2C-26.7,23-26.8,23-26.9,23 M-62.6,21.2
			c-0.1,0-0.2,0-0.3-0.1c-0.5-0.2-0.8-0.7-0.6-1.3c0.2-0.6,0.5-1.3,0.7-1.9c0.2-0.5,0.8-0.7,1.3-0.5c0.5,0.2,0.7,0.8,0.5,1.3
			c-0.3,0.6-0.5,1.2-0.7,1.8C-61.8,21-62.2,21.2-62.6,21.2 M-30.1,15.8c-0.3,0-0.6-0.2-0.8-0.4c-0.4-0.5-0.7-1-1.1-1.5
			c-0.4-0.4-0.3-1.1,0.1-1.4c0.4-0.4,1.1-0.3,1.4,0.1c0.4,0.5,0.9,1.1,1.2,1.7c0.3,0.5,0.2,1.1-0.3,1.4
			C-29.7,15.8-29.9,15.8-30.1,15.8 M-58.8,14.3c-0.2,0-0.4-0.1-0.6-0.2c-0.4-0.3-0.5-1-0.1-1.4c0.4-0.5,0.9-1.1,1.4-1.5
			c0.4-0.4,1-0.4,1.4,0c0.4,0.4,0.4,1,0,1.4c-0.4,0.4-0.9,0.9-1.3,1.4C-58.2,14.2-58.5,14.3-58.8,14.3 M-35.7,10.3
			c-0.2,0-0.4-0.1-0.5-0.2c-0.5-0.3-1.1-0.7-1.6-0.9c-0.5-0.2-0.7-0.9-0.4-1.3c0.2-0.5,0.8-0.7,1.3-0.4c0.6,0.3,1.2,0.7,1.8,1
			c0.5,0.3,0.6,0.9,0.3,1.4C-35,10.1-35.4,10.3-35.7,10.3 M-52.7,9.3c-0.4,0-0.7-0.2-0.9-0.5c-0.3-0.5-0.1-1.1,0.4-1.3
			c0.6-0.3,1.3-0.6,1.9-0.8c0.5-0.2,1.1,0.1,1.3,0.6c0.2,0.5-0.1,1.1-0.6,1.3c-0.6,0.2-1.2,0.5-1.7,0.8C-52.4,9.3-52.5,9.3-52.7,9.3
			 M-43.1,7.6c0,0-0.1,0-0.1,0c-0.6-0.1-1.2-0.1-1.8-0.1c-0.6,0-1-0.4-1-1s0.4-1,1-1h0c0.7,0,1.4,0,2,0.1c0.5,0.1,0.9,0.6,0.9,1.1
			C-42.1,7.2-42.6,7.6-43.1,7.6"/>
		<path id="XMLID_114_" class="st2" d="M-69.5,29h-6c0,0.7,0.1,1.3,0.1,2h6C-69.4,30.3-69.5,29.7-69.5,29"/>
		<path id="XMLID_113_" class="st2" d="M-69.3,24h-6c-0.1,0.7-0.1,1.3-0.2,2h6C-69.4,25.3-69.4,24.7-69.3,24"/>
		<path id="XMLID_112_" class="st2" d="M-69,34h-6c0.1,0.7,0.3,1.3,0.5,2h6C-68.7,35.3-68.8,34.7-69,34"/>
		<path id="XMLID_111_" class="st2" d="M-67.6,39h-6c0.3,0.7,0.5,1.3,0.8,2h6C-67,40.3-67.3,39.7-67.6,39"/>
		<path id="XMLID_110_" class="st2" d="M-68.2,19h-6c-0.2,0.7-0.4,1.3-0.5,2h6C-68.6,20.3-68.4,19.7-68.2,19"/>
		<path id="XMLID_109_" class="st2" d="M-66.2,14h-6c-0.3,0.7-0.6,1.3-0.9,2h6C-66.9,15.3-66.6,14.7-66.2,14"/>
		<path id="XMLID_108_" class="st2" d="M-62.2,8h-6c-0.6,0.6-1.1,1.3-1.6,2h6C-63.3,9.3-62.7,8.6-62.2,8"/>
		<path id="XMLID_107_" class="st2" d="M-56,3h-6c-1,0.6-2,1.3-2.9,2h6C-58,4.3-57.1,3.6-56,3"/>
		<path id="XMLID_106_" class="st2" d="M-64.5,45h-6c0.5,0.7,1,1.4,1.5,2h6C-63.5,46.4-64,45.7-64.5,45"/>
		<path id="XMLID_105_" class="st2" d="M-66.2,50c0.8,0.7,1.6,1.4,2.5,2h6c-0.9-0.6-1.7-1.3-2.5-2H-66.2z"/>
	</g>
</g>
<g id="Layer_2">
	<g id="XMLID_1_">
		<path id="XMLID_14_" class="st0" d="M31,56C17.5,56,6.5,43.5,6.5,28S17.5,0,31,0s24.5,12.5,24.5,28S44.5,56,31,56"/>
		<path id="XMLID_13_" class="st1" d="M6.5,28C6.5,13.7,15.9,1.9,28,0.2C27,0.1,26,0,25,0C11.5,0,0.5,12.5,0.5,28s11,28,24.5,28
			c1,0,2-0.1,3-0.2C15.9,54.1,6.5,42.3,6.5,28"/>
		<path id="XMLID_12_" class="st1" d="M31.1,50.5L31.1,50.5c-0.8,0-1.5,0-2.2-0.1c-0.5-0.1-0.9-0.6-0.9-1.1c0.1-0.5,0.6-0.9,1.1-0.9
			c0.6,0.1,1.2,0.1,1.9,0.1c0.6,0,1,0.4,1,1C32,50.1,31.6,50.5,31.1,50.5 M36.9,49.4c-0.4,0-0.8-0.2-0.9-0.6
			c-0.2-0.5,0.1-1.1,0.6-1.3c0.6-0.2,1.2-0.5,1.7-0.8c0.5-0.3,1.1-0.1,1.3,0.4c0.3,0.5,0.1,1.1-0.4,1.3c-0.6,0.3-1.3,0.6-1.9,0.8
			C37.1,49.4,37,49.4,36.9,49.4 M23.4,48.7c-0.2,0-0.3,0-0.5-0.1c-0.6-0.3-1.2-0.7-1.8-1c-0.5-0.3-0.6-0.9-0.3-1.4
			c0.3-0.5,0.9-0.6,1.4-0.3c0.5,0.3,1.1,0.7,1.6,0.9c0.5,0.3,0.7,0.9,0.4,1.3C24.1,48.5,23.7,48.7,23.4,48.7 M43.5,45.1
			c-0.3,0-0.5-0.1-0.7-0.3c-0.4-0.4-0.4-1,0-1.4c0.4-0.4,0.9-0.9,1.3-1.4c0.3-0.4,1-0.5,1.4-0.1s0.5,1,0.1,1.4
			c-0.4,0.5-0.9,1.1-1.4,1.5C44,45,43.7,45.1,43.5,45.1 M17.3,43.7c-0.3,0-0.6-0.1-0.8-0.4c-0.4-0.5-0.9-1.1-1.2-1.7
			c-0.3-0.5-0.2-1.1,0.3-1.4c0.5-0.3,1.1-0.2,1.4,0.3c0.4,0.5,0.7,1,1.1,1.5c0.4,0.4,0.3,1.1-0.1,1.4C17.7,43.6,17.5,43.7,17.3,43.7
			 M47.9,38.6c-0.1,0-0.3,0-0.4-0.1c-0.5-0.2-0.7-0.8-0.5-1.3c0.3-0.6,0.5-1.2,0.7-1.8c0.2-0.5,0.7-0.8,1.3-0.6
			c0.5,0.2,0.8,0.7,0.6,1.3c-0.2,0.7-0.5,1.3-0.7,1.9C48.6,38.4,48.3,38.6,47.9,38.6 M13.4,36.8c-0.4,0-0.8-0.3-0.9-0.7
			c-0.2-0.6-0.4-1.3-0.6-2c-0.1-0.5,0.2-1.1,0.7-1.2c0.5-0.1,1.1,0.2,1.2,0.7c0.2,0.6,0.3,1.2,0.5,1.8c0.2,0.5-0.1,1.1-0.6,1.3
			C13.7,36.8,13.6,36.8,13.4,36.8 M49.8,30.9C49.7,30.9,49.7,30.9,49.8,30.9c-0.6,0-1-0.5-1-1.1c0-0.6,0.1-1.2,0.1-1.8
			c0-0.6,0.4-1,1-1s1,0.4,1,1V28c0,0.7,0,1.3-0.1,2C50.7,30.5,50.3,30.9,49.8,30.9 M12.2,29c-0.6,0-1-0.4-1-1v0c0-0.7,0-1.4,0.1-2
			c0-0.5,0.5-1,1.1-0.9c0.6,0,1,0.5,0.9,1.1c0,0.6-0.1,1.3-0.1,1.9C13.2,28.6,12.7,29,12.2,29 M49.1,23c-0.4,0-0.9-0.3-1-0.8
			c-0.2-0.6-0.3-1.2-0.5-1.8c-0.2-0.5,0.1-1.1,0.6-1.3c0.5-0.2,1.1,0.1,1.3,0.6c0.2,0.6,0.4,1.3,0.6,2c0.1,0.5-0.2,1.1-0.7,1.2
			C49.3,23,49.2,23,49.1,23 M13.4,21.2c-0.1,0-0.2,0-0.3-0.1c-0.5-0.2-0.8-0.7-0.6-1.3c0.2-0.6,0.5-1.3,0.7-1.9
			c0.2-0.5,0.8-0.7,1.3-0.5c0.5,0.2,0.7,0.8,0.5,1.3c-0.3,0.6-0.5,1.2-0.7,1.8C14.2,21,13.8,21.2,13.4,21.2 M45.9,15.8
			c-0.3,0-0.6-0.2-0.8-0.4c-0.4-0.5-0.7-1-1.1-1.5c-0.4-0.4-0.3-1.1,0.1-1.4c0.4-0.4,1.1-0.3,1.4,0.1c0.4,0.5,0.9,1.1,1.2,1.7
			c0.3,0.5,0.2,1.1-0.3,1.4C46.3,15.8,46.1,15.8,45.9,15.8 M17.2,14.3c-0.2,0-0.4-0.1-0.6-0.2c-0.4-0.3-0.5-1-0.1-1.4
			c0.4-0.5,0.9-1.1,1.4-1.5c0.4-0.4,1-0.4,1.4,0c0.4,0.4,0.4,1,0,1.4C18.8,13,18.4,13.5,18,14C17.8,14.2,17.5,14.3,17.2,14.3
			 M40.3,10.3c-0.2,0-0.4-0.1-0.5-0.2c-0.5-0.3-1.1-0.7-1.6-0.9c-0.5-0.2-0.7-0.9-0.4-1.3C38,7.4,38.6,7.2,39,7.4
			c0.6,0.3,1.2,0.7,1.8,1c0.5,0.3,0.6,0.9,0.3,1.4C41,10.1,40.6,10.3,40.3,10.3 M23.3,9.3c-0.4,0-0.7-0.2-0.9-0.5
			c-0.3-0.5-0.1-1.1,0.4-1.3c0.6-0.3,1.3-0.6,1.9-0.8c0.5-0.2,1.1,0.1,1.3,0.6c0.2,0.5-0.1,1.1-0.6,1.3c-0.6,0.2-1.2,0.5-1.7,0.8
			C23.6,9.3,23.5,9.3,23.3,9.3 M32.9,7.6c0,0-0.1,0-0.1,0c-0.6-0.1-1.2-0.1-1.8-0.1c-0.6,0-1-0.4-1-1s0.4-1,1-1h0c0.7,0,1.4,0,2,0.1
			c0.5,0.1,0.9,0.6,0.9,1.1C33.9,7.2,33.4,7.6,32.9,7.6"/>
		<path id="XMLID_11_" class="st2" d="M6.5,29h-6c0,0.7,0.1,1.3,0.1,2h6C6.6,30.3,6.5,29.7,6.5,29"/>
		<path id="XMLID_10_" class="st2" d="M6.7,24h-6c-0.1,0.7-0.1,1.3-0.2,2h6C6.6,25.3,6.6,24.7,6.7,24"/>
		<path id="XMLID_9_" class="st2" d="M7,34H1c0.1,0.7,0.3,1.3,0.5,2h6C7.3,35.3,7.2,34.7,7,34"/>
		<path id="XMLID_8_" class="st2" d="M8.4,39h-6c0.3,0.7,0.5,1.3,0.8,2h6C9,40.3,8.7,39.7,8.4,39"/>
		<path id="XMLID_7_" class="st2" d="M7.8,19h-6c-0.2,0.7-0.4,1.3-0.5,2h6C7.4,20.3,7.6,19.7,7.8,19"/>
		<path id="XMLID_6_" class="st2" d="M9.8,14h-6c-0.3,0.7-0.6,1.3-0.9,2h6C9.1,15.3,9.4,14.7,9.8,14"/>
		<path id="XMLID_5_" class="st2" d="M13.8,8h-6c-0.6,0.6-1.1,1.3-1.6,2h6C12.7,9.3,13.3,8.6,13.8,8"/>
		<path id="XMLID_4_" class="st2" d="M20,3h-6c-1,0.6-2,1.3-2.9,2h6C18,4.3,18.9,3.6,20,3"/>
		<path id="XMLID_3_" class="st2" d="M11.5,45h-6c0.5,0.7,1,1.4,1.5,2h6C12.5,46.4,12,45.7,11.5,45"/>
		<path id="XMLID_2_" class="st2" d="M9.8,50c0.8,0.7,1.6,1.4,2.5,2h6c-0.9-0.6-1.7-1.3-2.5-2H9.8z"/>
	</g>
</g>
<g id="Layer_4">
	<g>
		<g id="XMLID_15_">
			<path id="XMLID_28_" class="st0" d="M107.1,56c-13.8,0-24.9-12.5-24.9-28S93.3,0,107.1,0S132,12.5,132,28S120.8,56,107.1,56"/>
			<path id="XMLID_27_" class="st1" d="M82.1,28c0-14.3,9.6-26.1,21.9-27.8c-1-0.1-2-0.2-3.1-0.2C87.2,0,76,12.5,76,28
				s11.2,28,24.9,28c1,0,2.1-0.1,3.1-0.2C91.7,54.1,82.1,42.3,82.1,28"/>
			<path id="XMLID_26_" class="st1" d="M107.1,50.5L107.1,50.5c-0.8,0-1.5,0-2.2-0.1c-0.6-0.1-1-0.6-0.9-1.1
				c0.1-0.5,0.6-0.9,1.1-0.9c0.6,0.1,1.3,0.1,1.9,0.1c0.6,0,1.1,0.4,1.1,1C108.1,50.1,107.7,50.5,107.1,50.5 M113.1,49.4
				c-0.4,0-0.8-0.2-1-0.6c-0.2-0.5,0.1-1.1,0.6-1.3c0.6-0.2,1.2-0.5,1.7-0.8c0.5-0.3,1.1-0.1,1.4,0.4c0.3,0.5,0.1,1.1-0.4,1.3
				c-0.6,0.3-1.3,0.6-1.9,0.8C113.3,49.4,113.2,49.4,113.1,49.4 M99.3,48.7c-0.2,0-0.3,0-0.5-0.1c-0.6-0.3-1.2-0.7-1.8-1
				c-0.5-0.3-0.6-0.9-0.3-1.4c0.3-0.5,0.9-0.6,1.4-0.3c0.5,0.3,1.1,0.7,1.6,0.9c0.5,0.3,0.7,0.9,0.4,1.3
				C100,48.5,99.7,48.7,99.3,48.7 M119.8,45.1c-0.3,0-0.5-0.1-0.7-0.3c-0.4-0.4-0.4-1,0-1.4c0.4-0.4,0.9-0.9,1.3-1.4
				c0.4-0.4,1-0.5,1.4-0.1s0.5,1,0.1,1.4c-0.4,0.5-0.9,1.1-1.4,1.5C120.3,45,120,45.1,119.8,45.1 M93.1,43.7c-0.3,0-0.6-0.1-0.8-0.4
				c-0.4-0.5-0.9-1.1-1.3-1.7c-0.3-0.5-0.2-1.1,0.3-1.4c0.5-0.3,1.1-0.2,1.4,0.3c0.4,0.5,0.7,1,1.1,1.5c0.4,0.4,0.3,1.1-0.1,1.4
				C93.5,43.6,93.3,43.7,93.1,43.7 M124.2,38.6c-0.1,0-0.3,0-0.4-0.1c-0.5-0.2-0.8-0.8-0.5-1.3c0.3-0.6,0.5-1.2,0.7-1.8
				c0.2-0.5,0.8-0.8,1.3-0.6c0.5,0.2,0.8,0.7,0.6,1.3c-0.2,0.7-0.5,1.3-0.8,1.9C125,38.4,124.6,38.6,124.2,38.6 M89.2,36.8
				c-0.4,0-0.8-0.3-1-0.7c-0.2-0.6-0.4-1.3-0.6-2c-0.1-0.5,0.2-1.1,0.7-1.2c0.5-0.1,1.1,0.2,1.2,0.7c0.2,0.6,0.3,1.2,0.5,1.8
				c0.2,0.5-0.1,1.1-0.6,1.3C89.4,36.8,89.3,36.8,89.2,36.8 M126.2,30.9C126.1,30.9,126.1,30.9,126.2,30.9c-0.6,0-1.1-0.5-1-1.1
				c0-0.6,0.1-1.2,0.1-1.8c0-0.6,0.5-1,1-1s1,0.4,1,1V28c0,0.7,0,1.3-0.1,2C127.1,30.5,126.7,30.9,126.2,30.9 M87.9,29
				c-0.6,0-1-0.4-1-1v0c0-0.7,0-1.4,0.1-2c0-0.5,0.5-1,1.1-0.9c0.6,0,1,0.5,0.9,1.1c0,0.6-0.1,1.3-0.1,1.9
				C88.9,28.6,88.4,29,87.9,29 M125.5,23c-0.5,0-0.9-0.3-1-0.8c-0.2-0.6-0.3-1.2-0.5-1.8c-0.2-0.5,0.1-1.1,0.6-1.3
				c0.5-0.2,1.1,0.1,1.3,0.6c0.2,0.6,0.4,1.3,0.6,2c0.1,0.5-0.2,1.1-0.7,1.2C125.7,23,125.6,23,125.5,23 M89.2,21.2
				c-0.1,0-0.2,0-0.3-0.1c-0.5-0.2-0.8-0.7-0.6-1.3c0.2-0.6,0.5-1.3,0.8-1.9c0.2-0.5,0.8-0.7,1.3-0.5c0.5,0.2,0.8,0.8,0.5,1.3
				c-0.3,0.6-0.5,1.2-0.7,1.8C90,21,89.6,21.2,89.2,21.2 M122.2,15.8c-0.3,0-0.6-0.2-0.8-0.4c-0.4-0.5-0.7-1-1.2-1.5
				c-0.4-0.4-0.3-1.1,0.1-1.4s1.1-0.3,1.4,0.1c0.4,0.5,0.9,1.1,1.3,1.7c0.3,0.5,0.2,1.1-0.3,1.4C122.6,15.8,122.4,15.8,122.2,15.8
				 M93,14.3c-0.2,0-0.5-0.1-0.6-0.2c-0.4-0.3-0.5-1-0.1-1.4c0.4-0.5,0.9-1.1,1.4-1.5c0.4-0.4,1-0.4,1.4,0c0.4,0.4,0.4,1,0,1.4
				c-0.4,0.4-0.9,0.9-1.3,1.4C93.6,14.2,93.3,14.3,93,14.3 M116.5,10.3c-0.2,0-0.4-0.1-0.6-0.2c-0.5-0.3-1.1-0.7-1.7-0.9
				c-0.5-0.2-0.7-0.9-0.4-1.3c0.3-0.5,0.9-0.7,1.4-0.4c0.6,0.3,1.2,0.7,1.8,1c0.5,0.3,0.6,0.9,0.3,1.4
				C117.2,10.1,116.9,10.3,116.5,10.3 M99.2,9.3c-0.4,0-0.7-0.2-0.9-0.5c-0.3-0.5-0.1-1.1,0.4-1.3c0.6-0.3,1.3-0.6,2-0.8
				c0.5-0.2,1.1,0.1,1.3,0.6c0.2,0.5-0.1,1.1-0.6,1.3c-0.6,0.2-1.2,0.5-1.7,0.8C99.6,9.3,99.4,9.3,99.2,9.3 M109,7.6
				c0,0-0.1,0-0.1,0c-0.6-0.1-1.2-0.1-1.9-0.1c-0.6,0-1-0.4-1-1s0.4-1,1-1h0c0.7,0,1.4,0,2.1,0.1c0.6,0.1,1,0.6,0.9,1.1
				C110,7.2,109.5,7.6,109,7.6"/>
			<path id="XMLID_25_" class="st2" d="M82.1,29H76c0,0.7,0.1,1.3,0.1,2h6.1C82.2,30.3,82.1,29.7,82.1,29"/>
			<path id="XMLID_24_" class="st2" d="M82.3,24h-6.1c-0.1,0.7-0.1,1.3-0.2,2h6.1C82.2,25.3,82.3,24.7,82.3,24"/>
			<path id="XMLID_23_" class="st2" d="M82.7,34h-6.1c0.1,0.7,0.3,1.3,0.5,2h6.1C83,35.3,82.8,34.7,82.7,34"/>
			<path id="XMLID_22_" class="st2" d="M84.1,39H78c0.3,0.7,0.5,1.3,0.9,2h6.1C84.6,40.3,84.4,39.7,84.1,39"/>
			<path id="XMLID_21_" class="st2" d="M83.4,19h-6.1c-0.2,0.7-0.4,1.3-0.5,2h6.1C83,20.3,83.2,19.7,83.4,19"/>
			<path id="XMLID_20_" class="st2" d="M85.4,14h-6.1c-0.3,0.7-0.7,1.3-0.9,2h6.1C84.8,15.3,85.1,14.7,85.4,14"/>
			<path id="XMLID_19_" class="st2" d="M89.6,8h-6.1c-0.6,0.6-1.1,1.3-1.7,2h6.1C88.5,9.3,89,8.6,89.6,8"/>
			<path id="XMLID_18_" class="st2" d="M95.8,3h-6.1c-1,0.6-2,1.3-3,2h6.1C93.8,4.3,94.8,3.6,95.8,3"/>
			<path id="XMLID_17_" class="st2" d="M87.2,45h-6.1c0.5,0.7,1,1.4,1.5,2h6.1C88.2,46.4,87.7,45.7,87.2,45"/>
			<path id="XMLID_16_" class="st2" d="M85.5,50c0.8,0.7,1.7,1.4,2.6,2h6.1c-0.9-0.6-1.8-1.3-2.6-2H85.5z"/>
		</g>
		<g>
			<path class="st2" d="M124,21.4C124,21.4,124,21.4,124,21.4C124,21.4,124,21.4,124,21.4C124,21.4,124,21.4,124,21.4
				C124,21.4,124,21.4,124,21.4C124,21.4,124,21.4,124,21.4C124,21.4,124,21.4,124,21.4C124,21.4,124,21.4,124,21.4
				C124,21.4,124,21.4,124,21.4C124,21.4,124,21.4,124,21.4C124,21.4,124,21.4,124,21.4c-0.2-0.2-0.6-0.2-0.8-0.2
				c-0.5,0.1-0.9,0.4-1.2,0.7l-0.1,0.1c-0.8,0.6-1.5,1.2-2.2,1.9c-0.7,0.6-1.4,1.3-2,1.9l-0.4,0.4c-0.7,0.7-1.4,1.4-2.2,2
				c-0.1,0.1-0.2,0.1-0.2,0.2c-0.5,0.4-0.9,0.8-1.5,1c0,0,0,0,0,0c-0.1-0.1-0.3-0.2-0.5-0.4c0.6-0.6,0.5-1.6,0.4-3
				c-0.1-0.8-0.1-1.6-0.1-2.5c0.1-1.1,0.2-2.2,0.4-3.2c0.2-1.1,0.5-2,0.9-2.8c0.1-0.2,0.2-0.4,0.4-0.6c0.3-0.4,0.4-0.5,0.3-0.7
				c0,0-0.1-0.1-0.1-0.1c-0.1,0-0.3,0.1-0.7,0.4c-0.3,0.3-0.6,0.6-0.8,0.9c-0.7,0.9-1.1,1.8-1.5,2.7c-0.8,1.7-1,3.7-1.2,5.5
				c0,0.3-0.1,0.6-0.1,0.9c0,0.1,0,0.2,0,0.3c0,0.3-0.1,0.6-0.1,0.8c-2.9-1.1-6.1-1.2-9-0.1c-0.1-1.8-0.3-4.1-1-6.1
				c-0.5-1.6-1.5-3.8-3.4-5.3c0,0-0.1,0-0.1,0c0,0-0.1,0.1,0,0.1c1.4,2.8,2.1,6.2,1.8,9.4c-0.1,1.1-0.2,2.3,0.4,3.4
				c-0.5,0.1-1,0-1.5-0.3c-0.5-0.3-0.9-0.7-1.2-1.1l-0.1-0.1c-1.7-1.8-3.5-3.4-5.4-4.9c-0.1-0.1-0.3-0.2-0.5-0.3
				c-0.1,0-0.3-0.1-0.4-0.1c-0.1,0-0.2,0.2-0.2,0.3c0,0.1,0.1,0.2,0.2,0.3c0,0,0,0,0,0l6.3,7.9c0,0,0.1,0.1,0.1,0.1
				c0.1,0.1,0.1,0.2,0.2,0.2c0.2,0.2,0.4,0.5,0.3,0.8c-0.1,0.2-0.3,0.3-0.6,0.4c-1.1,0.2-2.3-0.2-3.4-0.5c-1.2-0.4-2.4-0.8-3.6-0.5
				c0,0-0.1,0.1-0.1,0.1c0,0,0,0.1,0.1,0.1c1.9,0.8,3.8,1.7,5.7,2.7c0.6,0.3,1.2,0.6,1.6,1.1c0,0,0.1,0.1,0.1,0.1
				c1.3,1.9,3.5,3.3,6,4c1,0.2,2,0.4,3.1,0.4c1.3,0,2.7-0.2,4.1-0.5c1.6-0.3,2.7-0.8,3.6-1.4c1.1-0.7,1.8-1.6,2.2-2.7
				c1-0.4,1.9-0.9,2.8-1.4c1.2-0.7,2.1-1.2,3.1-1.5c0.4-0.2,0.8-0.3,1.3-0.5l0,0c0.1,0,0.1,0,0.2-0.1c0,0,0.2-0.1,0.1-0.2
				c0-0.1-0.1-0.1-0.2-0.1c-0.2,0-0.3-0.1-0.5-0.1c-0.3,0-0.7,0-1.1,0c-0.5,0.1-1,0.2-1.7,0.4l0,0c-0.2,0.1-0.3,0.1-0.5,0.2
				c-0.7,0.3-1.4,0.5-2,0.6c-0.6,0.1-1.1,0-1.5-0.2c0,0,0,0,0,0c-0.1-0.2-0.1-0.3-0.2-0.5c0.2-0.2,0.3-0.3,0.4-0.5
				c0,0,0.1-0.1,0.1-0.1c0.4-0.6,0.9-1.2,1.4-1.8c0.7-0.9,1.3-1.7,1.9-2.4c0.8-1,1.4-1.8,2.1-2.5c0.1-0.1,0.2-0.2,0.3-0.3
				c0.4-0.4,0.8-0.9,1.2-1.3c0.3-0.3,0.5-0.5,0.8-0.7c0.1-0.1,0.3-0.2,0.4-0.3c0,0,0,0,0.1-0.1C123.8,21.7,123.9,21.6,124,21.4
				C124,21.5,124,21.5,124,21.4C124,21.5,124,21.5,124,21.4C124,21.5,124,21.5,124,21.4C124,21.5,124,21.5,124,21.4
				C124,21.5,124,21.5,124,21.4C124,21.5,124,21.5,124,21.4C124,21.4,124,21.4,124,21.4C124,21.4,124,21.4,124,21.4z"/>
			<g>
				<path class="st3" d="M114.3,29C114.3,29,114.3,29.1,114.3,29C114.3,29.1,114.3,29.1,114.3,29C114.3,29.1,114.3,29.1,114.3,29z"
					/>
				<path class="st3" d="M114.2,29.1C114.2,29.1,114.2,29.1,114.2,29.1C114.2,29.1,114.2,29.1,114.2,29.1
					C114.2,29.1,114.2,29.1,114.2,29.1C114.2,29.1,114.2,29.1,114.2,29.1z"/>
				<path class="st4" d="M118.5,33c1.1-0.7,2.1-1.1,2.9-1.5c0.4-0.2,0.8-0.3,1.2-0.4l0,0c0,0,0,0,0,0c-0.1,0-0.2,0-0.3-0.1
					c-0.3,0-0.6,0-1,0c-0.5,0.1-1,0.2-1.6,0.4l0,0c-0.2,0.1-0.3,0.1-0.5,0.2c-0.6,0.2-1.3,0.5-2,0.6c-0.4,0.1-0.8,0-1.1-0.1
					c0.1,0.4,0.1,0.8,0.1,1.1c0,0.3,0,0.6-0.1,0.9C117.1,33.9,117.8,33.4,118.5,33z"/>
				<path class="st5" d="M113.4,27.9C113.4,27.9,113.4,27.9,113.4,27.9c0.1,0,0.1,0.1,0.2,0.2c0,0,0,0,0,0c0.2-0.6,0.1-1.4,0.1-2.4
					c-0.1-0.7-0.1-1.6-0.1-2.4c0.1-1.1,0.2-2.2,0.4-3.1c0.2-1.1,0.5-2,0.8-2.7c0.1-0.2,0.2-0.4,0.4-0.6c0.1-0.1,0.2-0.3,0.2-0.4
					c-0.1,0-0.2,0.1-0.4,0.3c-0.2,0.2-0.5,0.4-0.7,0.8c-0.6,0.8-1,1.7-1.4,2.6c-0.7,1.7-0.9,3.5-1.1,5.3c0,0.3-0.1,0.6-0.1,0.8
					c0,0.1,0,0.2,0,0.3c0,0.2,0,0.3-0.1,0.5c0.3,0,0.5,0.1,0.7,0.2C112.6,27.5,113,27.7,113.4,27.9z"/>
				<path class="st5" d="M111.8,27.9c-2.9-1.3-6.2-1.5-9.2-0.3c0,0-0.1,0-0.1,0s0,0-0.1-0.1c-0.1-1.8-0.3-4-0.9-6
					c-0.4-1.4-1.2-3.3-2.7-4.7c1.2,2.7,1.7,5.8,1.5,8.7c-0.1,1-0.2,2.3,0.4,3.2c0,0,0,0.1,0,0.1c0,0,0,0.1-0.1,0.1
					c-0.5,0.2-1.2,0.1-1.7-0.2c-0.5-0.3-0.9-0.7-1.2-1.1l-0.1-0.1c-1.6-1.7-3.3-3.3-5.1-4.8c-0.1-0.1-0.3-0.2-0.4-0.3
					c0,0-0.2-0.1-0.3,0c0,0,0,0,0,0.1c0,0.1,0,0.1,0.1,0.2c0,0,0,0,0,0l6,7.7c0,0,0.1,0.1,0.1,0.1c0.1,0.1,0.1,0.2,0.2,0.2
					c0.2,0.3,0.4,0.6,0.3,0.9c-0.1,0.2-0.3,0.4-0.7,0.5c-1.1,0.2-2.2-0.2-3.3-0.5c-1-0.4-2-0.7-3-0.5c1.7,0.8,3.4,1.6,5.1,2.4
					c0.6,0.3,1.2,0.6,1.5,1.1c0,0,0.1,0.1,0.1,0.2c1.2,1.8,3.2,3.2,5.6,3.7c2,0.5,4.3,0.4,6.7-0.1c1.4-0.3,2.5-0.7,3.3-1.3
					c1.1-0.7,1.8-1.7,2.1-2.9c0.3-1.2-0.1-2.7-0.9-3.8C114.2,29.3,113.2,28.5,111.8,27.9z M106.7,32.7c0,0.2-0.1,0.3-0.3,0.3H106
					c-0.2,0-0.3-0.1-0.3-0.3v-2.6c0-0.2,0.1-0.3,0.3-0.3h0.4c0.2,0,0.3,0.1,0.3,0.3V32.7z M113,32.7c0,0.2-0.1,0.3-0.3,0.3h-0.4
					c-0.2,0-0.3-0.1-0.3-0.3v-2.6c0-0.2,0.1-0.3,0.3-0.3h0.4c0.2,0,0.3,0.1,0.3,0.3V32.7z"/>
				<path class="st5" d="M123.4,21.2c-0.4,0.1-0.8,0.4-1.1,0.6l-0.1,0.1c-0.7,0.6-1.4,1.2-2.1,1.8c-0.6,0.6-1.3,1.2-1.9,1.8
					l-0.4,0.4c-0.7,0.7-1.3,1.3-2.1,2c-0.1,0.1-0.1,0.1-0.2,0.2c-0.3,0.3-0.6,0.6-1,0.8c0.3,0.2,0.6,0.5,0.8,0.7
					c0.2,0.3,0.4,0.7,0.5,1.1c0,0,0,0,0-0.1c0,0,0.1-0.1,0.1-0.1c0.4-0.6,0.9-1.2,1.3-1.8c0.6-0.8,1.2-1.6,1.8-2.3
					c0.7-0.9,1.4-1.7,2-2.4c0.1-0.1,0.2-0.2,0.2-0.3c0.4-0.4,0.7-0.9,1.1-1.3c0.3-0.3,0.5-0.5,0.7-0.7c0.1-0.1,0.3-0.2,0.4-0.3
					c0,0,0,0,0.1-0.1c0.1,0,0.1-0.1,0.2-0.2C123.7,21.1,123.5,21.1,123.4,21.2z"/>
			</g>
		</g>
	</g>
</g>
<g id="Layer_3">
	<g>
		<path class="st2" d="M49.7,16.4C49.7,16.4,49.7,16.4,49.7,16.4C49.7,16.4,49.7,16.4,49.7,16.4C49.7,16.4,49.7,16.4,49.7,16.4
			C49.7,16.4,49.7,16.4,49.7,16.4C49.7,16.4,49.7,16.4,49.7,16.4C49.7,16.4,49.7,16.4,49.7,16.4C49.6,16.4,49.6,16.4,49.7,16.4
			C49.6,16.4,49.6,16.4,49.7,16.4C49.6,16.4,49.6,16.4,49.7,16.4C49.6,16.4,49.6,16.4,49.7,16.4c-0.2-0.2-0.6-0.2-0.8-0.2
			c-0.5,0.1-0.8,0.4-1.2,0.7L47.5,17c-0.8,0.6-1.5,1.2-2.2,1.9c-0.7,0.6-1.3,1.3-2,1.9L43,21.2c-0.7,0.7-1.4,1.4-2.1,2
			c-0.1,0.1-0.2,0.1-0.2,0.2c-0.5,0.4-0.9,0.8-1.5,1c0,0,0,0,0,0c-0.1-0.1-0.3-0.2-0.5-0.4c0.6-0.6,0.5-1.6,0.4-3
			c-0.1-0.8-0.1-1.6-0.1-2.5c0.1-1.1,0.2-2.2,0.4-3.2c0.2-1.1,0.5-2,0.9-2.8c0.1-0.2,0.2-0.4,0.4-0.6c0.2-0.4,0.4-0.5,0.3-0.7
			c0,0-0.1-0.1-0.1-0.1c-0.1,0-0.3,0.1-0.7,0.4c-0.3,0.3-0.6,0.6-0.8,0.9c-0.6,0.9-1.1,1.8-1.5,2.7c-0.8,1.7-1,3.7-1.2,5.5
			c0,0.3-0.1,0.6-0.1,0.9c0,0.1,0,0.2,0,0.3c0,0.3-0.1,0.6-0.1,0.8c-2.8-1.1-6-1.2-8.9-0.1c-0.1-1.8-0.3-4.1-0.9-6.1
			c-0.5-1.6-1.4-3.8-3.3-5.3c0,0-0.1,0-0.1,0c0,0-0.1,0.1,0,0.1c1.4,2.8,2,6.2,1.7,9.4c-0.1,1.1-0.2,2.3,0.3,3.4
			c-0.4,0.1-1,0-1.5-0.3c-0.5-0.3-0.9-0.7-1.2-1.1l-0.1-0.1c-1.6-1.8-3.4-3.4-5.3-4.9c-0.1-0.1-0.3-0.2-0.5-0.3
			c-0.1,0-0.3-0.1-0.4-0.1c-0.1,0-0.2,0.2-0.2,0.3c0,0.1,0.1,0.2,0.1,0.3c0,0,0,0,0,0l6.2,7.9c0,0,0.1,0.1,0.1,0.1
			c0.1,0.1,0.1,0.2,0.2,0.2c0.2,0.2,0.4,0.5,0.3,0.8c-0.1,0.2-0.3,0.3-0.6,0.4c-1.1,0.2-2.2-0.2-3.3-0.5c-1.2-0.4-2.4-0.8-3.6-0.5
			c0,0-0.1,0.1-0.1,0.1c0,0,0,0.1,0.1,0.1c1.9,0.8,3.8,1.7,5.6,2.7c0.6,0.3,1.2,0.6,1.5,1.1c0,0,0.1,0.1,0.1,0.1
			c1.3,1.9,3.4,3.3,5.9,4c1,0.2,2,0.4,3.1,0.4c1.3,0,2.6-0.2,4-0.5c1.5-0.3,2.6-0.8,3.5-1.4c1-0.7,1.8-1.6,2.1-2.7
			c1-0.4,1.9-0.9,2.8-1.4c1.2-0.7,2.1-1.2,3-1.5c0.4-0.2,0.8-0.3,1.3-0.5l0,0c0.1,0,0.1,0,0.2-0.1c0,0,0.2-0.1,0.1-0.2
			c0-0.1-0.1-0.1-0.2-0.1c-0.2,0-0.3-0.1-0.5-0.1c-0.3,0-0.7,0-1,0c-0.5,0.1-1,0.2-1.7,0.4l0,0c-0.2,0.1-0.3,0.1-0.5,0.2
			c-0.7,0.3-1.3,0.5-2,0.6c-0.6,0.1-1.1,0-1.5-0.2c0,0,0,0,0,0c-0.1-0.2-0.1-0.3-0.2-0.5c0.2-0.2,0.3-0.3,0.4-0.5
			c0,0,0.1-0.1,0.1-0.1c0.4-0.6,0.9-1.2,1.4-1.8c0.7-0.9,1.3-1.7,1.9-2.4c0.8-1,1.4-1.8,2.1-2.5c0.1-0.1,0.2-0.2,0.2-0.3
			c0.4-0.4,0.7-0.9,1.1-1.3c0.3-0.3,0.5-0.5,0.8-0.7c0.1-0.1,0.3-0.2,0.4-0.3c0,0,0,0,0.1-0.1C49.5,16.7,49.6,16.6,49.7,16.4
			C49.7,16.5,49.7,16.5,49.7,16.4C49.7,16.5,49.7,16.5,49.7,16.4C49.7,16.5,49.7,16.5,49.7,16.4C49.7,16.5,49.7,16.5,49.7,16.4
			C49.7,16.5,49.7,16.5,49.7,16.4C49.7,16.5,49.7,16.5,49.7,16.4C49.7,16.4,49.7,16.4,49.7,16.4C49.7,16.4,49.7,16.4,49.7,16.4z"/>
		<g>
			<path class="st3" d="M40.1,24C40.1,24,40.1,24.1,40.1,24C40.1,24.1,40.1,24.1,40.1,24C40.1,24.1,40.1,24.1,40.1,24z"/>
			<polygon class="st3" points="40,24.1 40,24.1 40,24.1 40,24.1 			"/>
			<path class="st5" d="M44.3,28c1.1-0.7,2-1.1,2.9-1.5c0.4-0.2,0.8-0.3,1.2-0.4l0,0c0,0,0,0,0,0c-0.1,0-0.2,0-0.3-0.1
				c-0.3,0-0.6,0-0.9,0c-0.5,0.1-0.9,0.2-1.5,0.4l0,0c-0.2,0.1-0.3,0.1-0.5,0.2c-0.6,0.2-1.2,0.5-1.9,0.6c-0.4,0.1-0.8,0-1.1-0.1
				c0.1,0.4,0.1,0.8,0.1,1.1c0,0.3,0,0.6-0.1,0.9C42.8,28.9,43.5,28.4,44.3,28z"/>
			<path class="st5" d="M39.2,22.9C39.2,22.9,39.2,22.9,39.2,22.9c0.1,0,0.1,0.1,0.2,0.2c0,0,0,0,0,0c0.2-0.6,0.1-1.4,0.1-2.4
				c-0.1-0.7-0.1-1.6-0.1-2.4c0.1-1.1,0.2-2.2,0.4-3.1c0.2-1.1,0.5-2,0.8-2.7c0.1-0.2,0.2-0.4,0.4-0.6c0.1-0.1,0.2-0.3,0.2-0.4
				c-0.1,0-0.2,0.1-0.4,0.3c-0.2,0.2-0.4,0.4-0.7,0.8c-0.6,0.8-1,1.7-1.4,2.6c-0.7,1.7-0.9,3.5-1.1,5.3c0,0.3-0.1,0.6-0.1,0.8
				c0,0.1,0,0.2,0,0.3c0,0.2,0,0.3-0.1,0.5c0.3,0,0.5,0.1,0.7,0.2C38.5,22.5,38.9,22.7,39.2,22.9z"/>
			<path class="st5" d="M37.7,22.9c-2.8-1.3-6.1-1.5-9-0.3c0,0-0.1,0-0.1,0s0,0,0-0.1c-0.1-1.8-0.3-4-0.9-6
				c-0.4-1.4-1.2-3.3-2.7-4.7c1.2,2.7,1.7,5.8,1.4,8.7c-0.1,1-0.2,2.3,0.4,3.2c0,0,0,0.1,0,0.1c0,0,0,0.1-0.1,0.1
				c-0.5,0.2-1.1,0.1-1.7-0.2c-0.5-0.3-0.8-0.7-1.2-1.1l-0.1-0.1c-1.6-1.7-3.2-3.3-5-4.8c-0.1-0.1-0.2-0.2-0.4-0.3
				c0,0-0.2-0.1-0.2,0c0,0,0,0,0,0.1c0,0.1,0,0.1,0.1,0.2c0,0,0,0,0,0l5.9,7.7c0,0,0.1,0.1,0.1,0.1c0.1,0.1,0.1,0.2,0.2,0.2
				c0.2,0.3,0.4,0.6,0.3,0.9c-0.1,0.2-0.3,0.4-0.7,0.5c-1.1,0.2-2.2-0.2-3.3-0.5c-1-0.4-2-0.7-3-0.5c1.7,0.8,3.4,1.6,5,2.4
				c0.6,0.3,1.1,0.6,1.5,1.1c0,0,0.1,0.1,0.1,0.2c1.2,1.8,3.2,3.2,5.5,3.7c2,0.5,4.2,0.4,6.6-0.1c1.4-0.3,2.4-0.7,3.3-1.3
				c1.1-0.7,1.8-1.7,2-2.9c0.3-1.2-0.1-2.7-0.9-3.8C40.1,24.3,39,23.5,37.7,22.9z M32.7,27.7c0,0.2-0.1,0.3-0.3,0.3H32
				c-0.2,0-0.3-0.1-0.3-0.3v-2.6c0-0.2,0.1-0.3,0.3-0.3h0.4c0.2,0,0.3,0.1,0.3,0.3V27.7z M38.8,27.7c0,0.2-0.1,0.3-0.3,0.3h-0.4
				c-0.2,0-0.3-0.1-0.3-0.3v-2.6c0-0.2,0.1-0.3,0.3-0.3h0.4c0.2,0,0.3,0.1,0.3,0.3V27.7z"/>
			<path class="st5" d="M49,16.2c-0.4,0.1-0.7,0.4-1.1,0.6l-0.1,0.1c-0.7,0.6-1.4,1.2-2,1.8c-0.6,0.6-1.3,1.2-1.9,1.8l-0.4,0.4
				c-0.7,0.7-1.3,1.3-2,2c-0.1,0.1-0.1,0.1-0.2,0.2c-0.3,0.3-0.6,0.6-0.9,0.8c0.3,0.2,0.6,0.5,0.8,0.7c0.2,0.3,0.4,0.7,0.5,1.1
				c0,0,0,0,0-0.1c0,0,0.1-0.1,0.1-0.1c0.4-0.6,0.8-1.2,1.3-1.8c0.6-0.8,1.2-1.6,1.8-2.3c0.7-0.9,1.4-1.7,1.9-2.4
				c0.1-0.1,0.2-0.2,0.2-0.3c0.4-0.4,0.7-0.9,1.1-1.3c0.3-0.3,0.5-0.5,0.7-0.7c0.1-0.1,0.3-0.2,0.4-0.3c0,0,0,0,0.1-0.1
				c0.1,0,0.1-0.1,0.2-0.2C49.4,16.1,49.2,16.1,49,16.2z"/>
		</g>
	</g>
	<rect x="26" y="35.1" class="st6" width="12.3" height="9"/>
	<text transform="matrix(1 0 0 1 26.0322 43.584)" class="st2 st7 st8">$</text>
</g>
</svg>
