<svg xmlns="http://www.w3.org/2000/svg" xmlns:xlink="http://www.w3.org/1999/xlink" id="Layer_1" x="0" y="0" enable-background="new 0 0 100 1000" version="1.1" viewBox="0 0 100 1000" xml:space="preserve"><style type="text/css">.st0{fill:#ec2863}.st1{fill:#ee367b}.st2{fill:#ed4592}.st3{fill:#e955a8}.st4{fill:#e364bd}.st5{fill:#da73cf}.st6{fill:#d081df}.st7{fill:#c48eed}.st8{fill:#b79bf8}.st9{fill:#aba7ff}.st10{fill:#9fb2ff}.st11{fill:#95bcff}.st12{fill:#8ec6ff}.st13{fill:#8aceff}.st14{fill:#8bd7ff}.st15{fill:#8fdeff}.st16{fill:#97e5ff}.st17{fill:#a2ecff}.st18{fill:#aff2ff}.st19{fill:#bcf8ff}.st20{fill:#cbfdff}</style><rect width="100" height="1000" class="st0"/><g><circle cx="50" cy="0" r="50" class="st0"/><g><circle cx="0" cy="50" r="50" class="st1"/><circle cx="100" cy="50" r="50" class="st1"/></g><circle cx="50" cy="100" r="50" class="st2"/><g><circle cx="0" cy="150" r="50" class="st3"/><circle cx="100" cy="150" r="50" class="st3"/></g><circle cx="50" cy="200" r="50" class="st4"/><g><circle cx="0" cy="250" r="50" class="st5"/><circle cx="100" cy="250" r="50" class="st5"/></g><circle cx="50" cy="300" r="50" class="st6"/><g><circle cx="0" cy="350" r="50" class="st7"/><circle cx="100" cy="350" r="50" class="st7"/></g><circle cx="50" cy="400" r="50" class="st8"/><g><circle cx="0" cy="450" r="50" class="st9"/><circle cx="100" cy="450" r="50" class="st9"/></g><circle cx="50" cy="500" r="50" class="st10"/><g><circle cx="0" cy="550" r="50" class="st11"/><circle cx="100" cy="550" r="50" class="st11"/></g><circle cx="50" cy="600" r="50" class="st12"/><g><circle cx="0" cy="650" r="50" class="st13"/><circle cx="100" cy="650" r="50" class="st13"/></g><circle cx="50" cy="700" r="50" class="st14"/><g><circle cx="0" cy="750" r="50" class="st15"/><circle cx="100" cy="750" r="50" class="st15"/></g><circle cx="50" cy="800" r="50" class="st16"/><g><circle cx="0" cy="850" r="50" class="st17"/><circle cx="100" cy="850" r="50" class="st17"/></g><circle cx="50" cy="900" r="50" class="st18"/><g><circle cx="0" cy="950" r="50" class="st19"/><circle cx="100" cy="950" r="50" class="st19"/></g><circle cx="50" cy="1000" r="50" class="st20"/></g><rect width="100" height="1000" x="63.7" class="st0"/><g><circle cx="113.7" cy="0" r="50" class="st0"/><g><circle cx="63.7" cy="50" r="50" class="st1"/><circle cx="163.7" cy="50" r="50" class="st1"/></g><circle cx="113.7" cy="100" r="50" class="st2"/><g><circle cx="63.7" cy="150" r="50" class="st3"/><circle cx="163.7" cy="150" r="50" class="st3"/></g><circle cx="113.7" cy="200" r="50" class="st4"/><g><circle cx="63.7" cy="250" r="50" class="st5"/><circle cx="163.7" cy="250" r="50" class="st5"/></g><circle cx="113.7" cy="300" r="50" class="st6"/><g><circle cx="63.7" cy="350" r="50" class="st7"/><circle cx="163.7" cy="350" r="50" class="st7"/></g><circle cx="113.7" cy="400" r="50" class="st8"/><g><circle cx="63.7" cy="450" r="50" class="st9"/><circle cx="163.7" cy="450" r="50" class="st9"/></g><circle cx="113.7" cy="500" r="50" class="st10"/><g><circle cx="63.7" cy="550" r="50" class="st11"/><circle cx="163.7" cy="550" r="50" class="st11"/></g><circle cx="113.7" cy="600" r="50" class="st12"/><g><circle cx="63.7" cy="650" r="50" class="st13"/><circle cx="163.7" cy="650" r="50" class="st13"/></g><circle cx="113.7" cy="700" r="50" class="st14"/><g><circle cx="63.7" cy="750" r="50" class="st15"/><circle cx="163.7" cy="750" r="50" class="st15"/></g><circle cx="113.7" cy="800" r="50" class="st16"/><g><circle cx="63.7" cy="850" r="50" class="st17"/><circle cx="163.7" cy="850" r="50" class="st17"/></g><circle cx="113.7" cy="900" r="50" class="st18"/><g><circle cx="63.7" cy="950" r="50" class="st19"/><circle cx="163.7" cy="950" r="50" class="st19"/></g><circle cx="113.7" cy="1000" r="50" class="st20"/></g><rect width="100" height="1000" x="63.7" class="st0"/><g><circle cx="113.7" cy="0" r="50" class="st0"/><g><circle cx="63.7" cy="50" r="50" class="st1"/><circle cx="163.7" cy="50" r="50" class="st1"/></g><circle cx="113.7" cy="100" r="50" class="st2"/><g><circle cx="63.7" cy="150" r="50" class="st3"/><circle cx="163.7" cy="150" r="50" class="st3"/></g><circle cx="113.7" cy="200" r="50" class="st4"/><g><circle cx="63.7" cy="250" r="50" class="st5"/><circle cx="163.7" cy="250" r="50" class="st5"/></g><circle cx="113.7" cy="300" r="50" class="st6"/><g><circle cx="63.7" cy="350" r="50" class="st7"/><circle cx="163.7" cy="350" r="50" class="st7"/></g><circle cx="113.7" cy="400" r="50" class="st8"/><g><circle cx="63.7" cy="450" r="50" class="st9"/><circle cx="163.7" cy="450" r="50" class="st9"/></g><circle cx="113.7" cy="500" r="50" class="st10"/><g><circle cx="63.7" cy="550" r="50" class="st11"/><circle cx="163.7" cy="550" r="50" class="st11"/></g><circle cx="113.7" cy="600" r="50" class="st12"/><g><circle cx="63.7" cy="650" r="50" class="st13"/><circle cx="163.7" cy="650" r="50" class="st13"/></g><circle cx="113.7" cy="700" r="50" class="st14"/><g><circle cx="63.7" cy="750" r="50" class="st15"/><circle cx="163.7" cy="750" r="50" class="st15"/></g><circle cx="113.7" cy="800" r="50" class="st16"/><g><circle cx="63.7" cy="850" r="50" class="st17"/><circle cx="163.7" cy="850" r="50" class="st17"/></g><circle cx="113.7" cy="900" r="50" class="st18"/><g><circle cx="63.7" cy="950" r="50" class="st19"/><circle cx="163.7" cy="950" r="50" class="st19"/></g><circle cx="113.7" cy="1000" r="50" class="st20"/></g><rect width="100" height="1000" x="127.4" class="st0"/><g><circle cx="177.4" cy="0" r="50" class="st0"/><g><circle cx="127.4" cy="50" r="50" class="st1"/><circle cx="227.4" cy="50" r="50" class="st1"/></g><circle cx="177.4" cy="100" r="50" class="st2"/><g><circle cx="127.4" cy="150" r="50" class="st3"/><circle cx="227.4" cy="150" r="50" class="st3"/></g><circle cx="177.4" cy="200" r="50" class="st4"/><g><circle cx="127.4" cy="250" r="50" class="st5"/><circle cx="227.4" cy="250" r="50" class="st5"/></g><circle cx="177.4" cy="300" r="50" class="st6"/><g><circle cx="127.4" cy="350" r="50" class="st7"/><circle cx="227.4" cy="350" r="50" class="st7"/></g><circle cx="177.4" cy="400" r="50" class="st8"/><g><circle cx="127.4" cy="450" r="50" class="st9"/><circle cx="227.4" cy="450" r="50" class="st9"/></g><circle cx="177.4" cy="500" r="50" class="st10"/><g><circle cx="127.4" cy="550" r="50" class="st11"/><circle cx="227.4" cy="550" r="50" class="st11"/></g><circle cx="177.4" cy="600" r="50" class="st12"/><g><circle cx="127.4" cy="650" r="50" class="st13"/><circle cx="227.4" cy="650" r="50" class="st13"/></g><circle cx="177.4" cy="700" r="50" class="st14"/><g><circle cx="127.4" cy="750" r="50" class="st15"/><circle cx="227.4" cy="750" r="50" class="st15"/></g><circle cx="177.4" cy="800" r="50" class="st16"/><g><circle cx="127.4" cy="850" r="50" class="st17"/><circle cx="227.4" cy="850" r="50" class="st17"/></g><circle cx="177.4" cy="900" r="50" class="st18"/><g><circle cx="127.4" cy="950" r="50" class="st19"/><circle cx="227.4" cy="950" r="50" class="st19"/></g><circle cx="177.4" cy="1000" r="50" class="st20"/></g><rect width="100" height="1000" x="113.7" y="-1.9" class="st0"/><g><circle cx="163.7" cy="-1.9" r="50" class="st0"/><g><circle cx="113.7" cy="48.1" r="50" class="st1"/><circle cx="213.7" cy="48.1" r="50" class="st1"/></g><circle cx="163.7" cy="98.1" r="50" class="st2"/><g><circle cx="113.7" cy="148.1" r="50" class="st3"/><circle cx="213.7" cy="148.1" r="50" class="st3"/></g><circle cx="163.7" cy="198.1" r="50" class="st4"/><g><circle cx="113.7" cy="248.1" r="50" class="st5"/><circle cx="213.7" cy="248.1" r="50" class="st5"/></g><circle cx="163.7" cy="298.1" r="50" class="st6"/><g><circle cx="113.7" cy="348.1" r="50" class="st7"/><circle cx="213.7" cy="348.1" r="50" class="st7"/></g><circle cx="163.7" cy="398.1" r="50" class="st8"/><g><circle cx="113.7" cy="448.1" r="50" class="st9"/><circle cx="213.7" cy="448.1" r="50" class="st9"/></g><circle cx="163.7" cy="498.1" r="50" class="st10"/><g><circle cx="113.7" cy="548.1" r="50" class="st11"/><circle cx="213.7" cy="548.1" r="50" class="st11"/></g><circle cx="163.7" cy="598.1" r="50" class="st12"/><g><circle cx="113.7" cy="648.1" r="50" class="st13"/><circle cx="213.7" cy="648.1" r="50" class="st13"/></g><circle cx="163.7" cy="698.1" r="50" class="st14"/><g><circle cx="113.7" cy="748.1" r="50" class="st15"/><circle cx="213.7" cy="748.1" r="50" class="st15"/></g><circle cx="163.7" cy="798.1" r="50" class="st16"/><g><circle cx="113.7" cy="848.1" r="50" class="st17"/><circle cx="213.7" cy="848.1" r="50" class="st17"/></g><circle cx="163.7" cy="898.1" r="50" class="st18"/><g><circle cx="113.7" cy="948.1" r="50" class="st19"/><circle cx="213.7" cy="948.1" r="50" class="st19"/></g><circle cx="163.7" cy="998.1" r="50" class="st20"/></g><rect width="100" height="1000" x="177.4" y="-1.9" class="st0"/><g><circle cx="227.4" cy="-1.9" r="50" class="st0"/><g><circle cx="177.4" cy="48.1" r="50" class="st1"/><circle cx="277.4" cy="48.1" r="50" class="st1"/></g><circle cx="227.4" cy="98.1" r="50" class="st2"/><g><circle cx="177.4" cy="148.1" r="50" class="st3"/><circle cx="277.4" cy="148.1" r="50" class="st3"/></g><circle cx="227.4" cy="198.1" r="50" class="st4"/><g><circle cx="177.4" cy="248.1" r="50" class="st5"/><circle cx="277.4" cy="248.1" r="50" class="st5"/></g><circle cx="227.4" cy="298.1" r="50" class="st6"/><g><circle cx="177.4" cy="348.1" r="50" class="st7"/><circle cx="277.4" cy="348.1" r="50" class="st7"/></g><circle cx="227.4" cy="398.1" r="50" class="st8"/><g><circle cx="177.4" cy="448.1" r="50" class="st9"/><circle cx="277.4" cy="448.1" r="50" class="st9"/></g><circle cx="227.4" cy="498.1" r="50" class="st10"/><g><circle cx="177.4" cy="548.1" r="50" class="st11"/><circle cx="277.4" cy="548.1" r="50" class="st11"/></g><circle cx="227.4" cy="598.1" r="50" class="st12"/><g><circle cx="177.4" cy="648.1" r="50" class="st13"/><circle cx="277.4" cy="648.1" r="50" class="st13"/></g><circle cx="227.4" cy="698.1" r="50" class="st14"/><g><circle cx="177.4" cy="748.1" r="50" class="st15"/><circle cx="277.4" cy="748.1" r="50" class="st15"/></g><circle cx="227.4" cy="798.1" r="50" class="st16"/><g><circle cx="177.4" cy="848.1" r="50" class="st17"/><circle cx="277.4" cy="848.1" r="50" class="st17"/></g><circle cx="227.4" cy="898.1" r="50" class="st18"/><g><circle cx="177.4" cy="948.1" r="50" class="st19"/><circle cx="277.4" cy="948.1" r="50" class="st19"/></g><circle cx="227.4" cy="998.1" r="50" class="st20"/></g><rect width="100" height="1000" x="177.4" y="-1.9" class="st0"/><g><circle cx="227.4" cy="-1.9" r="50" class="st0"/><g><circle cx="177.4" cy="48.1" r="50" class="st1"/><circle cx="277.4" cy="48.1" r="50" class="st1"/></g><circle cx="227.4" cy="98.1" r="50" class="st2"/><g><circle cx="177.4" cy="148.1" r="50" class="st3"/><circle cx="277.4" cy="148.1" r="50" class="st3"/></g><circle cx="227.4" cy="198.1" r="50" class="st4"/><g><circle cx="177.4" cy="248.1" r="50" class="st5"/><circle cx="277.4" cy="248.1" r="50" class="st5"/></g><circle cx="227.4" cy="298.1" r="50" class="st6"/><g><circle cx="177.4" cy="348.1" r="50" class="st7"/><circle cx="277.4" cy="348.1" r="50" class="st7"/></g><circle cx="227.4" cy="398.1" r="50" class="st8"/><g><circle cx="177.4" cy="448.1" r="50" class="st9"/><circle cx="277.4" cy="448.1" r="50" class="st9"/></g><circle cx="227.4" cy="498.1" r="50" class="st10"/><g><circle cx="177.4" cy="548.1" r="50" class="st11"/><circle cx="277.4" cy="548.1" r="50" class="st11"/></g><circle cx="227.4" cy="598.1" r="50" class="st12"/><g><circle cx="177.4" cy="648.1" r="50" class="st13"/><circle cx="277.4" cy="648.1" r="50" class="st13"/></g><circle cx="227.4" cy="698.1" r="50" class="st14"/><g><circle cx="177.4" cy="748.1" r="50" class="st15"/><circle cx="277.4" cy="748.1" r="50" class="st15"/></g><circle cx="227.4" cy="798.1" r="50" class="st16"/><g><circle cx="177.4" cy="848.1" r="50" class="st17"/><circle cx="277.4" cy="848.1" r="50" class="st17"/></g><circle cx="227.4" cy="898.1" r="50" class="st18"/><g><circle cx="177.4" cy="948.1" r="50" class="st19"/><circle cx="277.4" cy="948.1" r="50" class="st19"/></g><circle cx="227.4" cy="998.1" r="50" class="st20"/></g><rect width="100" height="1000" x="241.2" y="-1.9" class="st0"/><g><circle cx="291.2" cy="-1.9" r="50" class="st0"/><g><circle cx="241.2" cy="48.1" r="50" class="st1"/><circle cx="341.2" cy="48.1" r="50" class="st1"/></g><circle cx="291.2" cy="98.1" r="50" class="st2"/><g><circle cx="241.2" cy="148.1" r="50" class="st3"/><circle cx="341.2" cy="148.1" r="50" class="st3"/></g><circle cx="291.2" cy="198.1" r="50" class="st4"/><g><circle cx="241.2" cy="248.1" r="50" class="st5"/><circle cx="341.2" cy="248.1" r="50" class="st5"/></g><circle cx="291.2" cy="298.1" r="50" class="st6"/><g><circle cx="241.2" cy="348.1" r="50" class="st7"/><circle cx="341.2" cy="348.1" r="50" class="st7"/></g><circle cx="291.2" cy="398.1" r="50" class="st8"/><g><circle cx="241.2" cy="448.1" r="50" class="st9"/><circle cx="341.2" cy="448.1" r="50" class="st9"/></g><circle cx="291.2" cy="498.1" r="50" class="st10"/><g><circle cx="241.2" cy="548.1" r="50" class="st11"/><circle cx="341.2" cy="548.1" r="50" class="st11"/></g><circle cx="291.2" cy="598.1" r="50" class="st12"/><g><circle cx="241.2" cy="648.1" r="50" class="st13"/><circle cx="341.2" cy="648.1" r="50" class="st13"/></g><circle cx="291.2" cy="698.1" r="50" class="st14"/><g><circle cx="241.2" cy="748.1" r="50" class="st15"/><circle cx="341.2" cy="748.1" r="50" class="st15"/></g><circle cx="291.2" cy="798.1" r="50" class="st16"/><g><circle cx="241.2" cy="848.1" r="50" class="st17"/><circle cx="341.2" cy="848.1" r="50" class="st17"/></g><circle cx="291.2" cy="898.1" r="50" class="st18"/><g><circle cx="241.2" cy="948.1" r="50" class="st19"/><circle cx="341.2" cy="948.1" r="50" class="st19"/></g><circle cx="291.2" cy="998.1" r="50" class="st20"/></g><rect width="100" height="1000" x="120.6" y="1" class="st0"/><g><circle cx="170.6" cy="1" r="50" class="st0"/><g><circle cx="120.6" cy="51" r="50" class="st1"/><circle cx="220.6" cy="51" r="50" class="st1"/></g><circle cx="170.6" cy="101" r="50" class="st2"/><g><circle cx="120.6" cy="151" r="50" class="st3"/><circle cx="220.6" cy="151" r="50" class="st3"/></g><circle cx="170.6" cy="201" r="50" class="st4"/><g><circle cx="120.6" cy="251" r="50" class="st5"/><circle cx="220.6" cy="251" r="50" class="st5"/></g><circle cx="170.6" cy="301" r="50" class="st6"/><g><circle cx="120.6" cy="351" r="50" class="st7"/><circle cx="220.6" cy="351" r="50" class="st7"/></g><circle cx="170.6" cy="401" r="50" class="st8"/><g><circle cx="120.6" cy="451" r="50" class="st9"/><circle cx="220.6" cy="451" r="50" class="st9"/></g><circle cx="170.6" cy="501" r="50" class="st10"/><g><circle cx="120.6" cy="551" r="50" class="st11"/><circle cx="220.6" cy="551" r="50" class="st11"/></g><circle cx="170.6" cy="601" r="50" class="st12"/><g><circle cx="120.6" cy="651" r="50" class="st13"/><circle cx="220.6" cy="651" r="50" class="st13"/></g><circle cx="170.6" cy="701" r="50" class="st14"/><g><circle cx="120.6" cy="751" r="50" class="st15"/><circle cx="220.6" cy="751" r="50" class="st15"/></g><circle cx="170.6" cy="801" r="50" class="st16"/><g><circle cx="120.6" cy="851" r="50" class="st17"/><circle cx="220.6" cy="851" r="50" class="st17"/></g><circle cx="170.6" cy="901" r="50" class="st18"/><g><circle cx="120.6" cy="951" r="50" class="st19"/><circle cx="220.6" cy="951" r="50" class="st19"/></g><circle cx="170.6" cy="1001" r="50" class="st20"/></g><rect width="100" height="1000" x="184.3" y="1" class="st0"/><g><circle cx="234.3" cy="1" r="50" class="st0"/><g><circle cx="184.3" cy="51" r="50" class="st1"/><circle cx="284.3" cy="51" r="50" class="st1"/></g><circle cx="234.3" cy="101" r="50" class="st2"/><g><circle cx="184.3" cy="151" r="50" class="st3"/><circle cx="284.3" cy="151" r="50" class="st3"/></g><circle cx="234.3" cy="201" r="50" class="st4"/><g><circle cx="184.3" cy="251" r="50" class="st5"/><circle cx="284.3" cy="251" r="50" class="st5"/></g><circle cx="234.3" cy="301" r="50" class="st6"/><g><circle cx="184.3" cy="351" r="50" class="st7"/><circle cx="284.3" cy="351" r="50" class="st7"/></g><circle cx="234.3" cy="401" r="50" class="st8"/><g><circle cx="184.3" cy="451" r="50" class="st9"/><circle cx="284.3" cy="451" r="50" class="st9"/></g><circle cx="234.3" cy="501" r="50" class="st10"/><g><circle cx="184.3" cy="551" r="50" class="st11"/><circle cx="284.3" cy="551" r="50" class="st11"/></g><circle cx="234.3" cy="601" r="50" class="st12"/><g><circle cx="184.3" cy="651" r="50" class="st13"/><circle cx="284.3" cy="651" r="50" class="st13"/></g><circle cx="234.3" cy="701" r="50" class="st14"/><g><circle cx="184.3" cy="751" r="50" class="st15"/><circle cx="284.3" cy="751" r="50" class="st15"/></g><circle cx="234.3" cy="801" r="50" class="st16"/><g><circle cx="184.3" cy="851" r="50" class="st17"/><circle cx="284.3" cy="851" r="50" class="st17"/></g><circle cx="234.3" cy="901" r="50" class="st18"/><g><circle cx="184.3" cy="951" r="50" class="st19"/><circle cx="284.3" cy="951" r="50" class="st19"/></g><circle cx="234.3" cy="1001" r="50" class="st20"/></g><rect width="100" height="1000" x="184.3" y="1" class="st0"/><g><circle cx="234.3" cy="1" r="50" class="st0"/><g><circle cx="184.3" cy="51" r="50" class="st1"/><circle cx="284.3" cy="51" r="50" class="st1"/></g><circle cx="234.3" cy="101" r="50" class="st2"/><g><circle cx="184.3" cy="151" r="50" class="st3"/><circle cx="284.3" cy="151" r="50" class="st3"/></g><circle cx="234.3" cy="201" r="50" class="st4"/><g><circle cx="184.3" cy="251" r="50" class="st5"/><circle cx="284.3" cy="251" r="50" class="st5"/></g><circle cx="234.3" cy="301" r="50" class="st6"/><g><circle cx="184.3" cy="351" r="50" class="st7"/><circle cx="284.3" cy="351" r="50" class="st7"/></g><circle cx="234.3" cy="401" r="50" class="st8"/><g><circle cx="184.3" cy="451" r="50" class="st9"/><circle cx="284.3" cy="451" r="50" class="st9"/></g><circle cx="234.3" cy="501" r="50" class="st10"/><g><circle cx="184.3" cy="551" r="50" class="st11"/><circle cx="284.3" cy="551" r="50" class="st11"/></g><circle cx="234.3" cy="601" r="50" class="st12"/><g><circle cx="184.3" cy="651" r="50" class="st13"/><circle cx="284.3" cy="651" r="50" class="st13"/></g><circle cx="234.3" cy="701" r="50" class="st14"/><g><circle cx="184.3" cy="751" r="50" class="st15"/><circle cx="284.3" cy="751" r="50" class="st15"/></g><circle cx="234.3" cy="801" r="50" class="st16"/><g><circle cx="184.3" cy="851" r="50" class="st17"/><circle cx="284.3" cy="851" r="50" class="st17"/></g><circle cx="234.3" cy="901" r="50" class="st18"/><g><circle cx="184.3" cy="951" r="50" class="st19"/><circle cx="284.3" cy="951" r="50" class="st19"/></g><circle cx="234.3" cy="1001" r="50" class="st20"/></g><rect width="100" height="1000" x="248" y="1" class="st0"/><g><circle cx="298" cy="1" r="50" class="st0"/><g><circle cx="248" cy="51" r="50" class="st1"/><circle cx="348" cy="51" r="50" class="st1"/></g><circle cx="298" cy="101" r="50" class="st2"/><g><circle cx="248" cy="151" r="50" class="st3"/><circle cx="348" cy="151" r="50" class="st3"/></g><circle cx="298" cy="201" r="50" class="st4"/><g><circle cx="248" cy="251" r="50" class="st5"/><circle cx="348" cy="251" r="50" class="st5"/></g><circle cx="298" cy="301" r="50" class="st6"/><g><circle cx="248" cy="351" r="50" class="st7"/><circle cx="348" cy="351" r="50" class="st7"/></g><circle cx="298" cy="401" r="50" class="st8"/><g><circle cx="248" cy="451" r="50" class="st9"/><circle cx="348" cy="451" r="50" class="st9"/></g><circle cx="298" cy="501" r="50" class="st10"/><g><circle cx="248" cy="551" r="50" class="st11"/><circle cx="348" cy="551" r="50" class="st11"/></g><circle cx="298" cy="601" r="50" class="st12"/><g><circle cx="248" cy="651" r="50" class="st13"/><circle cx="348" cy="651" r="50" class="st13"/></g><circle cx="298" cy="701" r="50" class="st14"/><g><circle cx="248" cy="751" r="50" class="st15"/><circle cx="348" cy="751" r="50" class="st15"/></g><circle cx="298" cy="801" r="50" class="st16"/><g><circle cx="248" cy="851" r="50" class="st17"/><circle cx="348" cy="851" r="50" class="st17"/></g><circle cx="298" cy="901" r="50" class="st18"/><g><circle cx="248" cy="951" r="50" class="st19"/><circle cx="348" cy="951" r="50" class="st19"/></g><circle cx="298" cy="1001" r="50" class="st20"/></g><rect width="100" height="1000" x="234.3" y="-1" class="st0"/><g><circle cx="284.3" cy="-1" r="50" class="st0"/><g><circle cx="234.3" cy="49" r="50" class="st1"/><circle cx="334.3" cy="49" r="50" class="st1"/></g><circle cx="284.3" cy="99" r="50" class="st2"/><g><circle cx="234.3" cy="149" r="50" class="st3"/><circle cx="334.3" cy="149" r="50" class="st3"/></g><circle cx="284.3" cy="199" r="50" class="st4"/><g><circle cx="234.3" cy="249" r="50" class="st5"/><circle cx="334.3" cy="249" r="50" class="st5"/></g><circle cx="284.3" cy="299" r="50" class="st6"/><g><circle cx="234.3" cy="349" r="50" class="st7"/><circle cx="334.3" cy="349" r="50" class="st7"/></g><circle cx="284.3" cy="399" r="50" class="st8"/><g><circle cx="234.3" cy="449" r="50" class="st9"/><circle cx="334.3" cy="449" r="50" class="st9"/></g><circle cx="284.3" cy="499" r="50" class="st10"/><g><circle cx="234.3" cy="549" r="50" class="st11"/><circle cx="334.3" cy="549" r="50" class="st11"/></g><circle cx="284.3" cy="599" r="50" class="st12"/><g><circle cx="234.3" cy="649" r="50" class="st13"/><circle cx="334.3" cy="649" r="50" class="st13"/></g><circle cx="284.3" cy="699" r="50" class="st14"/><g><circle cx="234.3" cy="749" r="50" class="st15"/><circle cx="334.3" cy="749" r="50" class="st15"/></g><circle cx="284.3" cy="799" r="50" class="st16"/><g><circle cx="234.3" cy="849" r="50" class="st17"/><circle cx="334.3" cy="849" r="50" class="st17"/></g><circle cx="284.3" cy="899" r="50" class="st18"/><g><circle cx="234.3" cy="949" r="50" class="st19"/><circle cx="334.3" cy="949" r="50" class="st19"/></g><circle cx="284.3" cy="999" r="50" class="st20"/></g><rect width="100" height="1000" x="298" y="-1" class="st0"/><g><circle cx="348" cy="-1" r="50" class="st0"/><g><circle cx="298" cy="49" r="50" class="st1"/><circle cx="398" cy="49" r="50" class="st1"/></g><circle cx="348" cy="99" r="50" class="st2"/><g><circle cx="298" cy="149" r="50" class="st3"/><circle cx="398" cy="149" r="50" class="st3"/></g><circle cx="348" cy="199" r="50" class="st4"/><g><circle cx="298" cy="249" r="50" class="st5"/><circle cx="398" cy="249" r="50" class="st5"/></g><circle cx="348" cy="299" r="50" class="st6"/><g><circle cx="298" cy="349" r="50" class="st7"/><circle cx="398" cy="349" r="50" class="st7"/></g><circle cx="348" cy="399" r="50" class="st8"/><g><circle cx="298" cy="449" r="50" class="st9"/><circle cx="398" cy="449" r="50" class="st9"/></g><circle cx="348" cy="499" r="50" class="st10"/><g><circle cx="298" cy="549" r="50" class="st11"/><circle cx="398" cy="549" r="50" class="st11"/></g><circle cx="348" cy="599" r="50" class="st12"/><g><circle cx="298" cy="649" r="50" class="st13"/><circle cx="398" cy="649" r="50" class="st13"/></g><circle cx="348" cy="699" r="50" class="st14"/><g><circle cx="298" cy="749" r="50" class="st15"/><circle cx="398" cy="749" r="50" class="st15"/></g><circle cx="348" cy="799" r="50" class="st16"/><g><circle cx="298" cy="849" r="50" class="st17"/><circle cx="398" cy="849" r="50" class="st17"/></g><circle cx="348" cy="899" r="50" class="st18"/><g><circle cx="298" cy="949" r="50" class="st19"/><circle cx="398" cy="949" r="50" class="st19"/></g><circle cx="348" cy="999" r="50" class="st20"/></g><rect width="100" height="1000" x="298" y="-1" class="st0"/><g><circle cx="348" cy="-1" r="50" class="st0"/><g><circle cx="298" cy="49" r="50" class="st1"/><circle cx="398" cy="49" r="50" class="st1"/></g><circle cx="348" cy="99" r="50" class="st2"/><g><circle cx="298" cy="149" r="50" class="st3"/><circle cx="398" cy="149" r="50" class="st3"/></g><circle cx="348" cy="199" r="50" class="st4"/><g><circle cx="298" cy="249" r="50" class="st5"/><circle cx="398" cy="249" r="50" class="st5"/></g><circle cx="348" cy="299" r="50" class="st6"/><g><circle cx="298" cy="349" r="50" class="st7"/><circle cx="398" cy="349" r="50" class="st7"/></g><circle cx="348" cy="399" r="50" class="st8"/><g><circle cx="298" cy="449" r="50" class="st9"/><circle cx="398" cy="449" r="50" class="st9"/></g><circle cx="348" cy="499" r="50" class="st10"/><g><circle cx="298" cy="549" r="50" class="st11"/><circle cx="398" cy="549" r="50" class="st11"/></g><circle cx="348" cy="599" r="50" class="st12"/><g><circle cx="298" cy="649" r="50" class="st13"/><circle cx="398" cy="649" r="50" class="st13"/></g><circle cx="348" cy="699" r="50" class="st14"/><g><circle cx="298" cy="749" r="50" class="st15"/><circle cx="398" cy="749" r="50" class="st15"/></g><circle cx="348" cy="799" r="50" class="st16"/><g><circle cx="298" cy="849" r="50" class="st17"/><circle cx="398" cy="849" r="50" class="st17"/></g><circle cx="348" cy="899" r="50" class="st18"/><g><circle cx="298" cy="949" r="50" class="st19"/><circle cx="398" cy="949" r="50" class="st19"/></g><circle cx="348" cy="999" r="50" class="st20"/></g><rect width="100" height="1000" x="361.7" y="-1" class="st0"/><g><circle cx="411.7" cy="-1" r="50" class="st0"/><g><circle cx="361.7" cy="49" r="50" class="st1"/><circle cx="461.7" cy="49" r="50" class="st1"/></g><circle cx="411.7" cy="99" r="50" class="st2"/><g><circle cx="361.7" cy="149" r="50" class="st3"/><circle cx="461.7" cy="149" r="50" class="st3"/></g><circle cx="411.7" cy="199" r="50" class="st4"/><g><circle cx="361.7" cy="249" r="50" class="st5"/><circle cx="461.7" cy="249" r="50" class="st5"/></g><circle cx="411.7" cy="299" r="50" class="st6"/><g><circle cx="361.7" cy="349" r="50" class="st7"/><circle cx="461.7" cy="349" r="50" class="st7"/></g><circle cx="411.7" cy="399" r="50" class="st8"/><g><circle cx="361.7" cy="449" r="50" class="st9"/><circle cx="461.7" cy="449" r="50" class="st9"/></g><circle cx="411.7" cy="499" r="50" class="st10"/><g><circle cx="361.7" cy="549" r="50" class="st11"/><circle cx="461.7" cy="549" r="50" class="st11"/></g><circle cx="411.7" cy="599" r="50" class="st12"/><g><circle cx="361.7" cy="649" r="50" class="st13"/><circle cx="461.7" cy="649" r="50" class="st13"/></g><circle cx="411.7" cy="699" r="50" class="st14"/><g><circle cx="361.7" cy="749" r="50" class="st15"/><circle cx="461.7" cy="749" r="50" class="st15"/></g><circle cx="411.7" cy="799" r="50" class="st16"/><g><circle cx="361.7" cy="849" r="50" class="st17"/><circle cx="461.7" cy="849" r="50" class="st17"/></g><circle cx="411.7" cy="899" r="50" class="st18"/><g><circle cx="361.7" cy="949" r="50" class="st19"/><circle cx="461.7" cy="949" r="50" class="st19"/></g><circle cx="411.7" cy="999" r="50" class="st20"/></g></svg>