<?xml version="1.0" encoding="utf-8"?>
<!-- Generator: Adobe Illustrator 23.0.2, SVG Export Plug-In . SVG Version: 6.00 Build 0)  -->
<svg version="1.1" id="Layer_1" xmlns="http://www.w3.org/2000/svg" xmlns:xlink="http://www.w3.org/1999/xlink" x="0px" y="0px"
	 viewBox="0 0 100 1000" style="enable-background:new 0 0 100 1000;" xml:space="preserve">
<style type="text/css">
	.st0{fill:#FF6719;}
	.st1{fill:#FF6F09;}
	.st2{fill:#FF7800;}
	.st3{fill:#FD8000;}
	.st4{fill:#FC8800;}
	.st5{fill:#FA9000;}
	.st6{fill:#F79800;}
	.st7{fill:#F4A000;}
	.st8{fill:#F0A800;}
	.st9{fill:#ECB000;}
	.st10{fill:#E7B700;}
	.st11{fill:#E1BF00;}
	.st12{fill:#DBC700;}
	.st13{fill:#D5CE00;}
	.st14{fill:#CDD500;}
	.st15{fill:#C5DD00;}
	.st16{fill:#BCE400;}
	.st17{fill:#B3EB00;}
	.st18{fill:#A8F200;}
	.st19{fill:#9CF800;}
	.st20{fill:#8EFF00;}
</style>
<rect class="st0" width="100" height="1000"/>
<g>
	<circle class="st0" cx="50" cy="0" r="50"/>
	<g>
		<circle class="st1" cx="0" cy="50" r="50"/>
		<circle class="st1" cx="100" cy="50" r="50"/>
	</g>
	<circle class="st2" cx="50" cy="100" r="50"/>
	<g>
		<circle class="st3" cx="0" cy="150" r="50"/>
		<circle class="st3" cx="100" cy="150" r="50"/>
	</g>
	<circle class="st4" cx="50" cy="200" r="50"/>
	<g>
		<circle class="st5" cx="0" cy="250" r="50"/>
		<circle class="st5" cx="100" cy="250" r="50"/>
	</g>
	<circle class="st6" cx="50" cy="300" r="50"/>
	<g>
		<circle class="st7" cx="0" cy="350" r="50"/>
		<circle class="st7" cx="100" cy="350" r="50"/>
	</g>
	<circle class="st8" cx="50" cy="400" r="50"/>
	<g>
		<circle class="st9" cx="0" cy="450" r="50"/>
		<circle class="st9" cx="100" cy="450" r="50"/>
	</g>
	<circle class="st10" cx="50" cy="500" r="50"/>
	<g>
		<circle class="st11" cx="0" cy="550" r="50"/>
		<circle class="st11" cx="100" cy="550" r="50"/>
	</g>
	<circle class="st12" cx="50" cy="600" r="50"/>
	<g>
		<circle class="st13" cx="0" cy="650" r="50"/>
		<circle class="st13" cx="100" cy="650" r="50"/>
	</g>
	<circle class="st14" cx="50" cy="700" r="50"/>
	<g>
		<circle class="st15" cx="0" cy="750" r="50"/>
		<circle class="st15" cx="100" cy="750" r="50"/>
	</g>
	<circle class="st16" cx="50" cy="800" r="50"/>
	<g>
		<circle class="st17" cx="0" cy="850" r="50"/>
		<circle class="st17" cx="100" cy="850" r="50"/>
	</g>
	<circle class="st18" cx="50" cy="900" r="50"/>
	<g>
		<circle class="st19" cx="0" cy="950" r="50"/>
		<circle class="st19" cx="100" cy="950" r="50"/>
	</g>
	<circle class="st20" cx="50" cy="1000" r="50"/>
</g>
<rect x="50" y="-10" class="st0" width="100" height="1000"/>
<g>
	<circle class="st0" cx="100" cy="-10" r="50"/>
	<g>
		<circle class="st1" cx="50" cy="40" r="50"/>
		<circle class="st1" cx="150" cy="40" r="50"/>
	</g>
	<circle class="st2" cx="100" cy="90" r="50"/>
	<g>
		<circle class="st3" cx="50" cy="140" r="50"/>
		<circle class="st3" cx="150" cy="140" r="50"/>
	</g>
	<circle class="st4" cx="100" cy="190" r="50"/>
	<g>
		<circle class="st5" cx="50" cy="240" r="50"/>
		<circle class="st5" cx="150" cy="240" r="50"/>
	</g>
	<circle class="st6" cx="100" cy="290" r="50"/>
	<g>
		<circle class="st7" cx="50" cy="340" r="50"/>
		<circle class="st7" cx="150" cy="340" r="50"/>
	</g>
	<circle class="st8" cx="100" cy="390" r="50"/>
	<g>
		<circle class="st9" cx="50" cy="440" r="50"/>
		<circle class="st9" cx="150" cy="440" r="50"/>
	</g>
	<circle class="st10" cx="100" cy="490" r="50"/>
	<g>
		<circle class="st11" cx="50" cy="540" r="50"/>
		<circle class="st11" cx="150" cy="540" r="50"/>
	</g>
	<circle class="st12" cx="100" cy="590" r="50"/>
	<g>
		<circle class="st13" cx="50" cy="640" r="50"/>
		<circle class="st13" cx="150" cy="640" r="50"/>
	</g>
	<circle class="st14" cx="100" cy="690" r="50"/>
	<g>
		<circle class="st15" cx="50" cy="740" r="50"/>
		<circle class="st15" cx="150" cy="740" r="50"/>
	</g>
	<circle class="st16" cx="100" cy="790" r="50"/>
	<g>
		<circle class="st17" cx="50" cy="840" r="50"/>
		<circle class="st17" cx="150" cy="840" r="50"/>
	</g>
	<circle class="st18" cx="100" cy="890" r="50"/>
	<g>
		<circle class="st19" cx="50" cy="940" r="50"/>
		<circle class="st19" cx="150" cy="940" r="50"/>
	</g>
	<circle class="st20" cx="100" cy="990" r="50"/>
</g>
<rect x="100" y="5" class="st0" width="100" height="1000"/>
<g>
	<circle class="st0" cx="150" cy="5" r="50"/>
	<g>
		<circle class="st1" cx="100" cy="55" r="50"/>
		<circle class="st1" cx="200" cy="55" r="50"/>
	</g>
	<circle class="st2" cx="150" cy="105" r="50"/>
	<g>
		<circle class="st3" cx="100" cy="155" r="50"/>
		<circle class="st3" cx="200" cy="155" r="50"/>
	</g>
	<circle class="st4" cx="150" cy="205" r="50"/>
	<g>
		<circle class="st5" cx="100" cy="255" r="50"/>
		<circle class="st5" cx="200" cy="255" r="50"/>
	</g>
	<circle class="st6" cx="150" cy="305" r="50"/>
	<g>
		<circle class="st7" cx="100" cy="355" r="50"/>
		<circle class="st7" cx="200" cy="355" r="50"/>
	</g>
	<circle class="st8" cx="150" cy="405" r="50"/>
	<g>
		<circle class="st9" cx="100" cy="455" r="50"/>
		<circle class="st9" cx="200" cy="455" r="50"/>
	</g>
	<circle class="st10" cx="150" cy="505" r="50"/>
	<g>
		<circle class="st11" cx="100" cy="555" r="50"/>
		<circle class="st11" cx="200" cy="555" r="50"/>
	</g>
	<circle class="st12" cx="150" cy="605" r="50"/>
	<g>
		<circle class="st13" cx="100" cy="655" r="50"/>
		<circle class="st13" cx="200" cy="655" r="50"/>
	</g>
	<circle class="st14" cx="150" cy="705" r="50"/>
	<g>
		<circle class="st15" cx="100" cy="755" r="50"/>
		<circle class="st15" cx="200" cy="755" r="50"/>
	</g>
	<circle class="st16" cx="150" cy="805" r="50"/>
	<g>
		<circle class="st17" cx="100" cy="855" r="50"/>
		<circle class="st17" cx="200" cy="855" r="50"/>
	</g>
	<circle class="st18" cx="150" cy="905" r="50"/>
	<g>
		<circle class="st19" cx="100" cy="955" r="50"/>
		<circle class="st19" cx="200" cy="955" r="50"/>
	</g>
	<circle class="st20" cx="150" cy="1005" r="50"/>
</g>
<rect x="150" y="-5" class="st0" width="100" height="1000"/>
<g>
	<circle class="st0" cx="200" cy="-5" r="50"/>
	<g>
		<circle class="st1" cx="150" cy="45" r="50"/>
		<circle class="st1" cx="250" cy="45" r="50"/>
	</g>
	<circle class="st2" cx="200" cy="95" r="50"/>
	<g>
		<circle class="st3" cx="150" cy="145" r="50"/>
		<circle class="st3" cx="250" cy="145" r="50"/>
	</g>
	<circle class="st4" cx="200" cy="195" r="50"/>
	<g>
		<circle class="st5" cx="150" cy="245" r="50"/>
		<circle class="st5" cx="250" cy="245" r="50"/>
	</g>
	<circle class="st6" cx="200" cy="295" r="50"/>
	<g>
		<circle class="st7" cx="150" cy="345" r="50"/>
		<circle class="st7" cx="250" cy="345" r="50"/>
	</g>
	<circle class="st8" cx="200" cy="395" r="50"/>
	<g>
		<circle class="st9" cx="150" cy="445" r="50"/>
		<circle class="st9" cx="250" cy="445" r="50"/>
	</g>
	<circle class="st10" cx="200" cy="495" r="50"/>
	<g>
		<circle class="st11" cx="150" cy="545" r="50"/>
		<circle class="st11" cx="250" cy="545" r="50"/>
	</g>
	<circle class="st12" cx="200" cy="595" r="50"/>
	<g>
		<circle class="st13" cx="150" cy="645" r="50"/>
		<circle class="st13" cx="250" cy="645" r="50"/>
	</g>
	<circle class="st14" cx="200" cy="695" r="50"/>
	<g>
		<circle class="st15" cx="150" cy="745" r="50"/>
		<circle class="st15" cx="250" cy="745" r="50"/>
	</g>
	<circle class="st16" cx="200" cy="795" r="50"/>
	<g>
		<circle class="st17" cx="150" cy="845" r="50"/>
		<circle class="st17" cx="250" cy="845" r="50"/>
	</g>
	<circle class="st18" cx="200" cy="895" r="50"/>
	<g>
		<circle class="st19" cx="150" cy="945" r="50"/>
		<circle class="st19" cx="250" cy="945" r="50"/>
	</g>
	<circle class="st20" cx="200" cy="995" r="50"/>
</g>
<rect x="185.8" y="2.5" class="st0" width="100" height="1000"/>
<g>
	<circle class="st0" cx="235.8" cy="2.5" r="50"/>
	<g>
		<circle class="st1" cx="185.8" cy="52.5" r="50"/>
		<circle class="st1" cx="285.8" cy="52.5" r="50"/>
	</g>
	<circle class="st2" cx="235.8" cy="102.5" r="50"/>
	<g>
		<circle class="st3" cx="185.8" cy="152.5" r="50"/>
		<circle class="st3" cx="285.8" cy="152.5" r="50"/>
	</g>
	<circle class="st4" cx="235.8" cy="202.5" r="50"/>
	<g>
		<circle class="st5" cx="185.8" cy="252.5" r="50"/>
		<circle class="st5" cx="285.8" cy="252.5" r="50"/>
	</g>
	<circle class="st6" cx="235.8" cy="302.5" r="50"/>
	<g>
		<circle class="st7" cx="185.8" cy="352.5" r="50"/>
		<circle class="st7" cx="285.8" cy="352.5" r="50"/>
	</g>
	<circle class="st8" cx="235.8" cy="402.5" r="50"/>
	<g>
		<circle class="st9" cx="185.8" cy="452.5" r="50"/>
		<circle class="st9" cx="285.8" cy="452.5" r="50"/>
	</g>
	<circle class="st10" cx="235.8" cy="502.5" r="50"/>
	<g>
		<circle class="st11" cx="185.8" cy="552.5" r="50"/>
		<circle class="st11" cx="285.8" cy="552.5" r="50"/>
	</g>
	<circle class="st12" cx="235.8" cy="602.5" r="50"/>
	<g>
		<circle class="st13" cx="185.8" cy="652.5" r="50"/>
		<circle class="st13" cx="285.8" cy="652.5" r="50"/>
	</g>
	<circle class="st14" cx="235.8" cy="702.5" r="50"/>
	<g>
		<circle class="st15" cx="185.8" cy="752.5" r="50"/>
		<circle class="st15" cx="285.8" cy="752.5" r="50"/>
	</g>
	<circle class="st16" cx="235.8" cy="802.5" r="50"/>
	<g>
		<circle class="st17" cx="185.8" cy="852.5" r="50"/>
		<circle class="st17" cx="285.8" cy="852.5" r="50"/>
	</g>
	<circle class="st18" cx="235.8" cy="902.5" r="50"/>
	<g>
		<circle class="st19" cx="185.8" cy="952.5" r="50"/>
		<circle class="st19" cx="285.8" cy="952.5" r="50"/>
	</g>
	<circle class="st20" cx="235.8" cy="1002.5" r="50"/>
</g>
<rect x="235.8" y="-7.5" class="st0" width="100" height="1000"/>
<g>
	<circle class="st0" cx="285.8" cy="-7.5" r="50"/>
	<g>
		<circle class="st1" cx="235.8" cy="42.5" r="50"/>
		<circle class="st1" cx="335.8" cy="42.5" r="50"/>
	</g>
	<circle class="st2" cx="285.8" cy="92.5" r="50"/>
	<g>
		<circle class="st3" cx="235.8" cy="142.5" r="50"/>
		<circle class="st3" cx="335.8" cy="142.5" r="50"/>
	</g>
	<circle class="st4" cx="285.8" cy="192.5" r="50"/>
	<g>
		<circle class="st5" cx="235.8" cy="242.5" r="50"/>
		<circle class="st5" cx="335.8" cy="242.5" r="50"/>
	</g>
	<circle class="st6" cx="285.8" cy="292.5" r="50"/>
	<g>
		<circle class="st7" cx="235.8" cy="342.5" r="50"/>
		<circle class="st7" cx="335.8" cy="342.5" r="50"/>
	</g>
	<circle class="st8" cx="285.8" cy="392.5" r="50"/>
	<g>
		<circle class="st9" cx="235.8" cy="442.5" r="50"/>
		<circle class="st9" cx="335.8" cy="442.5" r="50"/>
	</g>
	<circle class="st10" cx="285.8" cy="492.5" r="50"/>
	<g>
		<circle class="st11" cx="235.8" cy="542.5" r="50"/>
		<circle class="st11" cx="335.8" cy="542.5" r="50"/>
	</g>
	<circle class="st12" cx="285.8" cy="592.5" r="50"/>
	<g>
		<circle class="st13" cx="235.8" cy="642.5" r="50"/>
		<circle class="st13" cx="335.8" cy="642.5" r="50"/>
	</g>
	<circle class="st14" cx="285.8" cy="692.5" r="50"/>
	<g>
		<circle class="st15" cx="235.8" cy="742.5" r="50"/>
		<circle class="st15" cx="335.8" cy="742.5" r="50"/>
	</g>
	<circle class="st16" cx="285.8" cy="792.5" r="50"/>
	<g>
		<circle class="st17" cx="235.8" cy="842.5" r="50"/>
		<circle class="st17" cx="335.8" cy="842.5" r="50"/>
	</g>
	<circle class="st18" cx="285.8" cy="892.5" r="50"/>
	<g>
		<circle class="st19" cx="235.8" cy="942.5" r="50"/>
		<circle class="st19" cx="335.8" cy="942.5" r="50"/>
	</g>
	<circle class="st20" cx="285.8" cy="992.5" r="50"/>
</g>
<rect x="285.8" y="7.5" class="st0" width="100" height="1000"/>
<g>
	<circle class="st0" cx="335.8" cy="7.5" r="50"/>
	<g>
		<circle class="st1" cx="285.8" cy="57.5" r="50"/>
		<circle class="st1" cx="385.8" cy="57.5" r="50"/>
	</g>
	<circle class="st2" cx="335.8" cy="107.5" r="50"/>
	<g>
		<circle class="st3" cx="285.8" cy="157.5" r="50"/>
		<circle class="st3" cx="385.8" cy="157.5" r="50"/>
	</g>
	<circle class="st4" cx="335.8" cy="207.5" r="50"/>
	<g>
		<circle class="st5" cx="285.8" cy="257.5" r="50"/>
		<circle class="st5" cx="385.8" cy="257.5" r="50"/>
	</g>
	<circle class="st6" cx="335.8" cy="307.5" r="50"/>
	<g>
		<circle class="st7" cx="285.8" cy="357.5" r="50"/>
		<circle class="st7" cx="385.8" cy="357.5" r="50"/>
	</g>
	<circle class="st8" cx="335.8" cy="407.5" r="50"/>
	<g>
		<circle class="st9" cx="285.8" cy="457.5" r="50"/>
		<circle class="st9" cx="385.8" cy="457.5" r="50"/>
	</g>
	<circle class="st10" cx="335.8" cy="507.5" r="50"/>
	<g>
		<circle class="st11" cx="285.8" cy="557.5" r="50"/>
		<circle class="st11" cx="385.8" cy="557.5" r="50"/>
	</g>
	<circle class="st12" cx="335.8" cy="607.5" r="50"/>
	<g>
		<circle class="st13" cx="285.8" cy="657.5" r="50"/>
		<circle class="st13" cx="385.8" cy="657.5" r="50"/>
	</g>
	<circle class="st14" cx="335.8" cy="707.5" r="50"/>
	<g>
		<circle class="st15" cx="285.8" cy="757.5" r="50"/>
		<circle class="st15" cx="385.8" cy="757.5" r="50"/>
	</g>
	<circle class="st16" cx="335.8" cy="807.5" r="50"/>
	<g>
		<circle class="st17" cx="285.8" cy="857.5" r="50"/>
		<circle class="st17" cx="385.8" cy="857.5" r="50"/>
	</g>
	<circle class="st18" cx="335.8" cy="907.5" r="50"/>
	<g>
		<circle class="st19" cx="285.8" cy="957.5" r="50"/>
		<circle class="st19" cx="385.8" cy="957.5" r="50"/>
	</g>
	<circle class="st20" cx="335.8" cy="1007.5" r="50"/>
</g>
<rect x="335.8" y="-2.5" class="st0" width="100" height="1000"/>
<g>
	<circle class="st0" cx="385.8" cy="-2.5" r="50"/>
	<g>
		<circle class="st1" cx="335.8" cy="47.5" r="50"/>
		<circle class="st1" cx="435.8" cy="47.5" r="50"/>
	</g>
	<circle class="st2" cx="385.8" cy="97.5" r="50"/>
	<g>
		<circle class="st3" cx="335.8" cy="147.5" r="50"/>
		<circle class="st3" cx="435.8" cy="147.5" r="50"/>
	</g>
	<circle class="st4" cx="385.8" cy="197.5" r="50"/>
	<g>
		<circle class="st5" cx="335.8" cy="247.5" r="50"/>
		<circle class="st5" cx="435.8" cy="247.5" r="50"/>
	</g>
	<circle class="st6" cx="385.8" cy="297.5" r="50"/>
	<g>
		<circle class="st7" cx="335.8" cy="347.5" r="50"/>
		<circle class="st7" cx="435.8" cy="347.5" r="50"/>
	</g>
	<circle class="st8" cx="385.8" cy="397.5" r="50"/>
	<g>
		<circle class="st9" cx="335.8" cy="447.5" r="50"/>
		<circle class="st9" cx="435.8" cy="447.5" r="50"/>
	</g>
	<circle class="st10" cx="385.8" cy="497.5" r="50"/>
	<g>
		<circle class="st11" cx="335.8" cy="547.5" r="50"/>
		<circle class="st11" cx="435.8" cy="547.5" r="50"/>
	</g>
	<circle class="st12" cx="385.8" cy="597.5" r="50"/>
	<g>
		<circle class="st13" cx="335.8" cy="647.5" r="50"/>
		<circle class="st13" cx="435.8" cy="647.5" r="50"/>
	</g>
	<circle class="st14" cx="385.8" cy="697.5" r="50"/>
	<g>
		<circle class="st15" cx="335.8" cy="747.5" r="50"/>
		<circle class="st15" cx="435.8" cy="747.5" r="50"/>
	</g>
	<circle class="st16" cx="385.8" cy="797.5" r="50"/>
	<g>
		<circle class="st17" cx="335.8" cy="847.5" r="50"/>
		<circle class="st17" cx="435.8" cy="847.5" r="50"/>
	</g>
	<circle class="st18" cx="385.8" cy="897.5" r="50"/>
	<g>
		<circle class="st19" cx="335.8" cy="947.5" r="50"/>
		<circle class="st19" cx="435.8" cy="947.5" r="50"/>
	</g>
	<circle class="st20" cx="385.8" cy="997.5" r="50"/>
</g>
</svg>
