<?xml version="1.0" encoding="utf-8"?>
<!-- Generator: Adobe Illustrator 23.0.2, SVG Export Plug-In . SVG Version: 6.00 Build 0)  -->
<svg version="1.1" id="Layer_1" xmlns="http://www.w3.org/2000/svg" xmlns:xlink="http://www.w3.org/1999/xlink" x="0px" y="0px"
	 viewBox="0 0 100 1000" style="enable-background:new 0 0 100 1000;" xml:space="preserve">
<style type="text/css">
	.st0{fill:#EC2863;}
	.st1{fill:#EE367B;}
	.st2{fill:#ED4592;}
	.st3{fill:#E955A8;}
	.st4{fill:#E364BD;}
	.st5{fill:#DA73CF;}
	.st6{fill:#D081DF;}
	.st7{fill:#C48EED;}
	.st8{fill:#B79BF8;}
	.st9{fill:#ABA7FF;}
	.st10{fill:#9FB2FF;}
	.st11{fill:#95BCFF;}
	.st12{fill:#8EC6FF;}
	.st13{fill:#8ACEFF;}
	.st14{fill:#8BD7FF;}
	.st15{fill:#8FDEFF;}
	.st16{fill:#97E5FF;}
	.st17{fill:#A2ECFF;}
	.st18{fill:#AFF2FF;}
	.st19{fill:#BCF8FF;}
	.st20{fill:#CBFDFF;}
</style>
<rect class="st0" width="100" height="1000"/>
<g>
	<circle class="st0" cx="50" cy="0" r="50"/>
	<g>
		<circle class="st1" cx="0" cy="50" r="50"/>
		<circle class="st1" cx="100" cy="50" r="50"/>
	</g>
	<circle class="st2" cx="50" cy="100" r="50"/>
	<g>
		<circle class="st3" cx="0" cy="150" r="50"/>
		<circle class="st3" cx="100" cy="150" r="50"/>
	</g>
	<circle class="st4" cx="50" cy="200" r="50"/>
	<g>
		<circle class="st5" cx="0" cy="250" r="50"/>
		<circle class="st5" cx="100" cy="250" r="50"/>
	</g>
	<circle class="st6" cx="50" cy="300" r="50"/>
	<g>
		<circle class="st7" cx="0" cy="350" r="50"/>
		<circle class="st7" cx="100" cy="350" r="50"/>
	</g>
	<circle class="st8" cx="50" cy="400" r="50"/>
	<g>
		<circle class="st9" cx="0" cy="450" r="50"/>
		<circle class="st9" cx="100" cy="450" r="50"/>
	</g>
	<circle class="st10" cx="50" cy="500" r="50"/>
	<g>
		<circle class="st11" cx="0" cy="550" r="50"/>
		<circle class="st11" cx="100" cy="550" r="50"/>
	</g>
	<circle class="st12" cx="50" cy="600" r="50"/>
	<g>
		<circle class="st13" cx="0" cy="650" r="50"/>
		<circle class="st13" cx="100" cy="650" r="50"/>
	</g>
	<circle class="st14" cx="50" cy="700" r="50"/>
	<g>
		<circle class="st15" cx="0" cy="750" r="50"/>
		<circle class="st15" cx="100" cy="750" r="50"/>
	</g>
	<circle class="st16" cx="50" cy="800" r="50"/>
	<g>
		<circle class="st17" cx="0" cy="850" r="50"/>
		<circle class="st17" cx="100" cy="850" r="50"/>
	</g>
	<circle class="st18" cx="50" cy="900" r="50"/>
	<g>
		<circle class="st19" cx="0" cy="950" r="50"/>
		<circle class="st19" cx="100" cy="950" r="50"/>
	</g>
	<circle class="st20" cx="50" cy="1000" r="50"/>
</g>
<rect x="63.7" class="st0" width="100" height="1000"/>
<g>
	<circle class="st0" cx="113.7" cy="0" r="50"/>
	<g>
		<circle class="st1" cx="63.7" cy="50" r="50"/>
		<circle class="st1" cx="163.7" cy="50" r="50"/>
	</g>
	<circle class="st2" cx="113.7" cy="100" r="50"/>
	<g>
		<circle class="st3" cx="63.7" cy="150" r="50"/>
		<circle class="st3" cx="163.7" cy="150" r="50"/>
	</g>
	<circle class="st4" cx="113.7" cy="200" r="50"/>
	<g>
		<circle class="st5" cx="63.7" cy="250" r="50"/>
		<circle class="st5" cx="163.7" cy="250" r="50"/>
	</g>
	<circle class="st6" cx="113.7" cy="300" r="50"/>
	<g>
		<circle class="st7" cx="63.7" cy="350" r="50"/>
		<circle class="st7" cx="163.7" cy="350" r="50"/>
	</g>
	<circle class="st8" cx="113.7" cy="400" r="50"/>
	<g>
		<circle class="st9" cx="63.7" cy="450" r="50"/>
		<circle class="st9" cx="163.7" cy="450" r="50"/>
	</g>
	<circle class="st10" cx="113.7" cy="500" r="50"/>
	<g>
		<circle class="st11" cx="63.7" cy="550" r="50"/>
		<circle class="st11" cx="163.7" cy="550" r="50"/>
	</g>
	<circle class="st12" cx="113.7" cy="600" r="50"/>
	<g>
		<circle class="st13" cx="63.7" cy="650" r="50"/>
		<circle class="st13" cx="163.7" cy="650" r="50"/>
	</g>
	<circle class="st14" cx="113.7" cy="700" r="50"/>
	<g>
		<circle class="st15" cx="63.7" cy="750" r="50"/>
		<circle class="st15" cx="163.7" cy="750" r="50"/>
	</g>
	<circle class="st16" cx="113.7" cy="800" r="50"/>
	<g>
		<circle class="st17" cx="63.7" cy="850" r="50"/>
		<circle class="st17" cx="163.7" cy="850" r="50"/>
	</g>
	<circle class="st18" cx="113.7" cy="900" r="50"/>
	<g>
		<circle class="st19" cx="63.7" cy="950" r="50"/>
		<circle class="st19" cx="163.7" cy="950" r="50"/>
	</g>
	<circle class="st20" cx="113.7" cy="1000" r="50"/>
</g>
<rect x="63.7" class="st0" width="100" height="1000"/>
<g>
	<circle class="st0" cx="113.7" cy="0" r="50"/>
	<g>
		<circle class="st1" cx="63.7" cy="50" r="50"/>
		<circle class="st1" cx="163.7" cy="50" r="50"/>
	</g>
	<circle class="st2" cx="113.7" cy="100" r="50"/>
	<g>
		<circle class="st3" cx="63.7" cy="150" r="50"/>
		<circle class="st3" cx="163.7" cy="150" r="50"/>
	</g>
	<circle class="st4" cx="113.7" cy="200" r="50"/>
	<g>
		<circle class="st5" cx="63.7" cy="250" r="50"/>
		<circle class="st5" cx="163.7" cy="250" r="50"/>
	</g>
	<circle class="st6" cx="113.7" cy="300" r="50"/>
	<g>
		<circle class="st7" cx="63.7" cy="350" r="50"/>
		<circle class="st7" cx="163.7" cy="350" r="50"/>
	</g>
	<circle class="st8" cx="113.7" cy="400" r="50"/>
	<g>
		<circle class="st9" cx="63.7" cy="450" r="50"/>
		<circle class="st9" cx="163.7" cy="450" r="50"/>
	</g>
	<circle class="st10" cx="113.7" cy="500" r="50"/>
	<g>
		<circle class="st11" cx="63.7" cy="550" r="50"/>
		<circle class="st11" cx="163.7" cy="550" r="50"/>
	</g>
	<circle class="st12" cx="113.7" cy="600" r="50"/>
	<g>
		<circle class="st13" cx="63.7" cy="650" r="50"/>
		<circle class="st13" cx="163.7" cy="650" r="50"/>
	</g>
	<circle class="st14" cx="113.7" cy="700" r="50"/>
	<g>
		<circle class="st15" cx="63.7" cy="750" r="50"/>
		<circle class="st15" cx="163.7" cy="750" r="50"/>
	</g>
	<circle class="st16" cx="113.7" cy="800" r="50"/>
	<g>
		<circle class="st17" cx="63.7" cy="850" r="50"/>
		<circle class="st17" cx="163.7" cy="850" r="50"/>
	</g>
	<circle class="st18" cx="113.7" cy="900" r="50"/>
	<g>
		<circle class="st19" cx="63.7" cy="950" r="50"/>
		<circle class="st19" cx="163.7" cy="950" r="50"/>
	</g>
	<circle class="st20" cx="113.7" cy="1000" r="50"/>
</g>
<rect x="127.4" class="st0" width="100" height="1000"/>
<g>
	<circle class="st0" cx="177.4" cy="0" r="50"/>
	<g>
		<circle class="st1" cx="127.4" cy="50" r="50"/>
		<circle class="st1" cx="227.4" cy="50" r="50"/>
	</g>
	<circle class="st2" cx="177.4" cy="100" r="50"/>
	<g>
		<circle class="st3" cx="127.4" cy="150" r="50"/>
		<circle class="st3" cx="227.4" cy="150" r="50"/>
	</g>
	<circle class="st4" cx="177.4" cy="200" r="50"/>
	<g>
		<circle class="st5" cx="127.4" cy="250" r="50"/>
		<circle class="st5" cx="227.4" cy="250" r="50"/>
	</g>
	<circle class="st6" cx="177.4" cy="300" r="50"/>
	<g>
		<circle class="st7" cx="127.4" cy="350" r="50"/>
		<circle class="st7" cx="227.4" cy="350" r="50"/>
	</g>
	<circle class="st8" cx="177.4" cy="400" r="50"/>
	<g>
		<circle class="st9" cx="127.4" cy="450" r="50"/>
		<circle class="st9" cx="227.4" cy="450" r="50"/>
	</g>
	<circle class="st10" cx="177.4" cy="500" r="50"/>
	<g>
		<circle class="st11" cx="127.4" cy="550" r="50"/>
		<circle class="st11" cx="227.4" cy="550" r="50"/>
	</g>
	<circle class="st12" cx="177.4" cy="600" r="50"/>
	<g>
		<circle class="st13" cx="127.4" cy="650" r="50"/>
		<circle class="st13" cx="227.4" cy="650" r="50"/>
	</g>
	<circle class="st14" cx="177.4" cy="700" r="50"/>
	<g>
		<circle class="st15" cx="127.4" cy="750" r="50"/>
		<circle class="st15" cx="227.4" cy="750" r="50"/>
	</g>
	<circle class="st16" cx="177.4" cy="800" r="50"/>
	<g>
		<circle class="st17" cx="127.4" cy="850" r="50"/>
		<circle class="st17" cx="227.4" cy="850" r="50"/>
	</g>
	<circle class="st18" cx="177.4" cy="900" r="50"/>
	<g>
		<circle class="st19" cx="127.4" cy="950" r="50"/>
		<circle class="st19" cx="227.4" cy="950" r="50"/>
	</g>
	<circle class="st20" cx="177.4" cy="1000" r="50"/>
</g>
<rect x="113.7" y="-1.9" class="st0" width="100" height="1000"/>
<g>
	<circle class="st0" cx="163.7" cy="-1.9" r="50"/>
	<g>
		<circle class="st1" cx="113.7" cy="48.1" r="50"/>
		<circle class="st1" cx="213.7" cy="48.1" r="50"/>
	</g>
	<circle class="st2" cx="163.7" cy="98.1" r="50"/>
	<g>
		<circle class="st3" cx="113.7" cy="148.1" r="50"/>
		<circle class="st3" cx="213.7" cy="148.1" r="50"/>
	</g>
	<circle class="st4" cx="163.7" cy="198.1" r="50"/>
	<g>
		<circle class="st5" cx="113.7" cy="248.1" r="50"/>
		<circle class="st5" cx="213.7" cy="248.1" r="50"/>
	</g>
	<circle class="st6" cx="163.7" cy="298.1" r="50"/>
	<g>
		<circle class="st7" cx="113.7" cy="348.1" r="50"/>
		<circle class="st7" cx="213.7" cy="348.1" r="50"/>
	</g>
	<circle class="st8" cx="163.7" cy="398.1" r="50"/>
	<g>
		<circle class="st9" cx="113.7" cy="448.1" r="50"/>
		<circle class="st9" cx="213.7" cy="448.1" r="50"/>
	</g>
	<circle class="st10" cx="163.7" cy="498.1" r="50"/>
	<g>
		<circle class="st11" cx="113.7" cy="548.1" r="50"/>
		<circle class="st11" cx="213.7" cy="548.1" r="50"/>
	</g>
	<circle class="st12" cx="163.7" cy="598.1" r="50"/>
	<g>
		<circle class="st13" cx="113.7" cy="648.1" r="50"/>
		<circle class="st13" cx="213.7" cy="648.1" r="50"/>
	</g>
	<circle class="st14" cx="163.7" cy="698.1" r="50"/>
	<g>
		<circle class="st15" cx="113.7" cy="748.1" r="50"/>
		<circle class="st15" cx="213.7" cy="748.1" r="50"/>
	</g>
	<circle class="st16" cx="163.7" cy="798.1" r="50"/>
	<g>
		<circle class="st17" cx="113.7" cy="848.1" r="50"/>
		<circle class="st17" cx="213.7" cy="848.1" r="50"/>
	</g>
	<circle class="st18" cx="163.7" cy="898.1" r="50"/>
	<g>
		<circle class="st19" cx="113.7" cy="948.1" r="50"/>
		<circle class="st19" cx="213.7" cy="948.1" r="50"/>
	</g>
	<circle class="st20" cx="163.7" cy="998.1" r="50"/>
</g>
<rect x="177.4" y="-1.9" class="st0" width="100" height="1000"/>
<g>
	<circle class="st0" cx="227.4" cy="-1.9" r="50"/>
	<g>
		<circle class="st1" cx="177.4" cy="48.1" r="50"/>
		<circle class="st1" cx="277.4" cy="48.1" r="50"/>
	</g>
	<circle class="st2" cx="227.4" cy="98.1" r="50"/>
	<g>
		<circle class="st3" cx="177.4" cy="148.1" r="50"/>
		<circle class="st3" cx="277.4" cy="148.1" r="50"/>
	</g>
	<circle class="st4" cx="227.4" cy="198.1" r="50"/>
	<g>
		<circle class="st5" cx="177.4" cy="248.1" r="50"/>
		<circle class="st5" cx="277.4" cy="248.1" r="50"/>
	</g>
	<circle class="st6" cx="227.4" cy="298.1" r="50"/>
	<g>
		<circle class="st7" cx="177.4" cy="348.1" r="50"/>
		<circle class="st7" cx="277.4" cy="348.1" r="50"/>
	</g>
	<circle class="st8" cx="227.4" cy="398.1" r="50"/>
	<g>
		<circle class="st9" cx="177.4" cy="448.1" r="50"/>
		<circle class="st9" cx="277.4" cy="448.1" r="50"/>
	</g>
	<circle class="st10" cx="227.4" cy="498.1" r="50"/>
	<g>
		<circle class="st11" cx="177.4" cy="548.1" r="50"/>
		<circle class="st11" cx="277.4" cy="548.1" r="50"/>
	</g>
	<circle class="st12" cx="227.4" cy="598.1" r="50"/>
	<g>
		<circle class="st13" cx="177.4" cy="648.1" r="50"/>
		<circle class="st13" cx="277.4" cy="648.1" r="50"/>
	</g>
	<circle class="st14" cx="227.4" cy="698.1" r="50"/>
	<g>
		<circle class="st15" cx="177.4" cy="748.1" r="50"/>
		<circle class="st15" cx="277.4" cy="748.1" r="50"/>
	</g>
	<circle class="st16" cx="227.4" cy="798.1" r="50"/>
	<g>
		<circle class="st17" cx="177.4" cy="848.1" r="50"/>
		<circle class="st17" cx="277.4" cy="848.1" r="50"/>
	</g>
	<circle class="st18" cx="227.4" cy="898.1" r="50"/>
	<g>
		<circle class="st19" cx="177.4" cy="948.1" r="50"/>
		<circle class="st19" cx="277.4" cy="948.1" r="50"/>
	</g>
	<circle class="st20" cx="227.4" cy="998.1" r="50"/>
</g>
<rect x="177.4" y="-1.9" class="st0" width="100" height="1000"/>
<g>
	<circle class="st0" cx="227.4" cy="-1.9" r="50"/>
	<g>
		<circle class="st1" cx="177.4" cy="48.1" r="50"/>
		<circle class="st1" cx="277.4" cy="48.1" r="50"/>
	</g>
	<circle class="st2" cx="227.4" cy="98.1" r="50"/>
	<g>
		<circle class="st3" cx="177.4" cy="148.1" r="50"/>
		<circle class="st3" cx="277.4" cy="148.1" r="50"/>
	</g>
	<circle class="st4" cx="227.4" cy="198.1" r="50"/>
	<g>
		<circle class="st5" cx="177.4" cy="248.1" r="50"/>
		<circle class="st5" cx="277.4" cy="248.1" r="50"/>
	</g>
	<circle class="st6" cx="227.4" cy="298.1" r="50"/>
	<g>
		<circle class="st7" cx="177.4" cy="348.1" r="50"/>
		<circle class="st7" cx="277.4" cy="348.1" r="50"/>
	</g>
	<circle class="st8" cx="227.4" cy="398.1" r="50"/>
	<g>
		<circle class="st9" cx="177.4" cy="448.1" r="50"/>
		<circle class="st9" cx="277.4" cy="448.1" r="50"/>
	</g>
	<circle class="st10" cx="227.4" cy="498.1" r="50"/>
	<g>
		<circle class="st11" cx="177.4" cy="548.1" r="50"/>
		<circle class="st11" cx="277.4" cy="548.1" r="50"/>
	</g>
	<circle class="st12" cx="227.4" cy="598.1" r="50"/>
	<g>
		<circle class="st13" cx="177.4" cy="648.1" r="50"/>
		<circle class="st13" cx="277.4" cy="648.1" r="50"/>
	</g>
	<circle class="st14" cx="227.4" cy="698.1" r="50"/>
	<g>
		<circle class="st15" cx="177.4" cy="748.1" r="50"/>
		<circle class="st15" cx="277.4" cy="748.1" r="50"/>
	</g>
	<circle class="st16" cx="227.4" cy="798.1" r="50"/>
	<g>
		<circle class="st17" cx="177.4" cy="848.1" r="50"/>
		<circle class="st17" cx="277.4" cy="848.1" r="50"/>
	</g>
	<circle class="st18" cx="227.4" cy="898.1" r="50"/>
	<g>
		<circle class="st19" cx="177.4" cy="948.1" r="50"/>
		<circle class="st19" cx="277.4" cy="948.1" r="50"/>
	</g>
	<circle class="st20" cx="227.4" cy="998.1" r="50"/>
</g>
<rect x="241.2" y="-1.9" class="st0" width="100" height="1000"/>
<g>
	<circle class="st0" cx="291.2" cy="-1.9" r="50"/>
	<g>
		<circle class="st1" cx="241.2" cy="48.1" r="50"/>
		<circle class="st1" cx="341.2" cy="48.1" r="50"/>
	</g>
	<circle class="st2" cx="291.2" cy="98.1" r="50"/>
	<g>
		<circle class="st3" cx="241.2" cy="148.1" r="50"/>
		<circle class="st3" cx="341.2" cy="148.1" r="50"/>
	</g>
	<circle class="st4" cx="291.2" cy="198.1" r="50"/>
	<g>
		<circle class="st5" cx="241.2" cy="248.1" r="50"/>
		<circle class="st5" cx="341.2" cy="248.1" r="50"/>
	</g>
	<circle class="st6" cx="291.2" cy="298.1" r="50"/>
	<g>
		<circle class="st7" cx="241.2" cy="348.1" r="50"/>
		<circle class="st7" cx="341.2" cy="348.1" r="50"/>
	</g>
	<circle class="st8" cx="291.2" cy="398.1" r="50"/>
	<g>
		<circle class="st9" cx="241.2" cy="448.1" r="50"/>
		<circle class="st9" cx="341.2" cy="448.1" r="50"/>
	</g>
	<circle class="st10" cx="291.2" cy="498.1" r="50"/>
	<g>
		<circle class="st11" cx="241.2" cy="548.1" r="50"/>
		<circle class="st11" cx="341.2" cy="548.1" r="50"/>
	</g>
	<circle class="st12" cx="291.2" cy="598.1" r="50"/>
	<g>
		<circle class="st13" cx="241.2" cy="648.1" r="50"/>
		<circle class="st13" cx="341.2" cy="648.1" r="50"/>
	</g>
	<circle class="st14" cx="291.2" cy="698.1" r="50"/>
	<g>
		<circle class="st15" cx="241.2" cy="748.1" r="50"/>
		<circle class="st15" cx="341.2" cy="748.1" r="50"/>
	</g>
	<circle class="st16" cx="291.2" cy="798.1" r="50"/>
	<g>
		<circle class="st17" cx="241.2" cy="848.1" r="50"/>
		<circle class="st17" cx="341.2" cy="848.1" r="50"/>
	</g>
	<circle class="st18" cx="291.2" cy="898.1" r="50"/>
	<g>
		<circle class="st19" cx="241.2" cy="948.1" r="50"/>
		<circle class="st19" cx="341.2" cy="948.1" r="50"/>
	</g>
	<circle class="st20" cx="291.2" cy="998.1" r="50"/>
</g>
<rect x="120.6" y="1" class="st0" width="100" height="1000"/>
<g>
	<circle class="st0" cx="170.6" cy="1" r="50"/>
	<g>
		<circle class="st1" cx="120.6" cy="51" r="50"/>
		<circle class="st1" cx="220.6" cy="51" r="50"/>
	</g>
	<circle class="st2" cx="170.6" cy="101" r="50"/>
	<g>
		<circle class="st3" cx="120.6" cy="151" r="50"/>
		<circle class="st3" cx="220.6" cy="151" r="50"/>
	</g>
	<circle class="st4" cx="170.6" cy="201" r="50"/>
	<g>
		<circle class="st5" cx="120.6" cy="251" r="50"/>
		<circle class="st5" cx="220.6" cy="251" r="50"/>
	</g>
	<circle class="st6" cx="170.6" cy="301" r="50"/>
	<g>
		<circle class="st7" cx="120.6" cy="351" r="50"/>
		<circle class="st7" cx="220.6" cy="351" r="50"/>
	</g>
	<circle class="st8" cx="170.6" cy="401" r="50"/>
	<g>
		<circle class="st9" cx="120.6" cy="451" r="50"/>
		<circle class="st9" cx="220.6" cy="451" r="50"/>
	</g>
	<circle class="st10" cx="170.6" cy="501" r="50"/>
	<g>
		<circle class="st11" cx="120.6" cy="551" r="50"/>
		<circle class="st11" cx="220.6" cy="551" r="50"/>
	</g>
	<circle class="st12" cx="170.6" cy="601" r="50"/>
	<g>
		<circle class="st13" cx="120.6" cy="651" r="50"/>
		<circle class="st13" cx="220.6" cy="651" r="50"/>
	</g>
	<circle class="st14" cx="170.6" cy="701" r="50"/>
	<g>
		<circle class="st15" cx="120.6" cy="751" r="50"/>
		<circle class="st15" cx="220.6" cy="751" r="50"/>
	</g>
	<circle class="st16" cx="170.6" cy="801" r="50"/>
	<g>
		<circle class="st17" cx="120.6" cy="851" r="50"/>
		<circle class="st17" cx="220.6" cy="851" r="50"/>
	</g>
	<circle class="st18" cx="170.6" cy="901" r="50"/>
	<g>
		<circle class="st19" cx="120.6" cy="951" r="50"/>
		<circle class="st19" cx="220.6" cy="951" r="50"/>
	</g>
	<circle class="st20" cx="170.6" cy="1001" r="50"/>
</g>
<rect x="184.3" y="1" class="st0" width="100" height="1000"/>
<g>
	<circle class="st0" cx="234.3" cy="1" r="50"/>
	<g>
		<circle class="st1" cx="184.3" cy="51" r="50"/>
		<circle class="st1" cx="284.3" cy="51" r="50"/>
	</g>
	<circle class="st2" cx="234.3" cy="101" r="50"/>
	<g>
		<circle class="st3" cx="184.3" cy="151" r="50"/>
		<circle class="st3" cx="284.3" cy="151" r="50"/>
	</g>
	<circle class="st4" cx="234.3" cy="201" r="50"/>
	<g>
		<circle class="st5" cx="184.3" cy="251" r="50"/>
		<circle class="st5" cx="284.3" cy="251" r="50"/>
	</g>
	<circle class="st6" cx="234.3" cy="301" r="50"/>
	<g>
		<circle class="st7" cx="184.3" cy="351" r="50"/>
		<circle class="st7" cx="284.3" cy="351" r="50"/>
	</g>
	<circle class="st8" cx="234.3" cy="401" r="50"/>
	<g>
		<circle class="st9" cx="184.3" cy="451" r="50"/>
		<circle class="st9" cx="284.3" cy="451" r="50"/>
	</g>
	<circle class="st10" cx="234.3" cy="501" r="50"/>
	<g>
		<circle class="st11" cx="184.3" cy="551" r="50"/>
		<circle class="st11" cx="284.3" cy="551" r="50"/>
	</g>
	<circle class="st12" cx="234.3" cy="601" r="50"/>
	<g>
		<circle class="st13" cx="184.3" cy="651" r="50"/>
		<circle class="st13" cx="284.3" cy="651" r="50"/>
	</g>
	<circle class="st14" cx="234.3" cy="701" r="50"/>
	<g>
		<circle class="st15" cx="184.3" cy="751" r="50"/>
		<circle class="st15" cx="284.3" cy="751" r="50"/>
	</g>
	<circle class="st16" cx="234.3" cy="801" r="50"/>
	<g>
		<circle class="st17" cx="184.3" cy="851" r="50"/>
		<circle class="st17" cx="284.3" cy="851" r="50"/>
	</g>
	<circle class="st18" cx="234.3" cy="901" r="50"/>
	<g>
		<circle class="st19" cx="184.3" cy="951" r="50"/>
		<circle class="st19" cx="284.3" cy="951" r="50"/>
	</g>
	<circle class="st20" cx="234.3" cy="1001" r="50"/>
</g>
<rect x="184.3" y="1" class="st0" width="100" height="1000"/>
<g>
	<circle class="st0" cx="234.3" cy="1" r="50"/>
	<g>
		<circle class="st1" cx="184.3" cy="51" r="50"/>
		<circle class="st1" cx="284.3" cy="51" r="50"/>
	</g>
	<circle class="st2" cx="234.3" cy="101" r="50"/>
	<g>
		<circle class="st3" cx="184.3" cy="151" r="50"/>
		<circle class="st3" cx="284.3" cy="151" r="50"/>
	</g>
	<circle class="st4" cx="234.3" cy="201" r="50"/>
	<g>
		<circle class="st5" cx="184.3" cy="251" r="50"/>
		<circle class="st5" cx="284.3" cy="251" r="50"/>
	</g>
	<circle class="st6" cx="234.3" cy="301" r="50"/>
	<g>
		<circle class="st7" cx="184.3" cy="351" r="50"/>
		<circle class="st7" cx="284.3" cy="351" r="50"/>
	</g>
	<circle class="st8" cx="234.3" cy="401" r="50"/>
	<g>
		<circle class="st9" cx="184.3" cy="451" r="50"/>
		<circle class="st9" cx="284.3" cy="451" r="50"/>
	</g>
	<circle class="st10" cx="234.3" cy="501" r="50"/>
	<g>
		<circle class="st11" cx="184.3" cy="551" r="50"/>
		<circle class="st11" cx="284.3" cy="551" r="50"/>
	</g>
	<circle class="st12" cx="234.3" cy="601" r="50"/>
	<g>
		<circle class="st13" cx="184.3" cy="651" r="50"/>
		<circle class="st13" cx="284.3" cy="651" r="50"/>
	</g>
	<circle class="st14" cx="234.3" cy="701" r="50"/>
	<g>
		<circle class="st15" cx="184.3" cy="751" r="50"/>
		<circle class="st15" cx="284.3" cy="751" r="50"/>
	</g>
	<circle class="st16" cx="234.3" cy="801" r="50"/>
	<g>
		<circle class="st17" cx="184.3" cy="851" r="50"/>
		<circle class="st17" cx="284.3" cy="851" r="50"/>
	</g>
	<circle class="st18" cx="234.3" cy="901" r="50"/>
	<g>
		<circle class="st19" cx="184.3" cy="951" r="50"/>
		<circle class="st19" cx="284.3" cy="951" r="50"/>
	</g>
	<circle class="st20" cx="234.3" cy="1001" r="50"/>
</g>
<rect x="248" y="1" class="st0" width="100" height="1000"/>
<g>
	<circle class="st0" cx="298" cy="1" r="50"/>
	<g>
		<circle class="st1" cx="248" cy="51" r="50"/>
		<circle class="st1" cx="348" cy="51" r="50"/>
	</g>
	<circle class="st2" cx="298" cy="101" r="50"/>
	<g>
		<circle class="st3" cx="248" cy="151" r="50"/>
		<circle class="st3" cx="348" cy="151" r="50"/>
	</g>
	<circle class="st4" cx="298" cy="201" r="50"/>
	<g>
		<circle class="st5" cx="248" cy="251" r="50"/>
		<circle class="st5" cx="348" cy="251" r="50"/>
	</g>
	<circle class="st6" cx="298" cy="301" r="50"/>
	<g>
		<circle class="st7" cx="248" cy="351" r="50"/>
		<circle class="st7" cx="348" cy="351" r="50"/>
	</g>
	<circle class="st8" cx="298" cy="401" r="50"/>
	<g>
		<circle class="st9" cx="248" cy="451" r="50"/>
		<circle class="st9" cx="348" cy="451" r="50"/>
	</g>
	<circle class="st10" cx="298" cy="501" r="50"/>
	<g>
		<circle class="st11" cx="248" cy="551" r="50"/>
		<circle class="st11" cx="348" cy="551" r="50"/>
	</g>
	<circle class="st12" cx="298" cy="601" r="50"/>
	<g>
		<circle class="st13" cx="248" cy="651" r="50"/>
		<circle class="st13" cx="348" cy="651" r="50"/>
	</g>
	<circle class="st14" cx="298" cy="701" r="50"/>
	<g>
		<circle class="st15" cx="248" cy="751" r="50"/>
		<circle class="st15" cx="348" cy="751" r="50"/>
	</g>
	<circle class="st16" cx="298" cy="801" r="50"/>
	<g>
		<circle class="st17" cx="248" cy="851" r="50"/>
		<circle class="st17" cx="348" cy="851" r="50"/>
	</g>
	<circle class="st18" cx="298" cy="901" r="50"/>
	<g>
		<circle class="st19" cx="248" cy="951" r="50"/>
		<circle class="st19" cx="348" cy="951" r="50"/>
	</g>
	<circle class="st20" cx="298" cy="1001" r="50"/>
</g>
<rect x="234.3" y="-1" class="st0" width="100" height="1000"/>
<g>
	<circle class="st0" cx="284.3" cy="-1" r="50"/>
	<g>
		<circle class="st1" cx="234.3" cy="49" r="50"/>
		<circle class="st1" cx="334.3" cy="49" r="50"/>
	</g>
	<circle class="st2" cx="284.3" cy="99" r="50"/>
	<g>
		<circle class="st3" cx="234.3" cy="149" r="50"/>
		<circle class="st3" cx="334.3" cy="149" r="50"/>
	</g>
	<circle class="st4" cx="284.3" cy="199" r="50"/>
	<g>
		<circle class="st5" cx="234.3" cy="249" r="50"/>
		<circle class="st5" cx="334.3" cy="249" r="50"/>
	</g>
	<circle class="st6" cx="284.3" cy="299" r="50"/>
	<g>
		<circle class="st7" cx="234.3" cy="349" r="50"/>
		<circle class="st7" cx="334.3" cy="349" r="50"/>
	</g>
	<circle class="st8" cx="284.3" cy="399" r="50"/>
	<g>
		<circle class="st9" cx="234.3" cy="449" r="50"/>
		<circle class="st9" cx="334.3" cy="449" r="50"/>
	</g>
	<circle class="st10" cx="284.3" cy="499" r="50"/>
	<g>
		<circle class="st11" cx="234.3" cy="549" r="50"/>
		<circle class="st11" cx="334.3" cy="549" r="50"/>
	</g>
	<circle class="st12" cx="284.3" cy="599" r="50"/>
	<g>
		<circle class="st13" cx="234.3" cy="649" r="50"/>
		<circle class="st13" cx="334.3" cy="649" r="50"/>
	</g>
	<circle class="st14" cx="284.3" cy="699" r="50"/>
	<g>
		<circle class="st15" cx="234.3" cy="749" r="50"/>
		<circle class="st15" cx="334.3" cy="749" r="50"/>
	</g>
	<circle class="st16" cx="284.3" cy="799" r="50"/>
	<g>
		<circle class="st17" cx="234.3" cy="849" r="50"/>
		<circle class="st17" cx="334.3" cy="849" r="50"/>
	</g>
	<circle class="st18" cx="284.3" cy="899" r="50"/>
	<g>
		<circle class="st19" cx="234.3" cy="949" r="50"/>
		<circle class="st19" cx="334.3" cy="949" r="50"/>
	</g>
	<circle class="st20" cx="284.3" cy="999" r="50"/>
</g>
<rect x="298" y="-1" class="st0" width="100" height="1000"/>
<g>
	<circle class="st0" cx="348" cy="-1" r="50"/>
	<g>
		<circle class="st1" cx="298" cy="49" r="50"/>
		<circle class="st1" cx="398" cy="49" r="50"/>
	</g>
	<circle class="st2" cx="348" cy="99" r="50"/>
	<g>
		<circle class="st3" cx="298" cy="149" r="50"/>
		<circle class="st3" cx="398" cy="149" r="50"/>
	</g>
	<circle class="st4" cx="348" cy="199" r="50"/>
	<g>
		<circle class="st5" cx="298" cy="249" r="50"/>
		<circle class="st5" cx="398" cy="249" r="50"/>
	</g>
	<circle class="st6" cx="348" cy="299" r="50"/>
	<g>
		<circle class="st7" cx="298" cy="349" r="50"/>
		<circle class="st7" cx="398" cy="349" r="50"/>
	</g>
	<circle class="st8" cx="348" cy="399" r="50"/>
	<g>
		<circle class="st9" cx="298" cy="449" r="50"/>
		<circle class="st9" cx="398" cy="449" r="50"/>
	</g>
	<circle class="st10" cx="348" cy="499" r="50"/>
	<g>
		<circle class="st11" cx="298" cy="549" r="50"/>
		<circle class="st11" cx="398" cy="549" r="50"/>
	</g>
	<circle class="st12" cx="348" cy="599" r="50"/>
	<g>
		<circle class="st13" cx="298" cy="649" r="50"/>
		<circle class="st13" cx="398" cy="649" r="50"/>
	</g>
	<circle class="st14" cx="348" cy="699" r="50"/>
	<g>
		<circle class="st15" cx="298" cy="749" r="50"/>
		<circle class="st15" cx="398" cy="749" r="50"/>
	</g>
	<circle class="st16" cx="348" cy="799" r="50"/>
	<g>
		<circle class="st17" cx="298" cy="849" r="50"/>
		<circle class="st17" cx="398" cy="849" r="50"/>
	</g>
	<circle class="st18" cx="348" cy="899" r="50"/>
	<g>
		<circle class="st19" cx="298" cy="949" r="50"/>
		<circle class="st19" cx="398" cy="949" r="50"/>
	</g>
	<circle class="st20" cx="348" cy="999" r="50"/>
</g>
<rect x="298" y="-1" class="st0" width="100" height="1000"/>
<g>
	<circle class="st0" cx="348" cy="-1" r="50"/>
	<g>
		<circle class="st1" cx="298" cy="49" r="50"/>
		<circle class="st1" cx="398" cy="49" r="50"/>
	</g>
	<circle class="st2" cx="348" cy="99" r="50"/>
	<g>
		<circle class="st3" cx="298" cy="149" r="50"/>
		<circle class="st3" cx="398" cy="149" r="50"/>
	</g>
	<circle class="st4" cx="348" cy="199" r="50"/>
	<g>
		<circle class="st5" cx="298" cy="249" r="50"/>
		<circle class="st5" cx="398" cy="249" r="50"/>
	</g>
	<circle class="st6" cx="348" cy="299" r="50"/>
	<g>
		<circle class="st7" cx="298" cy="349" r="50"/>
		<circle class="st7" cx="398" cy="349" r="50"/>
	</g>
	<circle class="st8" cx="348" cy="399" r="50"/>
	<g>
		<circle class="st9" cx="298" cy="449" r="50"/>
		<circle class="st9" cx="398" cy="449" r="50"/>
	</g>
	<circle class="st10" cx="348" cy="499" r="50"/>
	<g>
		<circle class="st11" cx="298" cy="549" r="50"/>
		<circle class="st11" cx="398" cy="549" r="50"/>
	</g>
	<circle class="st12" cx="348" cy="599" r="50"/>
	<g>
		<circle class="st13" cx="298" cy="649" r="50"/>
		<circle class="st13" cx="398" cy="649" r="50"/>
	</g>
	<circle class="st14" cx="348" cy="699" r="50"/>
	<g>
		<circle class="st15" cx="298" cy="749" r="50"/>
		<circle class="st15" cx="398" cy="749" r="50"/>
	</g>
	<circle class="st16" cx="348" cy="799" r="50"/>
	<g>
		<circle class="st17" cx="298" cy="849" r="50"/>
		<circle class="st17" cx="398" cy="849" r="50"/>
	</g>
	<circle class="st18" cx="348" cy="899" r="50"/>
	<g>
		<circle class="st19" cx="298" cy="949" r="50"/>
		<circle class="st19" cx="398" cy="949" r="50"/>
	</g>
	<circle class="st20" cx="348" cy="999" r="50"/>
</g>
<rect x="361.7" y="-1" class="st0" width="100" height="1000"/>
<g>
	<circle class="st0" cx="411.7" cy="-1" r="50"/>
	<g>
		<circle class="st1" cx="361.7" cy="49" r="50"/>
		<circle class="st1" cx="461.7" cy="49" r="50"/>
	</g>
	<circle class="st2" cx="411.7" cy="99" r="50"/>
	<g>
		<circle class="st3" cx="361.7" cy="149" r="50"/>
		<circle class="st3" cx="461.7" cy="149" r="50"/>
	</g>
	<circle class="st4" cx="411.7" cy="199" r="50"/>
	<g>
		<circle class="st5" cx="361.7" cy="249" r="50"/>
		<circle class="st5" cx="461.7" cy="249" r="50"/>
	</g>
	<circle class="st6" cx="411.7" cy="299" r="50"/>
	<g>
		<circle class="st7" cx="361.7" cy="349" r="50"/>
		<circle class="st7" cx="461.7" cy="349" r="50"/>
	</g>
	<circle class="st8" cx="411.7" cy="399" r="50"/>
	<g>
		<circle class="st9" cx="361.7" cy="449" r="50"/>
		<circle class="st9" cx="461.7" cy="449" r="50"/>
	</g>
	<circle class="st10" cx="411.7" cy="499" r="50"/>
	<g>
		<circle class="st11" cx="361.7" cy="549" r="50"/>
		<circle class="st11" cx="461.7" cy="549" r="50"/>
	</g>
	<circle class="st12" cx="411.7" cy="599" r="50"/>
	<g>
		<circle class="st13" cx="361.7" cy="649" r="50"/>
		<circle class="st13" cx="461.7" cy="649" r="50"/>
	</g>
	<circle class="st14" cx="411.7" cy="699" r="50"/>
	<g>
		<circle class="st15" cx="361.7" cy="749" r="50"/>
		<circle class="st15" cx="461.7" cy="749" r="50"/>
	</g>
	<circle class="st16" cx="411.7" cy="799" r="50"/>
	<g>
		<circle class="st17" cx="361.7" cy="849" r="50"/>
		<circle class="st17" cx="461.7" cy="849" r="50"/>
	</g>
	<circle class="st18" cx="411.7" cy="899" r="50"/>
	<g>
		<circle class="st19" cx="361.7" cy="949" r="50"/>
		<circle class="st19" cx="461.7" cy="949" r="50"/>
	</g>
	<circle class="st20" cx="411.7" cy="999" r="50"/>
</g>
</svg>
