<svg xmlns="http://www.w3.org/2000/svg" viewBox="0 0 891.4 1113.84"><defs><style>.cls-1{fill:#b4003a}.cls-2{fill:#b80a3e}.cls-3{fill:#bc1342}.cls-4{fill:#c01a46}.cls-5{fill:#c4204a}.cls-6{fill:#c7264f}.cls-7{fill:#cb2b53}.cls-8{fill:#cf2f57}.cls-9{fill:#d3345c}.cls-10{fill:#d73960}.cls-11{fill:#da3d64}.cls-12{fill:#de4169}.cls-13{fill:#e2456d}.cls-14{fill:#e54a71}.cls-15{fill:#e94e76}.cls-16{fill:#ed527a}.cls-17{fill:#f1567f}.cls-18{fill:#f45a83}.cls-19{fill:#f85e88}.cls-20{fill:#fb628c}.cls-21{fill:#ff6691}</style></defs><title>Asset 1</title><g id="Layer_2" data-name="Layer 2"><g id="Layer_1-2" data-name="Layer 1"><g id="Group_674" data-name="Group 674"><rect id="Rectangle_258" width="100" height="1000" x="50" y="56.92" class="cls-1" data-name="Rectangle 258"/><g id="Group_596" data-name="Group 596"><circle id="Ellipse_423" cx="100" cy="56.92" r="50" class="cls-1" data-name="Ellipse 423"/><g id="Group_586" data-name="Group 586"><circle id="Ellipse_424" cx="50" cy="106.92" r="50" class="cls-2" data-name="Ellipse 424"/><circle id="Ellipse_425" cx="150" cy="106.92" r="50" class="cls-2" data-name="Ellipse 425"/></g><circle id="Ellipse_426" cx="100" cy="156.92" r="50" class="cls-3" data-name="Ellipse 426"/><g id="Group_587" data-name="Group 587"><circle id="Ellipse_427" cx="50" cy="206.92" r="50" class="cls-4" data-name="Ellipse 427"/><circle id="Ellipse_428" cx="150" cy="206.92" r="50" class="cls-4" data-name="Ellipse 428"/></g><circle id="Ellipse_429" cx="100" cy="256.92" r="50" class="cls-5" data-name="Ellipse 429"/><g id="Group_588" data-name="Group 588"><circle id="Ellipse_430" cx="50" cy="306.92" r="50" class="cls-6" data-name="Ellipse 430"/><circle id="Ellipse_431" cx="150" cy="306.92" r="50" class="cls-6" data-name="Ellipse 431"/></g><circle id="Ellipse_432" cx="100" cy="356.92" r="50" class="cls-7" data-name="Ellipse 432"/><g id="Group_589" data-name="Group 589"><circle id="Ellipse_433" cx="50" cy="406.92" r="50" class="cls-8" data-name="Ellipse 433"/><circle id="Ellipse_434" cx="150" cy="406.92" r="50" class="cls-8" data-name="Ellipse 434"/></g><circle id="Ellipse_435" cx="100" cy="456.92" r="50" class="cls-9" data-name="Ellipse 435"/><g id="Group_590" data-name="Group 590"><circle id="Ellipse_436" cx="50" cy="506.92" r="50" class="cls-10" data-name="Ellipse 436"/><circle id="Ellipse_437" cx="150" cy="506.92" r="50" class="cls-10" data-name="Ellipse 437"/></g><circle id="Ellipse_438" cx="100" cy="556.92" r="50" class="cls-11" data-name="Ellipse 438"/><g id="Group_591" data-name="Group 591"><circle id="Ellipse_439" cx="50" cy="606.92" r="50" class="cls-12" data-name="Ellipse 439"/><circle id="Ellipse_440" cx="150" cy="606.92" r="50" class="cls-12" data-name="Ellipse 440"/></g><circle id="Ellipse_441" cx="100" cy="656.92" r="50" class="cls-13" data-name="Ellipse 441"/><g id="Group_592" data-name="Group 592"><circle id="Ellipse_442" cx="50" cy="706.92" r="50" class="cls-14" data-name="Ellipse 442"/><circle id="Ellipse_443" cx="150" cy="706.92" r="50" class="cls-14" data-name="Ellipse 443"/></g><circle id="Ellipse_444" cx="100" cy="756.92" r="50" class="cls-15" data-name="Ellipse 444"/><g id="Group_593" data-name="Group 593"><circle id="Ellipse_445" cx="50" cy="806.92" r="50" class="cls-16" data-name="Ellipse 445"/><circle id="Ellipse_446" cx="150" cy="806.92" r="50" class="cls-16" data-name="Ellipse 446"/></g><circle id="Ellipse_447" cx="100" cy="856.92" r="50" class="cls-17" data-name="Ellipse 447"/><g id="Group_594" data-name="Group 594"><circle id="Ellipse_448" cx="50" cy="906.92" r="50" class="cls-18" data-name="Ellipse 448"/><circle id="Ellipse_449" cx="150" cy="906.92" r="50" class="cls-18" data-name="Ellipse 449"/></g><circle id="Ellipse_450" cx="100" cy="956.92" r="50" class="cls-19" data-name="Ellipse 450"/><g id="Group_595" data-name="Group 595"><circle id="Ellipse_451" cx="50" cy="1006.92" r="50" class="cls-20" data-name="Ellipse 451"/><circle id="Ellipse_452" cx="150" cy="1006.92" r="50" class="cls-20" data-name="Ellipse 452"/></g><circle id="Ellipse_453" cx="100" cy="1056.92" r="50" class="cls-21" data-name="Ellipse 453"/></g><rect id="Rectangle_259" width="100" height="1000" x="171" y="56.92" class="cls-1" data-name="Rectangle 259"/><g id="Group_607" data-name="Group 607"><circle id="Ellipse_454" cx="208.9" cy="52.32" r="50" class="cls-1" data-name="Ellipse 454"/><g id="Group_597" data-name="Group 597"><circle id="Ellipse_455" cx="158.9" cy="102.32" r="50" class="cls-2" data-name="Ellipse 455"/><circle id="Ellipse_456" cx="258.9" cy="102.32" r="50" class="cls-2" data-name="Ellipse 456"/></g><circle id="Ellipse_457" cx="208.9" cy="152.32" r="50" class="cls-3" data-name="Ellipse 457"/><g id="Group_598" data-name="Group 598"><circle id="Ellipse_458" cx="158.9" cy="202.32" r="50" class="cls-4" data-name="Ellipse 458"/><circle id="Ellipse_459" cx="258.9" cy="202.32" r="50" class="cls-4" data-name="Ellipse 459"/></g><circle id="Ellipse_460" cx="208.9" cy="252.32" r="50" class="cls-5" data-name="Ellipse 460"/><g id="Group_599" data-name="Group 599"><circle id="Ellipse_461" cx="158.9" cy="302.32" r="50" class="cls-6" data-name="Ellipse 461"/><circle id="Ellipse_462" cx="258.9" cy="302.32" r="50" class="cls-6" data-name="Ellipse 462"/></g><circle id="Ellipse_463" cx="208.9" cy="352.32" r="50" class="cls-7" data-name="Ellipse 463"/><g id="Group_600" data-name="Group 600"><circle id="Ellipse_464" cx="158.9" cy="402.32" r="50" class="cls-8" data-name="Ellipse 464"/><circle id="Ellipse_465" cx="258.9" cy="402.32" r="50" class="cls-8" data-name="Ellipse 465"/></g><circle id="Ellipse_466" cx="208.9" cy="452.32" r="50" class="cls-9" data-name="Ellipse 466"/><g id="Group_601" data-name="Group 601"><circle id="Ellipse_467" cx="158.9" cy="502.32" r="50" class="cls-10" data-name="Ellipse 467"/><circle id="Ellipse_468" cx="258.9" cy="502.32" r="50" class="cls-10" data-name="Ellipse 468"/></g><circle id="Ellipse_469" cx="208.9" cy="552.32" r="50" class="cls-11" data-name="Ellipse 469"/><g id="Group_602" data-name="Group 602"><circle id="Ellipse_470" cx="158.9" cy="602.32" r="50" class="cls-12" data-name="Ellipse 470"/><circle id="Ellipse_471" cx="258.9" cy="602.32" r="50" class="cls-12" data-name="Ellipse 471"/></g><circle id="Ellipse_472" cx="208.9" cy="652.32" r="50" class="cls-13" data-name="Ellipse 472"/><g id="Group_603" data-name="Group 603"><circle id="Ellipse_473" cx="158.9" cy="702.32" r="50" class="cls-14" data-name="Ellipse 473"/><circle id="Ellipse_474" cx="258.9" cy="702.32" r="50" class="cls-14" data-name="Ellipse 474"/></g><circle id="Ellipse_475" cx="208.9" cy="752.32" r="50" class="cls-15" data-name="Ellipse 475"/><g id="Group_604" data-name="Group 604"><circle id="Ellipse_476" cx="158.9" cy="802.32" r="50" class="cls-16" data-name="Ellipse 476"/><circle id="Ellipse_477" cx="258.9" cy="802.32" r="50" class="cls-16" data-name="Ellipse 477"/></g><circle id="Ellipse_478" cx="208.9" cy="852.32" r="50" class="cls-17" data-name="Ellipse 478"/><g id="Group_605" data-name="Group 605"><circle id="Ellipse_479" cx="158.9" cy="902.32" r="50" class="cls-18" data-name="Ellipse 479"/><circle id="Ellipse_480" cx="258.9" cy="902.32" r="50" class="cls-18" data-name="Ellipse 480"/></g><circle id="Ellipse_481" cx="208.9" cy="952.32" r="50" class="cls-19" data-name="Ellipse 481"/><g id="Group_606" data-name="Group 606"><circle id="Ellipse_482" cx="158.9" cy="1002.32" r="50" class="cls-20" data-name="Ellipse 482"/><circle id="Ellipse_483" cx="258.9" cy="1002.32" r="50" class="cls-20" data-name="Ellipse 483"/></g><circle id="Ellipse_484" cx="208.9" cy="1052.32" r="50" class="cls-21" data-name="Ellipse 484"/></g><rect id="Rectangle_260" width="100" height="1000" x="281.5" y="56.92" class="cls-1" data-name="Rectangle 260"/><g id="Group_618" data-name="Group 618"><circle id="Ellipse_485" cx="315.3" cy="52.32" r="50" class="cls-1" data-name="Ellipse 485"/><g id="Group_608" data-name="Group 608"><circle id="Ellipse_486" cx="265.3" cy="102.32" r="50" class="cls-2" data-name="Ellipse 486"/><circle id="Ellipse_487" cx="365.3" cy="102.32" r="50" class="cls-2" data-name="Ellipse 487"/></g><circle id="Ellipse_488" cx="315.3" cy="152.32" r="50" class="cls-3" data-name="Ellipse 488"/><g id="Group_609" data-name="Group 609"><circle id="Ellipse_489" cx="265.3" cy="202.32" r="50" class="cls-4" data-name="Ellipse 489"/><circle id="Ellipse_490" cx="365.3" cy="202.32" r="50" class="cls-4" data-name="Ellipse 490"/></g><circle id="Ellipse_491" cx="315.3" cy="252.32" r="50" class="cls-5" data-name="Ellipse 491"/><g id="Group_610" data-name="Group 610"><circle id="Ellipse_492" cx="265.3" cy="302.32" r="50" class="cls-6" data-name="Ellipse 492"/><circle id="Ellipse_493" cx="365.3" cy="302.32" r="50" class="cls-6" data-name="Ellipse 493"/></g><circle id="Ellipse_494" cx="315.3" cy="352.32" r="50" class="cls-7" data-name="Ellipse 494"/><g id="Group_611" data-name="Group 611"><circle id="Ellipse_495" cx="265.3" cy="402.32" r="50" class="cls-8" data-name="Ellipse 495"/><circle id="Ellipse_496" cx="365.3" cy="402.32" r="50" class="cls-8" data-name="Ellipse 496"/></g><circle id="Ellipse_497" cx="315.3" cy="452.32" r="50" class="cls-9" data-name="Ellipse 497"/><g id="Group_612" data-name="Group 612"><circle id="Ellipse_498" cx="265.3" cy="502.32" r="50" class="cls-10" data-name="Ellipse 498"/><circle id="Ellipse_499" cx="365.3" cy="502.32" r="50" class="cls-10" data-name="Ellipse 499"/></g><circle id="Ellipse_500" cx="315.3" cy="552.32" r="50" class="cls-11" data-name="Ellipse 500"/><g id="Group_613" data-name="Group 613"><circle id="Ellipse_501" cx="265.3" cy="602.32" r="50" class="cls-12" data-name="Ellipse 501"/><circle id="Ellipse_502" cx="365.3" cy="602.32" r="50" class="cls-12" data-name="Ellipse 502"/></g><circle id="Ellipse_503" cx="315.3" cy="652.32" r="50" class="cls-13" data-name="Ellipse 503"/><g id="Group_614" data-name="Group 614"><circle id="Ellipse_504" cx="265.3" cy="702.32" r="50" class="cls-14" data-name="Ellipse 504"/><circle id="Ellipse_505" cx="365.3" cy="702.32" r="50" class="cls-14" data-name="Ellipse 505"/></g><circle id="Ellipse_506" cx="315.3" cy="752.32" r="50" class="cls-15" data-name="Ellipse 506"/><g id="Group_615" data-name="Group 615"><circle id="Ellipse_507" cx="265.3" cy="802.32" r="50" class="cls-16" data-name="Ellipse 507"/><circle id="Ellipse_508" cx="365.3" cy="802.32" r="50" class="cls-16" data-name="Ellipse 508"/></g><circle id="Ellipse_509" cx="315.3" cy="852.32" r="50" class="cls-17" data-name="Ellipse 509"/><g id="Group_616" data-name="Group 616"><circle id="Ellipse_510" cx="265.3" cy="902.32" r="50" class="cls-18" data-name="Ellipse 510"/><circle id="Ellipse_511" cx="365.3" cy="902.32" r="50" class="cls-18" data-name="Ellipse 511"/></g><circle id="Ellipse_512" cx="315.3" cy="952.32" r="50" class="cls-19" data-name="Ellipse 512"/><g id="Group_617" data-name="Group 617"><circle id="Ellipse_513" cx="265.3" cy="1002.32" r="50" class="cls-20" data-name="Ellipse 513"/><circle id="Ellipse_514" cx="365.3" cy="1002.32" r="50" class="cls-20" data-name="Ellipse 514"/></g><circle id="Ellipse_515" cx="315.3" cy="1052.32" r="50" class="cls-21" data-name="Ellipse 515"/></g><g id="Group_629" data-name="Group 629"><circle id="Ellipse_516" cx="436.4" cy="63.84" r="50" class="cls-1" data-name="Ellipse 516"/><g id="Group_619" data-name="Group 619"><circle id="Ellipse_517" cx="386.4" cy="113.84" r="50" class="cls-2" data-name="Ellipse 517"/><circle id="Ellipse_518" cx="486.4" cy="113.84" r="50" class="cls-2" data-name="Ellipse 518"/></g><circle id="Ellipse_519" cx="436.4" cy="163.84" r="50" class="cls-3" data-name="Ellipse 519"/><g id="Group_620" data-name="Group 620"><circle id="Ellipse_520" cx="386.4" cy="213.84" r="50" class="cls-4" data-name="Ellipse 520"/><circle id="Ellipse_521" cx="486.4" cy="213.84" r="50" class="cls-4" data-name="Ellipse 521"/></g><circle id="Ellipse_522" cx="436.4" cy="263.84" r="50" class="cls-5" data-name="Ellipse 522"/><g id="Group_621" data-name="Group 621"><circle id="Ellipse_523" cx="386.4" cy="313.84" r="50" class="cls-6" data-name="Ellipse 523"/><circle id="Ellipse_524" cx="486.4" cy="313.84" r="50" class="cls-6" data-name="Ellipse 524"/></g><circle id="Ellipse_525" cx="436.4" cy="363.84" r="50" class="cls-7" data-name="Ellipse 525"/><g id="Group_622" data-name="Group 622"><circle id="Ellipse_526" cx="386.4" cy="413.84" r="50" class="cls-8" data-name="Ellipse 526"/><circle id="Ellipse_527" cx="486.4" cy="413.84" r="50" class="cls-8" data-name="Ellipse 527"/></g><circle id="Ellipse_528" cx="436.4" cy="463.84" r="50" class="cls-9" data-name="Ellipse 528"/><g id="Group_623" data-name="Group 623"><circle id="Ellipse_529" cx="386.4" cy="513.84" r="50" class="cls-10" data-name="Ellipse 529"/><circle id="Ellipse_530" cx="486.4" cy="513.84" r="50" class="cls-10" data-name="Ellipse 530"/></g><circle id="Ellipse_531" cx="436.4" cy="563.84" r="50" class="cls-11" data-name="Ellipse 531"/><g id="Group_624" data-name="Group 624"><circle id="Ellipse_532" cx="386.4" cy="613.84" r="50" class="cls-12" data-name="Ellipse 532"/><circle id="Ellipse_533" cx="486.4" cy="613.84" r="50" class="cls-12" data-name="Ellipse 533"/></g><circle id="Ellipse_534" cx="436.4" cy="663.84" r="50" class="cls-13" data-name="Ellipse 534"/><g id="Group_625" data-name="Group 625"><circle id="Ellipse_535" cx="386.4" cy="713.84" r="50" class="cls-14" data-name="Ellipse 535"/><circle id="Ellipse_536" cx="486.4" cy="713.84" r="50" class="cls-14" data-name="Ellipse 536"/></g><circle id="Ellipse_537" cx="436.4" cy="763.84" r="50" class="cls-15" data-name="Ellipse 537"/><g id="Group_626" data-name="Group 626"><circle id="Ellipse_538" cx="386.4" cy="813.84" r="50" class="cls-16" data-name="Ellipse 538"/><circle id="Ellipse_539" cx="486.4" cy="813.84" r="50" class="cls-16" data-name="Ellipse 539"/></g><circle id="Ellipse_540" cx="436.4" cy="863.84" r="50" class="cls-17" data-name="Ellipse 540"/><g id="Group_627" data-name="Group 627"><circle id="Ellipse_541" cx="386.4" cy="913.84" r="50" class="cls-18" data-name="Ellipse 541"/><circle id="Ellipse_542" cx="486.4" cy="913.84" r="50" class="cls-18" data-name="Ellipse 542"/></g><circle id="Ellipse_543" cx="436.4" cy="963.84" r="50" class="cls-19" data-name="Ellipse 543"/><g id="Group_628" data-name="Group 628"><circle id="Ellipse_544" cx="386.4" cy="1013.84" r="50" class="cls-20" data-name="Ellipse 544"/><circle id="Ellipse_545" cx="486.4" cy="1013.84" r="50" class="cls-20" data-name="Ellipse 545"/></g><circle id="Ellipse_546" cx="436.4" cy="1063.84" r="50" class="cls-21" data-name="Ellipse 546"/></g><rect id="Rectangle_261" width="100" height="1000" x="405" y="47.68" class="cls-1" data-name="Rectangle 261"/><g id="Group_640" data-name="Group 640"><circle id="Ellipse_547" cx="456.9" cy="54.6" r="50" class="cls-1" data-name="Ellipse 547"/><g id="Group_630" data-name="Group 630"><circle id="Ellipse_548" cx="406.9" cy="104.6" r="50" class="cls-2" data-name="Ellipse 548"/><circle id="Ellipse_549" cx="506.9" cy="104.6" r="50" class="cls-2" data-name="Ellipse 549"/></g><circle id="Ellipse_550" cx="456.9" cy="154.6" r="50" class="cls-3" data-name="Ellipse 550"/><g id="Group_631" data-name="Group 631"><circle id="Ellipse_551" cx="406.9" cy="204.6" r="50" class="cls-4" data-name="Ellipse 551"/><circle id="Ellipse_552" cx="506.9" cy="204.6" r="50" class="cls-4" data-name="Ellipse 552"/></g><circle id="Ellipse_553" cx="456.9" cy="254.6" r="50" class="cls-5" data-name="Ellipse 553"/><g id="Group_632" data-name="Group 632"><circle id="Ellipse_554" cx="406.9" cy="304.6" r="50" class="cls-6" data-name="Ellipse 554"/><circle id="Ellipse_555" cx="506.9" cy="304.6" r="50" class="cls-6" data-name="Ellipse 555"/></g><circle id="Ellipse_556" cx="456.9" cy="354.6" r="50" class="cls-7" data-name="Ellipse 556"/><g id="Group_633" data-name="Group 633"><circle id="Ellipse_557" cx="406.9" cy="404.6" r="50" class="cls-8" data-name="Ellipse 557"/><circle id="Ellipse_558" cx="506.9" cy="404.6" r="50" class="cls-8" data-name="Ellipse 558"/></g><circle id="Ellipse_559" cx="456.9" cy="454.6" r="50" class="cls-9" data-name="Ellipse 559"/><g id="Group_634" data-name="Group 634"><circle id="Ellipse_560" cx="406.9" cy="504.6" r="50" class="cls-10" data-name="Ellipse 560"/><circle id="Ellipse_561" cx="506.9" cy="504.6" r="50" class="cls-10" data-name="Ellipse 561"/></g><circle id="Ellipse_562" cx="456.9" cy="554.6" r="50" class="cls-11" data-name="Ellipse 562"/><g id="Group_635" data-name="Group 635"><circle id="Ellipse_563" cx="406.9" cy="604.6" r="50" class="cls-12" data-name="Ellipse 563"/><circle id="Ellipse_564" cx="506.9" cy="604.6" r="50" class="cls-12" data-name="Ellipse 564"/></g><circle id="Ellipse_565" cx="456.9" cy="654.6" r="50" class="cls-13" data-name="Ellipse 565"/><g id="Group_636" data-name="Group 636"><circle id="Ellipse_566" cx="406.9" cy="704.6" r="50" class="cls-14" data-name="Ellipse 566"/><circle id="Ellipse_567" cx="506.9" cy="704.6" r="50" class="cls-14" data-name="Ellipse 567"/></g><circle id="Ellipse_568" cx="456.9" cy="754.6" r="50" class="cls-15" data-name="Ellipse 568"/><g id="Group_637" data-name="Group 637"><circle id="Ellipse_569" cx="406.9" cy="804.6" r="50" class="cls-16" data-name="Ellipse 569"/><circle id="Ellipse_570" cx="506.9" cy="804.6" r="50" class="cls-16" data-name="Ellipse 570"/></g><circle id="Ellipse_571" cx="456.9" cy="854.6" r="50" class="cls-17" data-name="Ellipse 571"/><g id="Group_638" data-name="Group 638"><circle id="Ellipse_572" cx="406.9" cy="904.6" r="50" class="cls-18" data-name="Ellipse 572"/><circle id="Ellipse_573" cx="506.9" cy="904.6" r="50" class="cls-18" data-name="Ellipse 573"/></g><circle id="Ellipse_574" cx="456.9" cy="954.6" r="50" class="cls-19" data-name="Ellipse 574"/><g id="Group_639" data-name="Group 639"><circle id="Ellipse_575" cx="406.9" cy="1004.6" r="50" class="cls-20" data-name="Ellipse 575"/><circle id="Ellipse_576" cx="506.9" cy="1004.6" r="50" class="cls-20" data-name="Ellipse 576"/></g><circle id="Ellipse_577" cx="456.9" cy="1054.6" r="50" class="cls-21" data-name="Ellipse 577"/></g><rect id="Rectangle_262" width="100" height="1000" x="527.9" y="54.6" class="cls-1" data-name="Rectangle 262"/><g id="Group_651" data-name="Group 651"><circle id="Ellipse_578" cx="565.8" cy="50" r="50" class="cls-1" data-name="Ellipse 578"/><g id="Group_641" data-name="Group 641"><circle id="Ellipse_579" cx="515.8" cy="100" r="50" class="cls-2" data-name="Ellipse 579"/><circle id="Ellipse_580" cx="615.8" cy="100" r="50" class="cls-2" data-name="Ellipse 580"/></g><circle id="Ellipse_581" cx="565.8" cy="150" r="50" class="cls-3" data-name="Ellipse 581"/><g id="Group_642" data-name="Group 642"><circle id="Ellipse_582" cx="515.8" cy="200" r="50" class="cls-4" data-name="Ellipse 582"/><circle id="Ellipse_583" cx="615.8" cy="200" r="50" class="cls-4" data-name="Ellipse 583"/></g><circle id="Ellipse_584" cx="565.8" cy="250" r="50" class="cls-5" data-name="Ellipse 584"/><g id="Group_643" data-name="Group 643"><circle id="Ellipse_585" cx="515.8" cy="300" r="50" class="cls-6" data-name="Ellipse 585"/><circle id="Ellipse_586" cx="615.8" cy="300" r="50" class="cls-6" data-name="Ellipse 586"/></g><circle id="Ellipse_587" cx="565.8" cy="350" r="50" class="cls-7" data-name="Ellipse 587"/><g id="Group_644" data-name="Group 644"><circle id="Ellipse_588" cx="515.8" cy="400" r="50" class="cls-8" data-name="Ellipse 588"/><circle id="Ellipse_589" cx="615.8" cy="400" r="50" class="cls-8" data-name="Ellipse 589"/></g><circle id="Ellipse_590" cx="565.8" cy="450" r="50" class="cls-9" data-name="Ellipse 590"/><g id="Group_645" data-name="Group 645"><circle id="Ellipse_591" cx="515.8" cy="500" r="50" class="cls-10" data-name="Ellipse 591"/><circle id="Ellipse_592" cx="615.8" cy="500" r="50" class="cls-10" data-name="Ellipse 592"/></g><circle id="Ellipse_593" cx="565.8" cy="550" r="50" class="cls-11" data-name="Ellipse 593"/><g id="Group_646" data-name="Group 646"><circle id="Ellipse_594" cx="515.8" cy="600" r="50" class="cls-12" data-name="Ellipse 594"/><circle id="Ellipse_595" cx="615.8" cy="600" r="50" class="cls-12" data-name="Ellipse 595"/></g><circle id="Ellipse_596" cx="565.8" cy="650" r="50" class="cls-13" data-name="Ellipse 596"/><g id="Group_647" data-name="Group 647"><circle id="Ellipse_597" cx="515.8" cy="700" r="50" class="cls-14" data-name="Ellipse 597"/><circle id="Ellipse_598" cx="615.8" cy="700" r="50" class="cls-14" data-name="Ellipse 598"/></g><circle id="Ellipse_599" cx="565.8" cy="750" r="50" class="cls-15" data-name="Ellipse 599"/><g id="Group_648" data-name="Group 648"><circle id="Ellipse_600" cx="515.8" cy="800" r="50" class="cls-16" data-name="Ellipse 600"/><circle id="Ellipse_601" cx="615.8" cy="800" r="50" class="cls-16" data-name="Ellipse 601"/></g><circle id="Ellipse_602" cx="565.8" cy="850" r="50" class="cls-17" data-name="Ellipse 602"/><g id="Group_649" data-name="Group 649"><circle id="Ellipse_603" cx="515.8" cy="900" r="50" class="cls-18" data-name="Ellipse 603"/><circle id="Ellipse_604" cx="615.8" cy="900" r="50" class="cls-18" data-name="Ellipse 604"/></g><circle id="Ellipse_605" cx="565.8" cy="950" r="50" class="cls-19" data-name="Ellipse 605"/><g id="Group_650" data-name="Group 650"><circle id="Ellipse_606" cx="515.8" cy="1000" r="50" class="cls-20" data-name="Ellipse 606"/><circle id="Ellipse_607" cx="615.8" cy="1000" r="50" class="cls-20" data-name="Ellipse 607"/></g><circle id="Ellipse_608" cx="565.8" cy="1050" r="50" class="cls-21" data-name="Ellipse 608"/></g><rect id="Rectangle_263" width="100" height="1000" x="638.4" y="54.6" class="cls-1" data-name="Rectangle 263"/><g id="Group_662" data-name="Group 662"><circle id="Ellipse_609" cx="672.2" cy="50" r="50" class="cls-1" data-name="Ellipse 609"/><g id="Group_652" data-name="Group 652"><circle id="Ellipse_610" cx="622.2" cy="100" r="50" class="cls-2" data-name="Ellipse 610"/><circle id="Ellipse_611" cx="722.2" cy="100" r="50" class="cls-2" data-name="Ellipse 611"/></g><circle id="Ellipse_612" cx="672.2" cy="150" r="50" class="cls-3" data-name="Ellipse 612"/><g id="Group_653" data-name="Group 653"><circle id="Ellipse_613" cx="622.2" cy="200" r="50" class="cls-4" data-name="Ellipse 613"/><circle id="Ellipse_614" cx="722.2" cy="200" r="50" class="cls-4" data-name="Ellipse 614"/></g><circle id="Ellipse_615" cx="672.2" cy="250" r="50" class="cls-5" data-name="Ellipse 615"/><g id="Group_654" data-name="Group 654"><circle id="Ellipse_616" cx="622.2" cy="300" r="50" class="cls-6" data-name="Ellipse 616"/><circle id="Ellipse_617" cx="722.2" cy="300" r="50" class="cls-6" data-name="Ellipse 617"/></g><circle id="Ellipse_618" cx="672.2" cy="350" r="50" class="cls-7" data-name="Ellipse 618"/><g id="Group_655" data-name="Group 655"><circle id="Ellipse_619" cx="622.2" cy="400" r="50" class="cls-8" data-name="Ellipse 619"/><circle id="Ellipse_620" cx="722.2" cy="400" r="50" class="cls-8" data-name="Ellipse 620"/></g><circle id="Ellipse_621" cx="672.2" cy="450" r="50" class="cls-9" data-name="Ellipse 621"/><g id="Group_656" data-name="Group 656"><circle id="Ellipse_622" cx="622.2" cy="500" r="50" class="cls-10" data-name="Ellipse 622"/><circle id="Ellipse_623" cx="722.2" cy="500" r="50" class="cls-10" data-name="Ellipse 623"/></g><circle id="Ellipse_624" cx="672.2" cy="550" r="50" class="cls-11" data-name="Ellipse 624"/><g id="Group_657" data-name="Group 657"><circle id="Ellipse_625" cx="622.2" cy="600" r="50" class="cls-12" data-name="Ellipse 625"/><circle id="Ellipse_626" cx="722.2" cy="600" r="50" class="cls-12" data-name="Ellipse 626"/></g><circle id="Ellipse_627" cx="672.2" cy="650" r="50" class="cls-13" data-name="Ellipse 627"/><g id="Group_658" data-name="Group 658"><circle id="Ellipse_628" cx="622.2" cy="700" r="50" class="cls-14" data-name="Ellipse 628"/><circle id="Ellipse_629" cx="722.2" cy="700" r="50" class="cls-14" data-name="Ellipse 629"/></g><circle id="Ellipse_630" cx="672.2" cy="750" r="50" class="cls-15" data-name="Ellipse 630"/><g id="Group_659" data-name="Group 659"><circle id="Ellipse_631" cx="622.2" cy="800" r="50" class="cls-16" data-name="Ellipse 631"/><circle id="Ellipse_632" cx="722.2" cy="800" r="50" class="cls-16" data-name="Ellipse 632"/></g><circle id="Ellipse_633" cx="672.2" cy="850" r="50" class="cls-17" data-name="Ellipse 633"/><g id="Group_660" data-name="Group 660"><circle id="Ellipse_634" cx="622.2" cy="900" r="50" class="cls-18" data-name="Ellipse 634"/><circle id="Ellipse_635" cx="722.2" cy="900" r="50" class="cls-18" data-name="Ellipse 635"/></g><circle id="Ellipse_636" cx="672.2" cy="950" r="50" class="cls-19" data-name="Ellipse 636"/><g id="Group_661" data-name="Group 661"><circle id="Ellipse_637" cx="622.2" cy="1000" r="50" class="cls-20" data-name="Ellipse 637"/><circle id="Ellipse_638" cx="722.2" cy="1000" r="50" class="cls-20" data-name="Ellipse 638"/></g><circle id="Ellipse_639" cx="672.2" cy="1050" r="50" class="cls-21" data-name="Ellipse 639"/></g><g id="Group_673" data-name="Group 673"><circle id="Ellipse_640" cx="791.4" cy="54.6" r="50" class="cls-1" data-name="Ellipse 640"/><g id="Group_663" data-name="Group 663"><circle id="Ellipse_641" cx="741.4" cy="104.6" r="50" class="cls-2" data-name="Ellipse 641"/><circle id="Ellipse_642" cx="841.4" cy="104.6" r="50" class="cls-2" data-name="Ellipse 642"/></g><circle id="Ellipse_643" cx="791.4" cy="154.6" r="50" class="cls-3" data-name="Ellipse 643"/><g id="Group_664" data-name="Group 664"><circle id="Ellipse_644" cx="741.4" cy="204.6" r="50" class="cls-4" data-name="Ellipse 644"/><circle id="Ellipse_645" cx="841.4" cy="204.6" r="50" class="cls-4" data-name="Ellipse 645"/></g><circle id="Ellipse_646" cx="791.4" cy="254.6" r="50" class="cls-5" data-name="Ellipse 646"/><g id="Group_665" data-name="Group 665"><circle id="Ellipse_647" cx="741.4" cy="304.6" r="50" class="cls-6" data-name="Ellipse 647"/><circle id="Ellipse_648" cx="841.4" cy="304.6" r="50" class="cls-6" data-name="Ellipse 648"/></g><circle id="Ellipse_649" cx="791.4" cy="354.6" r="50" class="cls-7" data-name="Ellipse 649"/><g id="Group_666" data-name="Group 666"><circle id="Ellipse_650" cx="741.4" cy="404.6" r="50" class="cls-8" data-name="Ellipse 650"/><circle id="Ellipse_651" cx="841.4" cy="404.6" r="50" class="cls-8" data-name="Ellipse 651"/></g><circle id="Ellipse_652" cx="791.4" cy="454.6" r="50" class="cls-9" data-name="Ellipse 652"/><g id="Group_667" data-name="Group 667"><circle id="Ellipse_653" cx="741.4" cy="504.6" r="50" class="cls-10" data-name="Ellipse 653"/><circle id="Ellipse_654" cx="841.4" cy="504.6" r="50" class="cls-10" data-name="Ellipse 654"/></g><circle id="Ellipse_655" cx="791.4" cy="554.6" r="50" class="cls-11" data-name="Ellipse 655"/><g id="Group_668" data-name="Group 668"><circle id="Ellipse_656" cx="741.4" cy="604.6" r="50" class="cls-12" data-name="Ellipse 656"/><circle id="Ellipse_657" cx="841.4" cy="604.6" r="50" class="cls-12" data-name="Ellipse 657"/></g><circle id="Ellipse_658" cx="791.4" cy="654.6" r="50" class="cls-13" data-name="Ellipse 658"/><g id="Group_669" data-name="Group 669"><circle id="Ellipse_659" cx="741.4" cy="704.6" r="50" class="cls-14" data-name="Ellipse 659"/><circle id="Ellipse_660" cx="841.4" cy="704.6" r="50" class="cls-14" data-name="Ellipse 660"/></g><circle id="Ellipse_661" cx="791.4" cy="754.6" r="50" class="cls-15" data-name="Ellipse 661"/><g id="Group_670" data-name="Group 670"><circle id="Ellipse_662" cx="741.4" cy="804.6" r="50" class="cls-16" data-name="Ellipse 662"/><circle id="Ellipse_663" cx="841.4" cy="804.6" r="50" class="cls-16" data-name="Ellipse 663"/></g><circle id="Ellipse_664" cx="791.4" cy="854.6" r="50" class="cls-17" data-name="Ellipse 664"/><g id="Group_671" data-name="Group 671"><circle id="Ellipse_665" cx="741.4" cy="904.6" r="50" class="cls-18" data-name="Ellipse 665"/><circle id="Ellipse_666" cx="841.4" cy="904.6" r="50" class="cls-18" data-name="Ellipse 666"/></g><circle id="Ellipse_667" cx="791.4" cy="954.6" r="50" class="cls-19" data-name="Ellipse 667"/><g id="Group_672" data-name="Group 672"><circle id="Ellipse_668" cx="741.4" cy="1004.6" r="50" class="cls-20" data-name="Ellipse 668"/><circle id="Ellipse_669" cx="841.4" cy="1004.6" r="50" class="cls-20" data-name="Ellipse 669"/></g><circle id="Ellipse_670" cx="791.4" cy="1054.6" r="50" class="cls-21" data-name="Ellipse 670"/></g></g></g></g></svg>