<svg xmlns="http://www.w3.org/2000/svg" xmlns:xlink="http://www.w3.org/1999/xlink" width="333.638" height="309.59" viewBox="0 0 333.638 309.59"><defs><linearGradient id="linear-gradient" x1=".498" x2=".501" y1=".081" y2="1.073" gradientUnits="objectBoundingBox"><stop offset="0" stop-color="#6a7376"/><stop offset=".355" stop-color="#959b9d"/><stop offset=".785" stop-color="#c5c7c8"/><stop offset="1" stop-color="#d8d8d9"/></linearGradient></defs><g id="Group_570" data-name="Group 570" transform="translate(-1537.937 -1339.24)"><path id="Path_251" fill="#b4003a" stroke="#000" stroke-width="3" d="M1869.475,1750.931H1540.161l56.918-140.722,223.608-1.639Z" data-name="Path 251" transform="translate(0 -103.601)"/><path id="Path_252" fill="#00394d" d="M1811.092,1701.62h-7.064V1685.1a18.575,18.575,0,0,1,18.553-18.554,11.5,11.5,0,0,0,11.488-11.488v-9.731h7.064v9.731a18.573,18.573,0,0,1-18.552,18.552,11.5,11.5,0,0,0-11.489,11.489Z" data-name="Path 252" transform="translate(-110.887 -117.768)"/><path id="Path_253" fill="url(#linear-gradient)" stroke="#1a1818" stroke-miterlimit="10" stroke-width="1" d="M1835.1,1652.954c-.387.009-.774.009-1.159.01l-39.6.019c-6.637,0-13.275-.063-19.912.1a9.347,9.347,0,0,1-2.72-.2,6.34,6.34,0,0,1-3.8-3.536,7.222,7.222,0,0,1-.764-3.407,11.611,11.611,0,0,1,1.073-3.79q2.717-6.645,5.195-13.385c1.581-4.3,3.562-8.6,4.82-13a.731.731,0,0,1,.88-.6q17.865-.05,35.73-.242l9.883-.1c2.128-.022,4.782-.612,6.546.877,1.961,1.656,2.945,4.569,3.508,7a.15.15,0,0,0,0,.021q3.269,10.833,6.548,21.663a9.986,9.986,0,0,1,.632,3.83C1841.606,1651.771,1838.146,1652.885,1835.1,1652.954Z" data-name="Path 253" transform="translate(-96.481 -105.961)"/><g id="Group_564" data-name="Group 564" transform="translate(1576.565 1339.74)"><g id="Group_562" data-name="Group 562"><path id="Path_254" fill="#0c0c0d" d="M1854.939,1348.53c.006.129.006.258.006.381l-11.289,134.2-.167,1.955c-.42,1.758-1.743,1.186-4.739,1.186l-219.566,3.663-.874-5.913-18.92-127.719c0-4.057,4-8.322,7.792-8.322l242.236-8.174C1852.805,1340.19,1854.812,1344.719,1854.939,1348.53Z" data-name="Path 254" transform="translate(-1599.39 -1339.759)"/><path id="Path_255" fill="#fff" d="M2035.076,1339.74c3.934,0,4.929,4.782,4.985,8.771-.135-3.811-2.28-8.34-5.9-8.74Z" data-name="Path 255" transform="translate(-1784.512 -1339.74)"/><path id="Path_256" fill="#fff" d="M1854.26,1339.771l-241.32,8.174,240.838-8.205A4.034,4.034,0,0,1,1854.26,1339.771Z" data-name="Path 256" transform="translate(-1604.612 -1339.74)"/><path id="Path_257" fill="#fff" d="M2023.85,1574.935l.178-1.955A8.013,8.013,0,0,1,2023.85,1574.935Z" data-name="Path 257" transform="translate(-1780.539 -1429.625)"/><path id="Path_258" fill="#727b7a" d="M1855.966,1576.16l-1.657,19.92c0,4.057-6.829,4.757-10.292,4.757l-200.637,2.379c-4.05,0-8.23-9.029-8.23-13.085l-1.339-9.121,217.463-3.663C1854.24,1577.346,1855.55,1577.918,1855.966,1576.16Z" data-name="Path 258" transform="translate(-1612.655 -1430.851)"/></g><g id="Group_563" data-name="Group 563"><path id="Path_259" fill="none" stroke="#1a1818" stroke-miterlimit="10" stroke-width="1" d="M1856.144,1572.98l-.165,1.955-1.658,19.92c0,4.057-6.83,4.757-10.293,4.757l-200.649,2.379c-4.05,0-8.231-9.029-8.231-13.085l-1.339-9.121" data-name="Path 259" transform="translate(-1612.655 -1429.625)"/><path id="Path_260" fill="none" stroke="#1a1818" stroke-miterlimit="10" stroke-width="1" d="M1612.94,1347.945l241.229-8.205a4.047,4.047,0,0,1,.482.031c3.38.4,5.382,4.929,5.509,8.74" data-name="Path 260" transform="translate(-1604.612 -1339.74)"/><path id="Path_261" fill="none" stroke="#1a1818" stroke-miterlimit="10" stroke-width="1" d="M1843.489,1485.049c-.42,1.758-1.743,1.186-4.739,1.186l-219.566,3.663-.874-5.913-18.92-127.719c0-4.057,4-8.322,7.792-8.322l242.236-8.174.857-.031c3.68,0,4.612,4.782,4.664,8.771.006.129.006.258.006.381l-11.289,134.2A8.544,8.544,0,0,1,1843.489,1485.049Z" data-name="Path 261" transform="translate(-1599.39 -1339.74)"/></g></g><g id="Group_566" data-name="Group 566" transform="translate(1693.089 1489.338)"><path id="Path_262" fill="#1a1818" d="M1830.855,1587.617v-.009l0-.009,0-.009,0-.008,0-.008,0-.007-.006-.007,0,0-.006-.006h0a.59.59,0,0,0-.57-.074,2.676,2.676,0,0,0-.894.583l-.08.068a18.944,18.944,0,0,0-1.583,1.565c-.487.525-.971,1.071-1.439,1.6l-.307.346c-.5.565-1.021,1.149-1.553,1.693-.056.057-.112.117-.17.177a3.357,3.357,0,0,1-1.067.859l-.014.007q-.161-.152-.338-.295c.418-.479.352-1.38.269-2.517a17.2,17.2,0,0,1-.065-2.053,21.628,21.628,0,0,1,.289-2.683,11.914,11.914,0,0,1,.624-2.335,3.778,3.778,0,0,1,.257-.473c.18-.3.265-.447.224-.553a.125.125,0,0,0-.086-.08c-.1-.025-.234.067-.511.337a4.374,4.374,0,0,0-.569.718,12.343,12.343,0,0,0-1.1,2.252,16.98,16.98,0,0,0-.881,4.634q-.035.363-.071.724c-.01.095-.019.187-.029.278-.025.237-.049.463-.071.709a8.25,8.25,0,0,0-6.5-.108,28.618,28.618,0,0,0-.686-5.142,9.175,9.175,0,0,0-2.43-4.451.077.077,0,0,0-.1,0,.1.1,0,0,0-.023.115,16.578,16.578,0,0,1,1.263,7.831,6,6,0,0,0,.252,2.807,1.231,1.231,0,0,1-1.082-.232,4.728,4.728,0,0,1-.9-.932l-.053-.065c-1.205-1.494-4.264-2.938-5.885-4.2a1.719,1.719,0,0,0-.416-.253.551.551,0,0,0-.356-.045.257.257,0,0,0-.173.251.437.437,0,0,0,.127.273l.026.032,6.616,6.7.069.1c.045.063.091.129.135.2a.81.81,0,0,1,.205.647.51.51,0,0,1-.416.3,4.213,4.213,0,0,1-2.434-.449,12.605,12.605,0,0,0-4.789-.369.095.095,0,0,0-.015.179c1.6.712,4.93,1.4,6.28,2.174a3.215,3.215,0,0,1,1.119.9c.026.038.052.078.076.119a7.257,7.257,0,0,0,4.313,3.308,8.424,8.424,0,0,0,2.261.3,11.61,11.61,0,0,0,2.937-.4,6.925,6.925,0,0,0,2.579-1.163,4.427,4.427,0,0,0,1.562-2.233,11.611,11.611,0,0,0,2.038-1.184,14.968,14.968,0,0,1,2.2-1.277c.29-.132.6-.27.924-.381l.012,0a1.029,1.029,0,0,0,.151-.061c.033-.018.111-.06.106-.144a.149.149,0,0,0-.111-.124,1.7,1.7,0,0,0-.383-.089,2.822,2.822,0,0,0-.769.017,5.106,5.106,0,0,0-1.233.368l-.012.006c-.125.052-.25.106-.376.16a5.812,5.812,0,0,1-1.449.481,1.489,1.489,0,0,1-1.1-.192l-.016-.009c-.041-.146-.089-.292-.143-.435a3.08,3.08,0,0,0,.3-.417c.023-.036.046-.073.069-.108.321-.5.654-1.012.99-1.52.477-.722.922-1.382,1.363-2.019.55-.8,1.041-1.482,1.5-2.1l.181-.243c.269-.363.548-.738.839-1.088.194-.233.374-.433.551-.61.1-.1.2-.191.292-.276l.052-.044a.724.724,0,0,0,.221-.261h0l0-.009v0l0-.01,0-.009v-.018S1830.855,1587.62,1830.855,1587.617Z" data-name="Path 262" transform="translate(-1803.461 -1583.207)"/><g id="Group_565" data-name="Group 565" transform="translate(3.88 0.276)"><path id="Path_263" fill="#fff" stroke="#1a1818" stroke-miterlimit="10" stroke-width=".439" d="M1836.643,1600.689l-.006,0a.036.036,0,0,1,.013,0Z" data-name="Path 263" transform="translate(-1820.126 -1590.179)"/><path id="Path_264" fill="#fff" stroke="#1a1818" stroke-miterlimit="10" stroke-width=".439" d="M1836.476,1600.787l-.007-.006h0l.009.009Z" data-name="Path 264" transform="translate(-1820.061 -1590.214)"/><path id="Path_265" fill="#fff" stroke="#1a1818" stroke-miterlimit="10" stroke-width=".439" d="M1840.563,1605.029a14.241,14.241,0,0,1,2.11-1.25c.279-.129.577-.265.89-.374l.011,0,.026-.009a1.63,1.63,0,0,0-.223-.044,2.488,2.488,0,0,0-.69.017,4.607,4.607,0,0,0-1.135.346l-.011.005c-.118.05-.235.1-.353.154a5.794,5.794,0,0,1-1.412.477,1.728,1.728,0,0,1-.815-.049,8.124,8.124,0,0,1,.042.955,3.767,3.767,0,0,1-.052.773A12.886,12.886,0,0,0,1840.563,1605.029Z" data-name="Path 265" transform="translate(-1821.019 -1591.197)"/><path id="Path_266" fill="#fff" stroke="#1a1818" stroke-miterlimit="10" stroke-width=".439" d="M1834.707,1593.175h0a1.578,1.578,0,0,1,.156.128l0,0a5.9,5.9,0,0,0,.049-1.994,17.061,17.061,0,0,1-.062-2.013,21.522,21.522,0,0,1,.277-2.624,11.887,11.887,0,0,1,.6-2.3,3.764,3.764,0,0,1,.257-.486c.058-.1.13-.221.169-.3a2.167,2.167,0,0,0-.287.254,3.839,3.839,0,0,0-.516.667,11.92,11.92,0,0,0-1.03,2.147,16.594,16.594,0,0,0-.823,4.434c-.022.235-.044.469-.068.7q-.014.138-.028.269c-.014.137-.028.27-.041.4a1.491,1.491,0,0,1,.536.206A4.177,4.177,0,0,1,1834.707,1593.175Z" data-name="Path 266" transform="translate(-1818.866 -1583.588)"/><path id="Path_267" fill="#fff" stroke="#1a1818" stroke-miterlimit="10" stroke-width=".439" d="M1824.5,1593.229a7.55,7.55,0,0,0-6.613-.292.07.07,0,0,1-.071-.008.093.093,0,0,1-.037-.069,28.775,28.775,0,0,0-.653-5.064,9.159,9.159,0,0,0-1.972-3.942,16.653,16.653,0,0,1,1.054,7.293,5.563,5.563,0,0,0,.262,2.713.105.105,0,0,1,0,.074.085.085,0,0,1-.045.052,1.246,1.246,0,0,1-1.251-.207,4.646,4.646,0,0,1-.885-.935l-.05-.063a33.531,33.531,0,0,0-3.7-3.978,1.252,1.252,0,0,0-.3-.214.3.3,0,0,0-.182-.039c-.021.008-.031.039-.031.065a.285.285,0,0,0,.069.149l.023.033,4.3,6.423.064.095c.044.063.09.129.131.2a.953.953,0,0,1,.216.8.643.643,0,0,1-.511.409,4.024,4.024,0,0,1-2.393-.441,4.089,4.089,0,0,0-2.163-.457c1.238.646,2.477,1.334,3.688,2.046a3.191,3.191,0,0,1,1.114.923c.028.041.055.084.079.127a6.74,6.74,0,0,0,3.994,3.126,9.109,9.109,0,0,0,4.855-.1,6.358,6.358,0,0,0,2.392-1.1,4.058,4.058,0,0,0,1.5-2.387,4.549,4.549,0,0,0-.642-3.193A5.842,5.842,0,0,0,1824.5,1593.229Zm-3.661,4.041a.24.24,0,0,1-.222.253h-.3a.24.24,0,0,1-.222-.253v-2.186a.24.24,0,0,1,.222-.253h.3a.239.239,0,0,1,.222.253Zm4.492.027a.239.239,0,0,1-.221.253h-.3a.24.24,0,0,1-.222-.253v-2.185a.24.24,0,0,1,.222-.254h.3a.24.24,0,0,1,.221.254Z" data-name="Path 267" transform="translate(-1809.774 -1583.691)"/><path id="Path_268" fill="#fff" stroke="#1a1818" stroke-miterlimit="10" stroke-width=".439" d="M1843.3,1589.959a2.421,2.421,0,0,0-.793.535l-.076.066a18.077,18.077,0,0,0-1.487,1.5c-.46.507-.919,1.036-1.363,1.547l-.291.335c-.477.549-.97,1.117-1.479,1.646l-.159.169a5.208,5.208,0,0,1-.693.656,3.429,3.429,0,0,1,.571.626,4.427,4.427,0,0,1,.384.885l.03-.048.066-.106c.3-.486.621-.981.94-1.474.453-.7.876-1.34,1.295-1.959.523-.773.99-1.439,1.428-2.037l.172-.235c.257-.353.523-.719.8-1.062.187-.229.361-.427.532-.6.1-.1.191-.19.284-.274l.052-.046a.808.808,0,0,0,.127-.126A.506.506,0,0,0,1843.3,1589.959Z" data-name="Path 268" transform="translate(-1820.252 -1586.031)"/></g><path id="Path_269" fill="#1a1818" d="M1831.925,1587.3v-.009l0-.009,0-.008,0-.008,0-.007-.005-.007-.005-.007,0,0-.006-.006h0a.546.546,0,0,0-.541-.072,2.526,2.526,0,0,0-.848.565l-.076.066a18.053,18.053,0,0,0-1.5,1.516c-.462.508-.921,1.037-1.365,1.549l-.291.335c-.476.548-.968,1.114-1.473,1.641l-.16.171a3.186,3.186,0,0,1-1.012.832l-.013.007c-.1-.1-.21-.193-.32-.285.4-.465.334-1.337.255-2.439a16.951,16.951,0,0,1-.061-1.988,21.209,21.209,0,0,1,.274-2.6,11.713,11.713,0,0,1,.593-2.262,3.64,3.64,0,0,1,.243-.457c.171-.289.251-.433.212-.536a.117.117,0,0,0-.081-.078c-.091-.024-.222.065-.485.327a4.193,4.193,0,0,0-.54.7,12.039,12.039,0,0,0-1.047,2.181,16.755,16.755,0,0,0-.837,4.488c-.022.234-.043.469-.068.7-.009.092-.018.181-.027.269-.023.23-.046.448-.067.686a7.674,7.674,0,0,0-6.16-.1,28.275,28.275,0,0,0-.65-4.98,8.945,8.945,0,0,0-2.3-4.312.072.072,0,0,0-.1,0,.1.1,0,0,0-.022.111,16.378,16.378,0,0,1,1.2,7.586,5.925,5.925,0,0,0,.239,2.72,1.149,1.149,0,0,1-1.026-.224,4.567,4.567,0,0,1-.852-.9l-.05-.063a33.694,33.694,0,0,0-3.714-4,1.4,1.4,0,0,0-.339-.24.392.392,0,0,0-.291-.043.246.246,0,0,0-.141.24.446.446,0,0,0,.1.261l.02.03,4.3,6.424c.021.032.044.064.066.1.042.061.086.125.127.192a.8.8,0,0,1,.194.627.487.487,0,0,1-.394.294,3.927,3.927,0,0,1-2.308-.435,3.78,3.78,0,0,0-2.489-.406c-.033.01-2.007.084-2.01.123s1.967.032,2,.047c1.308.678,2.62,1.4,3.9,2.157a3.059,3.059,0,0,1,1.061.872c.025.037.049.075.072.115a6.909,6.909,0,0,0,4.09,3.2,7.838,7.838,0,0,0,2.144.286,10.834,10.834,0,0,0,2.786-.39,6.5,6.5,0,0,0,2.446-1.127,4.282,4.282,0,0,0,1.481-2.163,10.891,10.891,0,0,0,1.932-1.146,14.157,14.157,0,0,1,2.088-1.236c.276-.128.57-.262.877-.369l.01,0a.923.923,0,0,0,.143-.06.158.158,0,0,0,.1-.14.143.143,0,0,0-.106-.12,1.6,1.6,0,0,0-.363-.087,2.628,2.628,0,0,0-.729.017,4.729,4.729,0,0,0-1.169.356l-.012.005c-.119.05-.237.1-.356.155a5.43,5.43,0,0,1-1.374.466,1.385,1.385,0,0,1-1.041-.186l-.015-.008c-.039-.142-.084-.283-.135-.421a3.014,3.014,0,0,0,.281-.4c.021-.035.042-.07.064-.1.3-.484.62-.98.938-1.471.452-.7.875-1.339,1.293-1.956.522-.771.988-1.436,1.424-2.032l.171-.235c.256-.351.52-.715.8-1.053.184-.225.355-.419.522-.591.093-.1.186-.185.277-.267l.049-.042a.7.7,0,0,0,.21-.252h0l0-.008v0l0-.009,0-.008v-.026Zm-5.639,9.213a1.73,1.73,0,0,0,.815.048,5.8,5.8,0,0,0,1.413-.477c.117-.052.235-.1.353-.154l.011-.005a4.612,4.612,0,0,1,1.135-.346,2.483,2.483,0,0,1,.69-.016,1.614,1.614,0,0,1,.223.044l-.027.009-.011,0c-.313.109-.611.245-.89.374a14.258,14.258,0,0,0-2.11,1.25,12.909,12.909,0,0,1-1.611,1,3.759,3.759,0,0,0,.052-.773A8.1,8.1,0,0,0,1826.286,1596.517Zm-1.427-2.591.007.007a.037.037,0,0,0-.013,0Zm-.108.056.007.006v0l-.009-.009Zm-1.868-2.093q.014-.132.028-.269.035-.35.067-.7a16.584,16.584,0,0,1,.823-4.434,11.891,11.891,0,0,1,1.03-2.147,3.821,3.821,0,0,1,.516-.667,2.166,2.166,0,0,1,.287-.255c-.039.082-.111.205-.169.3a3.743,3.743,0,0,0-.257.486,11.884,11.884,0,0,0-.6,2.3,21.468,21.468,0,0,0-.277,2.624,17.006,17.006,0,0,0,.062,2.013,5.9,5.9,0,0,1-.049,1.994l0,0a1.508,1.508,0,0,0-.156-.129h0a4.191,4.191,0,0,0-.8-.5,1.494,1.494,0,0,0-.536-.206C1822.856,1592.159,1822.869,1592.026,1822.884,1591.889Zm3.08,6.285a4.06,4.06,0,0,1-1.5,2.387,6.356,6.356,0,0,1-2.392,1.1,9.108,9.108,0,0,1-4.855.1,6.739,6.739,0,0,1-3.994-3.126q-.037-.066-.079-.127a3.2,3.2,0,0,0-1.114-.922c-1.211-.712-2.45-1.4-3.688-2.046a4.091,4.091,0,0,1,2.163.457,4.025,4.025,0,0,0,2.393.441.642.642,0,0,0,.51-.409.953.953,0,0,0-.216-.8c-.041-.069-.087-.134-.131-.2l-.065-.094-4.3-6.424-.023-.033a.286.286,0,0,1-.069-.149c0-.026.01-.057.031-.065a.3.3,0,0,1,.183.039,1.242,1.242,0,0,1,.3.214,33.5,33.5,0,0,1,3.7,3.978l.051.063a4.641,4.641,0,0,0,.885.935,1.246,1.246,0,0,0,1.251.207.085.085,0,0,0,.045-.052.105.105,0,0,0,0-.074,5.566,5.566,0,0,1-.262-2.713,16.649,16.649,0,0,0-1.054-7.292,9.161,9.161,0,0,1,1.972,3.942,28.821,28.821,0,0,1,.653,5.064.092.092,0,0,0,.037.069.07.07,0,0,0,.071.008,7.549,7.549,0,0,1,6.613.292,5.841,5.841,0,0,1,2.253,2.028A4.548,4.548,0,0,1,1825.964,1598.174Zm5.646-10.708-.052.045c-.094.084-.189.176-.284.274-.172.176-.345.374-.532.6-.278.342-.544.708-.8,1.061l-.172.235c-.438.6-.9,1.265-1.428,2.038-.418.618-.842,1.259-1.295,1.959-.318.493-.635.988-.94,1.474l-.066.106-.03.049a4.437,4.437,0,0,0-.384-.885,3.438,3.438,0,0,0-.572-.626,5.2,5.2,0,0,0,.693-.656l.159-.169c.508-.53,1-1.1,1.479-1.647l.292-.335c.444-.511.9-1.04,1.363-1.547a18.041,18.041,0,0,1,1.487-1.5l.076-.066a2.413,2.413,0,0,1,.793-.535.505.505,0,0,1,.342,0A.823.823,0,0,1,1831.609,1587.466Zm-12.423,7.326h-.3a.216.216,0,0,0-.222.209v1.807a.217.217,0,0,0,.222.209h.3a.217.217,0,0,0,.222-.209V1595A.216.216,0,0,0,1819.186,1594.792Zm4.493.022h-.3a.216.216,0,0,0-.222.21v1.806a.216.216,0,0,0,.222.21h.3a.216.216,0,0,0,.221-.21v-1.806A.216.216,0,0,0,1823.679,1594.814Z" data-name="Path 269" transform="translate(-1804.463 -1583.138)"/></g><rect id="Rectangle_237" width="38.993" height="44.396" fill="#ffe58e" stroke="#1a1818" stroke-miterlimit="10" stroke-width="1" data-name="Rectangle 237" rx="4.686" transform="translate(1619.506 1499.975) rotate(-7.908)"/><g id="Group_568" data-name="Group 568" transform="translate(1628.382 1504.907)"><g id="Group_567" data-name="Group 567"><path id="Path_270" fill="#1a1818" d="M1700.538,1608.771a.24.24,0,0,1,.079.179.3.3,0,0,1-.094.245.423.423,0,0,1-.3.061q-.459-.036-.717-.049c-.171-.009-.4-.015-.676-.018q-.189.94-.347,1.888-.057.347-.118.8c-.041.3-.068.551-.081.737a.286.286,0,0,1-.123.227.455.455,0,0,1-.27.079.381.381,0,0,1-.261-.082.273.273,0,0,1-.092-.214,3.377,3.377,0,0,1,.038-.405q.038-.284.09-.595c.037-.207.066-.388.086-.541q.056-.387.128-.77t.143-.725c.01-.051.021-.109.035-.176s.029-.14.047-.221a4.223,4.223,0,0,0-.786.082.838.838,0,0,0-.406.186.416.416,0,0,0-.12.308.6.6,0,0,0,.1.332.152.152,0,0,1,.02.076.232.232,0,0,1-.115.181.4.4,0,0,1-.237.084.2.2,0,0,1-.143-.051.633.633,0,0,1-.168-.247.946.946,0,0,1-.067-.365.907.907,0,0,1,.283-.7,1.808,1.808,0,0,1,.863-.385,7.436,7.436,0,0,1,1.487-.122c.374,0,.672.007.9.02a5.055,5.055,0,0,1,.584.067A.459.459,0,0,1,1700.538,1608.771Z" data-name="Path 270" transform="translate(-1693.667 -1608.511)"/><path id="Path_271" fill="#1a1818" d="M1703.009,1612.717a1.469,1.469,0,0,1-.58-.6,1.966,1.966,0,0,1-.214-.947,3.124,3.124,0,0,1,.283-1.368,2.19,2.19,0,0,1,.77-.913,1.917,1.917,0,0,1,1.079-.321,1.654,1.654,0,0,1,.819.2,1.465,1.465,0,0,1,.578.6,1.963,1.963,0,0,1,.215.946,3.143,3.143,0,0,1-.283,1.368,2.207,2.207,0,0,1-.771.913,1.918,1.918,0,0,1-1.079.322A1.644,1.644,0,0,1,1703.009,1612.717Zm1.572-.643a1.544,1.544,0,0,0,.467-.68,2.807,2.807,0,0,0,.163-.987,1.434,1.434,0,0,0-.255-.921.811.811,0,0,0-.658-.313,1.077,1.077,0,0,0-.694.242,1.577,1.577,0,0,0-.47.679,2.739,2.739,0,0,0-.168.992,1.429,1.429,0,0,0,.255.921.808.808,0,0,0,.658.313A1.085,1.085,0,0,0,1704.58,1612.074Z" data-name="Path 271" transform="translate(-1695.99 -1608.508)"/><path id="Path_272" fill="#1a1818" d="M1711.7,1612.831a.461.461,0,0,1-.281-.106.351.351,0,0,1-.066-.266,12,12,0,0,1,.168-1.247q.132-.743.321-1.431a.262.262,0,0,1,.143-.178.644.644,0,0,1,.28-.052q.312,0,.312.174a.529.529,0,0,1-.031.163,9.389,9.389,0,0,0-.266,1.095,12.929,12.929,0,0,0-.189,1.309c.1.01.218.015.347.015a1.62,1.62,0,0,0,1.334-.541,2.218,2.218,0,0,0,.441-1.444,1.236,1.236,0,0,0-.347-.938,1.362,1.362,0,0,0-.979-.331,2.659,2.659,0,0,0-.809.127,2.975,2.975,0,0,0-.722.337.246.246,0,0,1-.143.046.158.158,0,0,1-.138-.074.311.311,0,0,1-.051-.181.431.431,0,0,1,.041-.2.4.4,0,0,1,.137-.145,2.654,2.654,0,0,1,.827-.365,3.57,3.57,0,0,1,.913-.125,2.474,2.474,0,0,1,1.076.216,1.581,1.581,0,0,1,.7.635,1.967,1.967,0,0,1,.245,1.01,2.819,2.819,0,0,1-.306,1.345,2.131,2.131,0,0,1-.893.89,2.9,2.9,0,0,1-1.4.317A4.888,4.888,0,0,1,1711.7,1612.831Z" data-name="Path 272" transform="translate(-1699.388 -1608.47)"/><path id="Path_273" fill="#1a1818" d="M1718.922,1612.717a1.464,1.464,0,0,1-.579-.6,1.96,1.96,0,0,1-.214-.947,3.126,3.126,0,0,1,.283-1.368,2.194,2.194,0,0,1,.77-.913,1.916,1.916,0,0,1,1.079-.321,1.655,1.655,0,0,1,.819.2,1.466,1.466,0,0,1,.578.6,1.964,1.964,0,0,1,.215.946,3.143,3.143,0,0,1-.283,1.368,2.208,2.208,0,0,1-.771.913,1.915,1.915,0,0,1-1.079.322A1.644,1.644,0,0,1,1718.922,1612.717Zm1.572-.643a1.543,1.543,0,0,0,.467-.68,2.81,2.81,0,0,0,.163-.987,1.434,1.434,0,0,0-.255-.921.811.811,0,0,0-.658-.313,1.078,1.078,0,0,0-.694.242,1.585,1.585,0,0,0-.469.679,2.737,2.737,0,0,0-.168.992,1.429,1.429,0,0,0,.255.921.808.808,0,0,0,.658.313A1.085,1.085,0,0,0,1720.493,1612.074Z" data-name="Path 273" transform="translate(-1702.123 -1608.508)"/><path id="Path_274" fill="#1a1818" d="M1724.634,1614.02a.45.45,0,0,1-.114-.321.513.513,0,0,1,.13-.368.479.479,0,0,1,.365-.138.474.474,0,0,1,.339.11.429.429,0,0,1,.114.324.526.526,0,0,1-.132.375.475.475,0,0,1-.362.14A.444.444,0,0,1,1724.634,1614.02Zm.179-1.453a.45.45,0,0,1-.114-.321.516.516,0,0,1,.129-.368.565.565,0,0,1,.7-.028.425.425,0,0,1,.115.323.527.527,0,0,1-.132.375.477.477,0,0,1-.363.14A.443.443,0,0,1,1724.813,1612.567Z" data-name="Path 274" transform="translate(-1704.586 -1609.73)"/><path id="Path_275" fill="#1a1818" d="M1693.006,1632.76a.462.462,0,0,1-.082-.319,3.175,3.175,0,0,1,.033-.406q.033-.248.11-.682.132-.8.208-1.387a5.1,5.1,0,0,0,.047-.612c0-.153-.057-.23-.169-.23a.584.584,0,0,0-.318.135,2.128,2.128,0,0,0-.411.431.2.2,0,0,1-.158.1.155.155,0,0,1-.125-.069.244.244,0,0,1-.054-.155.441.441,0,0,1,.034-.166.945.945,0,0,1,.109-.191,1.93,1.93,0,0,1,.546-.528,1.136,1.136,0,0,1,.6-.186.533.533,0,0,1,.431.178.789.789,0,0,1,.151.521,2.518,2.518,0,0,1-.025.324c-.018.124-.033.225-.046.3s-.024.133-.031.164a2.851,2.851,0,0,1,.653-1.161,1.16,1.16,0,0,1,.8-.329.639.639,0,0,1,.524.235,1.024,1.024,0,0,1,.191.663,2.373,2.373,0,0,1-.046.418,2.48,2.48,0,0,1,.6-1.01,1.144,1.144,0,0,1,.786-.306.673.673,0,0,1,.548.229.975.975,0,0,1,.191.643,2.821,2.821,0,0,1-.066.547l-.312,1.459a2.25,2.25,0,0,0-.051.439.456.456,0,0,0,.1.321.361.361,0,0,0,.278.107.564.564,0,0,0,.329-.113,2.174,2.174,0,0,0,.381-.372.178.178,0,0,1,.137-.071.117.117,0,0,1,.1.061.316.316,0,0,1,.039.169.48.48,0,0,1-.1.316,1.967,1.967,0,0,1-.526.469,1.09,1.09,0,0,1-.546.148.89.89,0,0,1-.679-.258.961.961,0,0,1-.245-.692,4.574,4.574,0,0,1,.122-.872l.2-.934c.007-.031.019-.085.036-.163s.031-.152.041-.222a1.4,1.4,0,0,0,.015-.207.435.435,0,0,0-.069-.268.235.235,0,0,0-.2-.089.709.709,0,0,0-.5.309,3.168,3.168,0,0,0-.5,1.023,10.242,10.242,0,0,0-.385,1.857.815.815,0,0,1-.125.411.36.36,0,0,1-.288.105.337.337,0,0,1-.253-.082.444.444,0,0,1-.079-.306,3.566,3.566,0,0,1,.055-.547q.057-.339.143-.8a11.411,11.411,0,0,0,.235-1.592.451.451,0,0,0-.074-.286.268.268,0,0,0-.222-.092.735.735,0,0,0-.515.283,2.932,2.932,0,0,0-.518,1.005,10.346,10.346,0,0,0-.421,1.951.908.908,0,0,1-.1.362.3.3,0,0,1-.268.1A.364.364,0,0,1,1693.006,1632.76Z" data-name="Path 275" transform="translate(-1692.087 -1616.186)"/><path id="Path_276" fill="#1a1818" d="M1702.8,1633.83a.915.915,0,0,1-.189-.6,1.654,1.654,0,0,1,.189-.773,1.606,1.606,0,0,1,.5-.586,1.134,1.134,0,0,1,.666-.222.2.2,0,0,1,.15.044.368.368,0,0,1,.065.155,1.205,1.205,0,0,1,.224-.02c.167,0,.25.06.25.179a3.817,3.817,0,0,1-.076.51,4.91,4.91,0,0,0-.117.816.182.182,0,0,0,.038.122.123.123,0,0,0,.1.046.387.387,0,0,0,.234-.125,4.26,4.26,0,0,0,.372-.406.179.179,0,0,1,.138-.071.117.117,0,0,1,.1.061.316.316,0,0,1,.039.169.469.469,0,0,1-.1.316,2.552,2.552,0,0,1-.444.439.756.756,0,0,1-.454.179.474.474,0,0,1-.308-.115.691.691,0,0,1-.212-.314.776.776,0,0,1-.668.429A.62.62,0,0,1,1702.8,1633.83Zm.9-.418a.865.865,0,0,0,.148-.353l.189-.938a.618.618,0,0,0-.4.161,1.084,1.084,0,0,0-.288.41,1.389,1.389,0,0,0-.108.541.361.361,0,0,0,.064.234.217.217,0,0,0,.176.077A.283.283,0,0,0,1703.706,1633.412Z" data-name="Path 276" transform="translate(-1696.144 -1617.402)"/><path id="Path_277" fill="#1a1818" d="M1709.7,1631.448a.321.321,0,0,1,.038.169.469.469,0,0,1-.1.316,2.466,2.466,0,0,1-.465.449.929.929,0,0,1-.556.168.884.884,0,0,1-.632-.225.776.776,0,0,1-.24-.6.3.3,0,0,1,.2-.286.909.909,0,0,0,.321-.206.393.393,0,0,0,.1-.269.21.21,0,0,0-.039-.138.119.119,0,0,0-.094-.046.442.442,0,0,0-.3.2,2.277,2.277,0,0,0-.309.513,3.674,3.674,0,0,0-.224.645.8.8,0,0,1-.13.325.293.293,0,0,1-.232.084.255.255,0,0,1-.232-.115.831.831,0,0,1-.1-.355c-.017-.16-.025-.395-.025-.7a8.9,8.9,0,0,1,.16-1.637,4.921,4.921,0,0,1,.475-1.431q.313-.579.752-.578a.449.449,0,0,1,.38.2.875.875,0,0,1,.145.523,2.239,2.239,0,0,1-.3,1.069,6.964,6.964,0,0,1-.98,1.293c-.01.177-.015.359-.015.547a2.409,2.409,0,0,1,.561-.926.913.913,0,0,1,.592-.288.522.522,0,0,1,.41.173.62.62,0,0,1,.156.429.971.971,0,0,1-.142.515,1.222,1.222,0,0,1-.49.419.334.334,0,0,0,.125.222.387.387,0,0,0,.253.084.476.476,0,0,0,.306-.122,3.338,3.338,0,0,0,.388-.408.18.18,0,0,1,.138-.071A.118.118,0,0,1,1709.7,1631.448Zm-1.942-2.951a4.39,4.39,0,0,0-.217.709,9.572,9.572,0,0,0-.171.972,3.626,3.626,0,0,0,.522-.811,1.889,1.889,0,0,0,.207-.8.683.683,0,0,0-.036-.25c-.024-.058-.058-.087-.1-.087C1707.9,1628.234,1707.833,1628.321,1707.758,1628.5Z" data-name="Path 277" transform="translate(-1697.712 -1615.892)"/><path id="Path_278" fill="#1a1818" d="M1712.865,1633.117a.318.318,0,0,1,.039.169.563.563,0,0,1-.087.316.988.988,0,0,1-.375.342,1.171,1.171,0,0,1-.554.123.983.983,0,0,1-.76-.293,1.127,1.127,0,0,1-.27-.793,1.478,1.478,0,0,1,.148-.656,1.2,1.2,0,0,1,.411-.483,1.035,1.035,0,0,1,.594-.178.611.611,0,0,1,.653.653.826.826,0,0,1-.253.6,1.831,1.831,0,0,1-.86.4.428.428,0,0,0,.413.235.579.579,0,0,0,.345-.1,1.711,1.711,0,0,0,.313-.326.176.176,0,0,1,.137-.077A.118.118,0,0,1,1712.865,1633.117Zm-1.26-.734a1.024,1.024,0,0,0-.13.531v.01a1.152,1.152,0,0,0,.475-.214.421.421,0,0,0,.173-.331.22.22,0,0,0-.054-.156.185.185,0,0,0-.145-.058A.374.374,0,0,0,1711.6,1632.382Z" data-name="Path 278" transform="translate(-1699.321 -1617.408)"/><path id="Path_279" fill="#1a1818" d="M1716.667,1633.83a.944.944,0,0,1-.181-.6,1.654,1.654,0,0,1,.189-.773,1.612,1.612,0,0,1,.5-.586,1.136,1.136,0,0,1,.666-.222.2.2,0,0,1,.15.044.365.365,0,0,1,.065.155,1.05,1.05,0,0,1,.215-.02.268.268,0,0,1,.188.061.223.223,0,0,1,.067.173,2.879,2.879,0,0,1-.051.408q-.057.312-.087.595a5.992,5.992,0,0,0-.031.635.4.4,0,0,1-.079.278.34.34,0,0,1-.258.084.351.351,0,0,1-.258-.084.377.377,0,0,1-.084-.274l.005-.082a.564.564,0,0,1-.546.439A.575.575,0,0,1,1716.667,1633.83Zm.932-.485a2.361,2.361,0,0,0,.209-.709l.1-.516a.6.6,0,0,0-.388.161,1.091,1.091,0,0,0-.286.41,1.385,1.385,0,0,0-.108.541.387.387,0,0,0,.059.232.185.185,0,0,0,.156.079Q1717.481,1633.544,1717.6,1633.345Z" data-name="Path 279" transform="translate(-1701.49 -1617.402)"/><path id="Path_280" fill="#1a1818" d="M1725.153,1632.971a.309.309,0,0,1,.038.16.4.4,0,0,1-.035.183.341.341,0,0,1-.113.118c-.293.2-.507.343-.643.439l-.326.219a6.1,6.1,0,0,1-.508,1.66.922.922,0,0,1-.8.605.579.579,0,0,1-.424-.161.566.566,0,0,1-.163-.421,1.4,1.4,0,0,1,.286-.778,5.143,5.143,0,0,1,1.071-1.023l.03-.2a.578.578,0,0,1-.227.212.591.591,0,0,1-.278.074.62.62,0,0,1-.505-.23.915.915,0,0,1-.189-.6,1.654,1.654,0,0,1,.189-.773,1.606,1.606,0,0,1,.5-.586,1.134,1.134,0,0,1,.666-.222.2.2,0,0,1,.15.044.365.365,0,0,1,.065.155,1.1,1.1,0,0,1,.224-.02.324.324,0,0,1,.181.038.174.174,0,0,1,.054.151.652.652,0,0,1-.005.1c-.013.106-.056.373-.127.8-.014.082-.028.171-.044.268s-.031.2-.048.308q.393-.306.755-.541a.234.234,0,0,1,.117-.041A.118.118,0,0,1,1725.153,1632.971Zm-2.042,2.584a4.185,4.185,0,0,0,.309-.974,2.963,2.963,0,0,0-.567.607.916.916,0,0,0-.173.475.279.279,0,0,0,.033.143.118.118,0,0,0,.11.056Q1722.951,1635.861,1723.112,1635.554Zm.36-2.153a.95.95,0,0,0,.153-.408l.163-.873a.6.6,0,0,0-.388.161,1.092,1.092,0,0,0-.286.41,1.387,1.387,0,0,0-.108.541.361.361,0,0,0,.064.234.217.217,0,0,0,.176.077A.292.292,0,0,0,1723.472,1633.4Z" data-name="Path 280" transform="translate(-1703.685 -1617.402)"/><path id="Path_281" fill="#1a1818" d="M1729.229,1632.537a.351.351,0,0,1,.036.168c0,.163-.049.26-.148.291a2.319,2.319,0,0,1-.674.122,1.27,1.27,0,0,1-.382.686.942.942,0,0,1-.648.258.908.908,0,0,1-.523-.148.934.934,0,0,1-.329-.393,1.252,1.252,0,0,1-.113-.53,1.562,1.562,0,0,1,.147-.691,1.159,1.159,0,0,1,.409-.474,1.024,1.024,0,0,1,.577-.171.8.8,0,0,1,.625.269,1.149,1.149,0,0,1,.278.66,3.054,3.054,0,0,0,.571-.1.3.3,0,0,1,.072-.01A.111.111,0,0,1,1729.229,1632.537Zm-1.492.852a.741.741,0,0,0,.161-.383.7.7,0,0,1-.243-.281.82.82,0,0,1-.084-.367.865.865,0,0,1,.015-.164h-.025a.4.4,0,0,0-.34.2.971.971,0,0,0-.135.554.711.711,0,0,0,.11.428.318.318,0,0,0,.258.147A.369.369,0,0,0,1727.736,1633.389Z" data-name="Path 281" transform="translate(-1705.329 -1617.405)"/><path id="Path_282" fill="#1a1818" d="M1732.973,1632.537a.348.348,0,0,1,.036.168q0,.245-.148.291a2.319,2.319,0,0,1-.673.122,1.274,1.274,0,0,1-.383.686.941.941,0,0,1-.648.258.908.908,0,0,1-.523-.148.935.935,0,0,1-.329-.393,1.252,1.252,0,0,1-.112-.53,1.552,1.552,0,0,1,.148-.691,1.153,1.153,0,0,1,.408-.474,1.024,1.024,0,0,1,.576-.171.8.8,0,0,1,.625.269,1.145,1.145,0,0,1,.278.66,3.071,3.071,0,0,0,.572-.1.3.3,0,0,1,.071-.01A.111.111,0,0,1,1732.973,1632.537Zm-1.492.852a.739.739,0,0,0,.161-.383.7.7,0,0,1-.243-.281.818.818,0,0,1-.084-.367.875.875,0,0,1,.015-.164h-.025a.4.4,0,0,0-.34.2.972.972,0,0,0-.135.554.71.71,0,0,0,.11.428.317.317,0,0,0,.258.147A.369.369,0,0,0,1731.48,1633.389Z" data-name="Path 282" transform="translate(-1706.772 -1617.405)"/><path id="Path_283" fill="#1a1818" d="M1736.04,1632.213a.48.48,0,0,1,.02.138q0,.23-.28.23a.324.324,0,0,1-.243-.087.814.814,0,0,1-.156-.326l0-.02a1.213,1.213,0,0,1-.35.321.762.762,0,0,1-.36.082.649.649,0,0,1-.513-.232.891.891,0,0,1-.2-.6,1.67,1.67,0,0,1,.173-.755,1.563,1.563,0,0,1,.475-.568,1.4,1.4,0,0,1,.674-.269,6.546,6.546,0,0,1,.369-1.678c.183-.477.425-.714.728-.714a.437.437,0,0,1,.365.2,1.019,1.019,0,0,1,.146.6,3.9,3.9,0,0,1-.275,1.312,10.311,10.311,0,0,1-.73,1.546A6.676,6.676,0,0,0,1736.04,1632.213Zm-1-.255a1.435,1.435,0,0,0,.242-.3,5.6,5.6,0,0,1-.051-.77c0-.106,0-.187.005-.245a.815.815,0,0,0-.465.372,1.18,1.18,0,0,0-.184.643c0,.248.085.372.255.372A.31.31,0,0,0,1735.042,1631.958Zm.995-2.973a13.757,13.757,0,0,0-.176,1.642,5.056,5.056,0,0,0,.566-1.99,1.06,1.06,0,0,0-.033-.3c-.022-.071-.049-.107-.079-.107C1736.217,1628.229,1736.123,1628.48,1736.037,1628.984Z" data-name="Path 283" transform="translate(-1708.221 -1615.892)"/><path id="Path_284" fill="#1a1818" d="M1696.4,1643.745a1.02,1.02,0,0,1-.278-.748,1.537,1.537,0,0,1,.163-.724,1.248,1.248,0,0,1,.423-.48.991.991,0,0,1,.546-.168.57.57,0,0,1,.436.166.6.6,0,0,1,.156.426.657.657,0,0,1-.095.362.283.283,0,0,1-.247.148.248.248,0,0,1-.156-.046.153.153,0,0,1-.058-.127.357.357,0,0,1,.01-.082l.015-.066a.451.451,0,0,0,.026-.143.146.146,0,0,0-.033-.1.124.124,0,0,0-.095-.036.3.3,0,0,0-.219.1.757.757,0,0,0-.164.283,1.219,1.219,0,0,0-.061.393q0,.593.515.592a.906.906,0,0,0,.451-.14,1.828,1.828,0,0,0,.477-.421.181.181,0,0,1,.138-.072.119.119,0,0,1,.1.061.323.323,0,0,1,.038.169.492.492,0,0,1-.1.316,1.647,1.647,0,0,1-.573.457,1.489,1.489,0,0,1-.645.161A1.042,1.042,0,0,1,1696.4,1643.745Z" data-name="Path 284" transform="translate(-1693.643 -1621.247)"/><path id="Path_285" fill="#1a1818" d="M1701.968,1642.5a.35.35,0,0,1,.036.168q0,.245-.149.291a2.335,2.335,0,0,1-.673.122,1.278,1.278,0,0,1-.382.686.944.944,0,0,1-.648.258.908.908,0,0,1-.523-.148.932.932,0,0,1-.329-.393,1.252,1.252,0,0,1-.112-.53,1.563,1.563,0,0,1,.147-.691,1.158,1.158,0,0,1,.408-.475,1.026,1.026,0,0,1,.577-.172.8.8,0,0,1,.625.269,1.145,1.145,0,0,1,.278.66,3.056,3.056,0,0,0,.572-.1.3.3,0,0,1,.071-.01A.111.111,0,0,1,1701.968,1642.5Zm-1.492.851a.735.735,0,0,0,.161-.382.7.7,0,0,1-.243-.281.828.828,0,0,1-.083-.367.866.866,0,0,1,.015-.164h-.025a.4.4,0,0,0-.34.2.972.972,0,0,0-.135.554.712.712,0,0,0,.109.428.317.317,0,0,0,.258.148A.369.369,0,0,0,1700.476,1643.35Z" data-name="Path 285" transform="translate(-1694.824 -1621.244)"/><path id="Path_286" fill="#1a1818" d="M1706.847,1641.272c0,.272-.217.408-.653.408l-.286-.016a5.738,5.738,0,0,1,.089.615c.023.229.033.458.033.686a1.566,1.566,0,0,1-.186.843.552.552,0,0,1-.477.29q-.367,0-.523-.52a5.891,5.891,0,0,1-.155-1.572c0-.18,0-.363.015-.546a1.431,1.431,0,0,1-.148.005c-.092,0-.167,0-.225,0q.051.378.079.725t.028.77a1.572,1.572,0,0,1-.186.843.553.553,0,0,1-.478.29q-.367,0-.522-.52a5.886,5.886,0,0,1-.156-1.572,10.392,10.392,0,0,1,.2-1.992,5.971,5.971,0,0,1,.549-1.666q.351-.658.8-.658a.411.411,0,0,1,.359.191.975.975,0,0,1,.13.549,3.115,3.115,0,0,1-.3,1.237,4.8,4.8,0,0,1-1.054,1.432,8.536,8.536,0,0,0-.045.872q0,.526.036,1.079c.024.369.063.554.117.554s.092-.043.122-.128a1.292,1.292,0,0,0,.045-.4c0-.334-.012-.628-.038-.885a5.681,5.681,0,0,0-.089-.62.429.429,0,0,1-.01-.108.448.448,0,0,1,.176-.362.74.74,0,0,1,.467-.148h.194a9.227,9.227,0,0,1,.319-1.594,4.205,4.205,0,0,1,.541-1.206.87.87,0,0,1,.686-.46.421.421,0,0,1,.375.215,1.068,1.068,0,0,1,.135.577,3.5,3.5,0,0,1-.168,1,3.842,3.842,0,0,1-.5,1.044,2.218,2.218,0,0,1-.784.732,6.93,6.93,0,0,0-.035.709q0,.526.035,1.079t.118.554c.051,0,.092-.043.122-.128a1.292,1.292,0,0,0,.045-.4,6.684,6.684,0,0,0-.041-.76q-.04-.362-.087-.592a.536.536,0,0,1,.133-.467.446.446,0,0,1,.326-.145c.116,0,.223,0,.319-.013s.159-.014.186-.018c.115-.014.191-.02.224-.02C1706.8,1641.057,1706.847,1641.129,1706.847,1641.272Zm-2.533-2.765a5.954,5.954,0,0,0-.247.826q-.123.515-.21,1.1a3.274,3.274,0,0,0,.584-1,2.877,2.877,0,0,0,.2-.976.481.481,0,0,0-.03-.194c-.021-.044-.047-.066-.077-.066C1704.47,1638.2,1704.4,1638.3,1704.314,1638.507Zm1.628.046a6.565,6.565,0,0,0-.286.934q-.141.576-.232,1.194a1.892,1.892,0,0,0,.492-.612,3.444,3.444,0,0,0,.3-.8,3.335,3.335,0,0,0,.1-.76q0-.311-.127-.312Q1706.087,1638.2,1705.943,1638.552Z" data-name="Path 286" transform="translate(-1696.331 -1619.731)"/><path id="Path_287" fill="#1a1818" d="M1710.45,1643.079a.316.316,0,0,1,.038.169.563.563,0,0,1-.086.316.991.991,0,0,1-.375.342,1.17,1.17,0,0,1-.554.123.982.982,0,0,1-.76-.293,1.127,1.127,0,0,1-.271-.793,1.473,1.473,0,0,1,.148-.656,1.2,1.2,0,0,1,.411-.482,1.036,1.036,0,0,1,.594-.178.611.611,0,0,1,.653.654.828.828,0,0,1-.253.6,1.833,1.833,0,0,1-.86.4.429.429,0,0,0,.413.235.578.578,0,0,0,.345-.1,1.682,1.682,0,0,0,.313-.326.176.176,0,0,1,.138-.077A.118.118,0,0,1,1710.45,1643.079Zm-1.26-.734a1.023,1.023,0,0,0-.13.53v.01a1.16,1.16,0,0,0,.475-.215.421.421,0,0,0,.173-.331.219.219,0,0,0-.054-.155.186.186,0,0,0-.145-.059A.375.375,0,0,0,1709.19,1642.344Z" data-name="Path 287" transform="translate(-1698.39 -1621.247)"/></g></g><path id="Path_288" fill="none" stroke="#1a1818" stroke-miterlimit="10" stroke-width=".75" d="M1692.475,1618.915s29.448-1.624,29.018-1.05" data-name="Path 288" transform="translate(-63.873 -107.136)"/><path id="Path_289" fill="none" stroke="#1a1818" stroke-miterlimit="10" stroke-width=".75" d="M1693.991,1622.638s27.485-2.811,27.156-1.6" data-name="Path 289" transform="translate(-64.479 -108.289)"/><path id="Path_290" fill="#bea76c" d="M1716.453,1594.086l-38.146,5.256.871-2.07,35.709-4.884Z" data-name="Path 290" transform="translate(-58.071 -97.364)"/><rect id="Rectangle_238" width="96.754" height="13.002" fill="#71cbe0" data-name="Rectangle 238" transform="matrix(0.998, -0.06, 0.06, 0.998, 1601.389, 1371.402)"/><rect id="Rectangle_239" width="96.754" height="13.002" fill="#71cbe0" data-name="Rectangle 239" transform="matrix(0.998, -0.06, 0.06, 0.998, 1608.045, 1390.455)"/><rect id="Rectangle_240" width="96.754" height="13.002" fill="#b4bce0" data-name="Rectangle 240" transform="matrix(0.998, -0.06, 0.06, 0.998, 1705.064, 1365.126)"/><rect id="Rectangle_241" width="96.754" height="13.002" fill="#b4bce0" data-name="Rectangle 241" transform="matrix(0.998, -0.06, 0.06, 0.998, 1714.057, 1382.352)"/><rect id="Rectangle_242" width="52.243" height="7.572" fill="#df272e" data-name="Rectangle 242" transform="matrix(0.998, -0.06, 0.06, 0.998, 1623.136, 1408.961)"/><path id="Path_291" fill="#a5c8cd" d="M1891.012,1729.9l-83.75-4.419-8.115,29.342,4.949,30.656,83.75,4.419Z" data-name="Path 291" transform="translate(-110.775 -148.655)"/><path id="Path_292" fill="#d9e5eb" d="M1674.1,1718.287l83.75,4.42-3.166,60-83.75-4.42Z" data-name="Path 292" transform="translate(-55.831 -145.884)"/><g id="Group_569" data-name="Group 569" transform="translate(1632.329 1584.716)"><path id="Path_293" fill="#7390a0" d="M1700.789,1738.32l10.435.551-.373,7.055-10.434-.55Z" data-name="Path 293" transform="translate(-1700.417 -1738.32)"/><path id="Path_294" fill="#7390a0" d="M1734.743,1740.112l10.433.551-.373,7.055-10.432-.551Z" data-name="Path 294" transform="translate(-1713.502 -1739.011)"/><path id="Path_295" fill="#7390a0" d="M1768.694,1741.9l10.432.55-.372,7.055-10.433-.551Z" data-name="Path 295" transform="translate(-1726.586 -1739.701)"/><path id="Path_296" fill="#7390a0" d="M1802.645,1743.7l10.432.551-.372,7.055-10.433-.551Z" data-name="Path 296" transform="translate(-1739.67 -1740.391)"/></g><path id="Path_297" fill="#4e6670" d="M1836.6,1745.487l10.433.55-.372,7.055-10.433-.551Z" data-name="Path 297" transform="translate(-123.61 -156.366)"/><path id="Path_298" fill="#4e6670" d="M1870.547,1747.278l10.434.551-.373,7.054-10.434-.551Z" data-name="Path 298" transform="translate(-137.784 -157.056)"/><path id="Path_299" fill="#4e6670" d="M1904.5,1749.07l10.435.551-.372,7.055-10.435-.551Z" data-name="Path 299" transform="translate(-151.96 -157.747)"/><rect id="Rectangle_243" width="96.754" height="13.002" fill="#b4bce0" data-name="Rectangle 243" transform="matrix(0.998, -0.06, 0.06, 0.998, 1615.18, 1428.19)"/><rect id="Rectangle_244" width="96.754" height="13.002" fill="#b4bce0" data-name="Rectangle 244" transform="matrix(0.998, -0.06, 0.06, 0.998, 1619.173, 1447.416)"/><path id="Path_300" fill="#7390a0" d="M1767.406,1766.308l10.433.551-.372,7.055-10.433-.551Z" data-name="Path 300" transform="translate(-94.722 -164.39)"/><path id="Path_301" fill="#7390a0" d="M1801.357,1768.1l10.433.55-.372,7.055-10.433-.551Z" data-name="Path 301" transform="translate(-108.897 -165.08)"/><path id="Path_302" fill="#4e6670" d="M1835.307,1769.891l10.433.551-.372,7.055-10.433-.551Z" data-name="Path 302" transform="translate(-123.072 -165.771)"/><path id="Path_303" fill="#4e6670" d="M1869.259,1771.683l10.435.551-.373,7.055-10.434-.551Z" data-name="Path 303" transform="translate(-137.247 -166.461)"/><path id="Path_304" fill="#4e6670" d="M1903.21,1773.474l10.435.551-.373,7.055-10.434-.551Z" data-name="Path 304" transform="translate(-151.422 -167.151)"/><rect id="Rectangle_245" width="52.243" height="7.572" fill="#df272e" data-name="Rectangle 245" transform="matrix(0.998, -0.06, 0.06, 0.998, 1716.984, 1402.938)"/><path id="Path_305" fill="#7390a0" d="M1699.5,1762.725l10.434.551-.372,7.055-10.434-.551Z" data-name="Path 305" transform="translate(-66.371 -163.009)"/><path id="Path_306" fill="#4e6670" d="M1867.971,1796.087l31.3,1.652-.372,7.055-31.3-1.652Z" data-name="Path 306" transform="translate(-137.406 -175.866)"/><path id="Path_307" fill="#4e6670" d="M1832.7,1794.328l-26.084-1.376-3.46,3.355,3.088,3.7,26.083,1.377Z" data-name="Path 307" transform="translate(-110.304 -174.658)"/><path id="Path_308" fill="#7390a0" d="M1766.118,1790.713l26.083,1.376-.372,7.055-26.084-1.376Z" data-name="Path 308" transform="translate(-94.538 -173.795)"/><path id="Path_309" fill="#7390a0" d="M1733.455,1764.517l10.432.55-.372,7.055-10.433-.551Z" data-name="Path 309" transform="translate(-80.547 -163.7)"/><path id="Path_310" fill="#7390a0" d="M1698.214,1787.13l10.434.55-.372,7.055-10.435-.55Z" data-name="Path 310" transform="translate(-65.833 -172.414)"/><path id="Path_311" fill="#7390a0" d="M1732.167,1788.921l10.433.551-.372,7.055-10.433-.551Z" data-name="Path 311" transform="translate(-80.009 -173.104)"/></g></svg>